<svg width="218" height="229" viewBox="0 0 218 229" fill="none" xmlns="http://www.w3.org/2000/svg">
  <path d="M150.228 196.645V196.74C150.228 199.649 151.383 202.438 153.44 204.495C155.497 206.552 158.286 207.707 161.195 207.707C164.103 207.707 166.893 206.552 168.95 204.495C171.006 202.438 172.162 199.649 172.162 196.74" stroke="#CCDDE2" stroke-width="1.5" stroke-miterlimit="10"/>
  <path d="M76.7161 54.0741C76.7161 54.0741 93.768 52.1077 93.872 73.0335L141.606 59.1335L149.101 56.7766C149.101 56.7766 138.347 43.7306 125.942 41.486C126.076 42.7538 126.327 44.0065 126.692 45.2279C127.333 47.4753 125.209 48.7956 122.262 49.6328C119.315 50.4699 113.348 45.5173 112.323 41.1489C112.323 41.1489 113.795 39.8202 108.311 40.7725C102.828 41.7248 86.1887 45.5903 76.7161 54.0741Z" fill="#FFBC61"/>
  <path d="M2.68406 155.627C3.1495 155.878 3.66954 156.01 4.19823 156.012C4.6747 156.012 5.14494 155.904 5.57424 155.697C6.00358 155.49 6.38102 155.19 6.67877 154.818L17.4382 141.629L26.1214 130.732L19.0141 126.746C18.2775 126.33 17.4061 126.224 16.5912 126.45C15.7762 126.677 15.0846 127.217 14.6682 127.954L1.41711 151.222C1.20664 151.594 1.07239 152.003 1.02222 152.427C0.972071 152.851 1.00702 153.281 1.125 153.691C1.24299 154.101 1.44166 154.484 1.70938 154.816C1.97707 155.149 2.30844 155.424 2.68406 155.627Z" fill="#3FBDF1"/>
  <path d="M166.462 217.854L175.418 226.664C176.192 227.429 177.237 227.857 178.325 227.858H200.734C201.656 227.864 202.543 227.514 203.213 226.881C203.883 226.249 204.283 225.383 204.33 224.463C204.378 223.543 204.069 222.641 203.467 221.943C202.866 221.245 202.019 220.806 201.102 220.717L188.669 219.43L166.462 217.854Z" fill="#3FBDF1"/>
  <path d="M125.2 40.4831V41.0899V41.2444C130.155 42.4869 134.821 44.6812 138.938 47.7056C139.603 48.1944 140.255 48.6888 140.904 49.2113C140.921 47.1157 140.741 45.0116 140.061 43.0311C139.512 41.3292 138.48 39.8232 137.092 38.6964C135.87 37.7216 134.423 37.0952 132.968 36.5305C131.513 35.9659 130.086 35.4714 128.754 34.7101C127.63 34.0938 126.649 33.2488 125.872 32.2296C125.6 31.8608 125.431 31.4265 125.382 30.9711C125.332 30.5157 125.405 30.0553 125.591 29.6367C125.46 29.628 125.331 29.6024 125.206 29.5609L125.2 40.4831Z" fill="#FB984C"/>
  <path d="M125.2 40.4831V41.0899V41.2444C130.155 42.4869 134.821 44.6812 138.938 47.7056C139.603 48.1944 140.255 48.6888 140.904 49.2113C140.921 47.1157 140.741 45.0116 140.061 43.0311C139.512 41.3292 138.48 39.8232 137.092 38.6964C135.87 37.7216 134.423 37.0952 132.968 36.5305C131.513 35.9659 130.086 35.4714 128.754 34.7101C127.63 34.0938 126.649 33.2488 125.872 32.2296C125.6 31.8608 125.431 31.4265 125.382 30.9711C125.332 30.5157 125.405 30.0553 125.591 29.6367C125.46 29.628 125.331 29.6024 125.206 29.5609L125.2 40.4831Z" fill="#3FBDF1"/>
  <path d="M56.7537 87.8184C58.614 89.1531 60.6835 90.168 62.8778 90.8215C63.8189 91.1024 61.594 92.153 62.5604 92.3412C58.737 83.318 61.4648 69.4461 73.5612 56.7878C75.6204 54.6303 80.3567 51.8969 82.6912 49.9979C86.4471 46.9443 90.557 46.5482 94.4899 44.7166C96.2476 43.905 98.0526 43.1996 99.8948 42.604C103.17 41.5158 106.55 40.7738 109.98 40.3904C110.758 40.2949 111.528 40.2274 112.306 40.1853C112.116 38.8478 112.154 37.4876 112.418 36.1625C113.135 32.5274 114.385 30.4401 116.66 27.5747C118.087 25.7712 120.312 21.4591 117.343 19.973C115.472 19.0403 115.301 17.1329 116.18 15.9699C116.924 14.9754 118.427 14.5231 120.287 15.6889C121.571 16.5092 123.096 16.5626 124.563 16.1609C125.706 15.4951 126.697 14.5976 127.473 13.5258C129.628 10.4357 129.703 5.75836 126.335 3.49132C124.495 2.25245 122.152 1.95187 119.953 2.19065C118.97 2.30442 118.002 2.52186 117.065 2.83958C117.061 2.83789 117.057 2.83705 117.052 2.83705C117.048 2.83705 117.043 2.83789 117.04 2.83958C113.062 4.98582 110.213 8.95524 108.845 13.4275C108.042 16.071 107.134 18.6892 106.072 21.254C105.201 23.3581 104.595 25.9173 102.651 27.3528C101.84 27.9548 100.919 28.3911 99.9398 28.6366C96.271 30.9627 91.1807 29.6198 87.1691 29.1254C83.9613 28.6869 80.6953 29.0173 77.6402 30.089C74.2186 31.8167 71.2774 34.5837 68.8895 38.1711C64.9566 44.1154 69.1199 52.6863 62.5266 57.3749C60.5405 58.7795 58.2398 59.6419 56.0654 60.746C52.9528 62.3304 50.447 64.5777 49.5228 68.0499C47.6771 75.0056 50.9442 83.6018 56.7537 87.8184Z" fill="#3FBDF1"/>
  <path d="M138.089 138.699L188.809 219.349L167.178 218.326L159.11 210.966H149.887C149.887 210.966 124.75 174.104 118.986 167.856C113.221 161.608 118.986 145.773 118.986 145.773L138.089 138.699Z" fill="white"/>
  <path d="M218 227.855H61.9731" stroke="black" stroke-width="1.5" stroke-miterlimit="10"/>
  <path d="M130.922 10.7054C131.323 11.5358 131.665 12.3926 131.947 13.2702C132.357 14.7001 131.914 15.5822 132.537 16.9419C132.751 17.411 133.06 18.206 133.38 19.0123C133.473 18.8241 133.56 18.6695 133.61 18.5488C136.057 13.1017 132.841 10.4751 131.293 9.57611C131.197 9.96125 131.073 10.3388 130.922 10.7054Z" fill="#FB984C"/>
  <path d="M130.922 10.7054C131.323 11.5358 131.665 12.3926 131.947 13.2702C132.357 14.7001 131.914 15.5822 132.537 16.9419C132.751 17.411 133.06 18.206 133.38 19.0123C133.473 18.8241 133.56 18.6695 133.61 18.5488C136.057 13.1017 132.841 10.4751 131.293 9.57611C131.197 9.96125 131.073 10.3388 130.922 10.7054Z" fill="#3FBDF1"/>
  <path d="M107.922 156.548C105.307 165.742 101.087 175.066 97.5899 180.96C95.0613 185.212 91.0174 188.351 86.2704 189.745C81.5237 191.14 76.4247 190.687 71.9979 188.477L33.61 169.428V160.806L17.5693 141.561L6.81012 154.739C6.51127 155.109 6.13332 155.407 5.70408 155.611C5.2748 155.816 4.80515 155.922 4.32958 155.921C3.77153 155.918 3.22393 155.77 2.74088 155.49C2.25784 155.211 1.85607 154.81 1.57523 154.328C1.29439 153.846 1.14421 153.298 1.13952 152.74C1.13483 152.182 1.27576 151.632 1.54846 151.146L14.7995 127.888C15.2161 127.152 15.9077 126.611 16.7224 126.385C17.5373 126.158 18.4087 126.265 19.1453 126.68L26.2526 130.666L66.9863 153.48C67.6639 153.859 68.4215 154.072 69.1974 154.101C69.973 154.13 70.7447 153.974 71.4487 153.647C72.1524 153.319 72.7685 152.829 73.2458 152.217C73.7233 151.605 74.0487 150.888 74.1947 150.126L79.021 124.843" stroke="black" stroke-width="1.5" stroke-miterlimit="10"/>
  <path d="M90.1248 142L100.561 150.489C111.545 159.155 121.104 169.487 128.892 181.11L149.742 211.048H183.396" stroke="black" stroke-width="1.5" stroke-miterlimit="10"/>
  <path d="M159.56 211.053L166.462 217.854L175.418 226.664C176.193 227.429 177.237 227.858 178.325 227.858H200.735C201.656 227.864 202.543 227.514 203.213 226.882C203.883 226.249 204.283 225.383 204.331 224.463C204.378 223.544 204.069 222.641 203.468 221.943C202.866 221.245 202.019 220.806 201.103 220.717L188.669 219.43L128.647 123.987C125.557 119.06 122.804 110.95 125.2 105.637C134.327 85.4306 133.538 65.856 133.538 65.856" stroke="black" stroke-width="1.5" stroke-miterlimit="10"/>
  <path d="M125.2 27.8416V40.3988V41.0056V41.1601C126.489 43.0423 127.141 45.7111 125.908 47.7112C124.259 50.3884 120.615 49.9446 118.303 48.4472C117.624 48.0065 116.975 47.5202 116.362 46.9921C114.307 45.2063 112.978 42.7299 112.626 40.0308C112.436 38.6942 112.473 37.3351 112.735 36.0108C113.457 32.3785 114.702 30.2913 116.985 27.4203C118.413 25.6195 120.637 21.3046 117.663 19.8185C114.182 18.0824 116.592 13.0005 120.607 15.5401C123.719 17.5065 128.191 15.0541 130.04 12.4106C132.195 9.32047 132.273 4.64312 128.902 2.37608C127.062 1.13722 124.719 0.836631 122.522 1.07541C115.822 1.81143 111.058 7.04781 109.151 13.273C108.347 15.9165 107.44 18.5347 106.381 21.0995C105.507 23.2064 104.9 25.7628 102.959 27.1983C99.2649 29.9626 93.9106 28.5158 89.7277 28.0046C81.0191 26.9343 73.996 30.7913 69.1979 38.011C65.265 43.9553 69.4283 52.5262 62.8322 57.2148C60.8489 58.6194 58.5481 59.4818 56.371 60.5859C53.2556 62.1675 50.7526 64.4176 49.8255 67.8898C47.9799 74.8679 51.247 83.4669 57.0536 87.6836C59.714 89.6163 62.8266 90.7737 66.06 91.403" stroke="black" stroke-width="1.5" stroke-miterlimit="10"/>
  <path d="M142.39 50.8267C142.407 50.6666 142.416 50.512 142.421 50.3604C142.567 47.6045 142.55 44.7419 141.651 42.1041C141.101 40.4036 140.07 38.899 138.682 37.7723C137.454 36.7975 136.011 36.1654 134.561 35.6035C133.111 35.0417 131.676 34.5473 130.347 33.7832C129.221 33.171 128.24 32.3255 127.468 31.3026C127.195 30.9357 127.024 30.5031 126.972 30.0489C126.92 29.5943 126.989 29.1345 127.173 28.7153" stroke="black" stroke-width="1.5" stroke-miterlimit="10"/>
  <path d="M33.4817 160.889V134.864" stroke="black" stroke-width="1.5" stroke-miterlimit="10"/>
  <path d="M122.501 25.0324C123.509 26.4735 124.878 28.0298 126.602 28.5945C128.836 29.3193 130.339 27.4258 131.139 25.5802C131.62 24.4818 131.948 23.3131 132.336 22.1782C132.462 21.8046 132.538 21.6164 132.968 21.5939C133.398 21.5714 133.845 21.6613 134.283 21.6613C134.316 21.663 134.349 21.6552 134.378 21.6386C134.407 21.622 134.431 21.5973 134.446 21.5678C134.461 21.5383 134.468 21.5049 134.465 21.4717C134.462 21.4386 134.449 21.4068 134.429 21.3804C133.839 20.4843 132.96 18.0346 132.513 17.0542C131.895 15.6946 132.342 14.8068 131.926 13.3854C131.642 12.5083 131.301 11.6507 130.906 10.8177" stroke="black" stroke-width="1.5" stroke-miterlimit="10"/>
  <path d="M131.563 8.19397C131.563 8.19397 137.651 10.5256 134.507 17.543C134.313 17.97 133.836 18.855 133.611 19.2567" stroke="black" stroke-width="1.5" stroke-miterlimit="10"/>
  <path d="M131.225 25.3667C130.738 25.4327 130.244 25.3192 129.834 25.0473C129.425 24.7753 129.128 24.3635 129 23.889" stroke="black" stroke-width="1.5" stroke-miterlimit="10"/>
  <path d="M132.256 15.9671C130.995 14.9417 129.613 16.248 128.77 17.2059" stroke="black" stroke-width="1.5" stroke-miterlimit="10"/>
  <path d="M125.2 41.1602C130.158 42.403 134.826 44.5975 138.946 47.6214C140.143 48.4866 141.297 49.408 142.418 50.366C146.84 54.1191 150.731 58.4621 154.512 62.8529" stroke="black" stroke-width="1.5" stroke-miterlimit="10"/>
  <path d="M160.183 104.275C160.16 104.261 160.14 104.244 160.121 104.224C155.16 99.2632 150.163 94.3386 145.188 89.3944C141.019 85.2536 135.597 81.0145 133.052 75.5815" stroke="black" stroke-width="1.5" stroke-miterlimit="10"/>
  <path d="M102.012 139.994C102.417 139.865 102.802 139.736 103.167 139.601C103.173 139.603 103.18 139.603 103.186 139.601" stroke="black" stroke-width="1.5" stroke-miterlimit="10"/>
  <path d="M64.2489 81.6578L93.8721 73.0335L148.273 57.1923C150.886 56.4398 153.691 56.7527 156.075 58.0624C158.458 59.372 160.226 61.5719 160.993 64.1817L172.676 104.317C173.429 106.93 173.118 109.735 171.81 112.119C170.502 114.503 168.304 116.273 165.695 117.043L107.719 133.92L102.185 135.527L96.5661 137.171L91.0319 138.786L86.5372 140.087L70.5808 144.733C67.9671 145.487 65.1613 145.175 62.7774 143.865C60.3935 142.555 58.6257 140.354 57.8607 137.744L46.1772 97.6085C45.4235 94.9968 45.7344 92.1929 47.0421 89.8099C48.3498 87.4268 50.5475 85.6584 53.1553 84.8912L53.5738 84.7704L53.925 84.6665L61.375 82.495L64.2489 81.6578Z" fill="white"/>
  <path d="M68.7012 82.7056L96.1473 74.7162L146.556 60.0381C148.979 59.3363 151.582 59.6237 153.793 60.8376C156.005 62.0512 157.645 64.0923 158.355 66.5133L169.176 103.691C169.873 106.112 169.585 108.71 168.375 110.92C167.164 113.13 165.13 114.772 162.715 115.489L108.988 131.131L103.861 132.625L98.6447 134.145L93.5179 135.645L89.349 136.839L72.2886 141.896C69.8654 142.598 67.2624 142.311 65.0504 141.097C62.8387 139.884 61.1987 137.842 60.4899 135.421L49.6744 98.2238C48.9727 95.8025 49.2586 93.2017 50.4694 90.9906C51.6802 88.7795 53.7174 87.138 56.1356 86.4251L56.5233 86.3127L56.8491 86.22L66.0381 83.467L68.7012 82.7056Z" fill="#FB984C"/>
  <path d="M71.6737 84.026L97.1224 76.6181L145.722 62.3894C147.967 61.7433 150.377 62.0118 152.424 63.1366C154.472 64.2615 155.991 66.1512 156.65 68.3927L166.69 102.876C167.337 105.121 167.069 107.531 165.945 109.579C164.821 111.628 162.933 113.148 160.692 113.809L109.019 128.937L104.266 130.319L99.4316 131.724L94.6756 133.111L90.8242 134.235L73.4604 139.348C71.2136 140 68.8002 139.734 66.7492 138.609C64.6984 137.483 63.1778 135.59 62.5213 133.345L52.4783 98.8643C51.8308 96.62 52.0985 94.2105 53.2222 92.1629C54.3462 90.1152 56.2351 88.5957 58.476 87.9364L60.3807 87.3942L60.6841 87.3043L69.2044 84.7536L71.6737 84.026Z" fill="#FB984C"/>
  <g filter="url(#filter0_d)">
    <path d="M96.5135 106.288L99.9436 105.433L100.865 109.129L97.4348 109.984L98.9657 116.124L94.3606 117.272L92.8297 111.132L80.9095 114.104L80.0775 111.332L87.3294 89.7171L92.0861 88.5312L96.5135 106.288ZM84.688 109.237L91.9083 107.437L89.0355 95.9143L88.8456 96.6057L84.688 109.237ZM121.748 98.1045C122.737 102.072 122.738 105.252 121.751 107.645C120.774 110.022 118.769 111.589 115.737 112.345C112.756 113.088 110.263 112.67 108.258 111.09C106.263 109.494 104.767 106.774 103.768 102.93L102.577 98.154C101.588 94.1869 101.585 91.0273 102.569 88.6752C103.565 86.3199 105.586 84.7627 108.631 84.0036C111.65 83.2507 114.14 83.6565 116.1 85.221C118.073 86.7823 119.559 89.4849 120.557 93.3288L121.748 98.1045ZM115.858 94.098C115.212 91.508 114.386 89.7011 113.379 88.6773C112.369 87.6408 111.093 87.3147 109.552 87.699C108.049 88.0739 107.086 88.9244 106.666 90.2505C106.242 91.5639 106.313 93.4382 106.88 95.8734L108.439 102.127C109.082 104.705 109.921 106.535 110.956 107.619C111.991 108.703 113.279 109.053 114.821 108.668C116.299 108.3 117.247 107.446 117.664 106.107C118.079 104.756 117.995 102.831 117.412 100.333L115.858 94.098ZM143.057 94.6836L146.487 93.8284L147.409 97.5239L143.979 98.3791L145.51 104.519L140.905 105.667L139.374 99.5273L127.453 102.499L126.621 99.7277L133.873 78.1125L138.63 76.9265L143.057 94.6836ZM131.232 97.6321L138.452 95.8318L135.579 84.3096L135.389 85.0011L131.232 97.6321Z" fill="white"/>
  </g>
  <path d="M69.9368 123.636L65.8409 124.791C65.5912 124.889 65.3238 124.934 65.0555 124.923C64.7875 124.912 64.5245 124.845 64.2838 124.726C64.043 124.607 63.8298 124.439 63.6579 124.233C63.486 124.027 63.359 123.787 63.2851 123.529C63.2112 123.271 63.1924 123.001 63.2292 122.735C63.2663 122.469 63.3584 122.214 63.5 121.986C63.6416 121.758 63.8293 121.562 64.0509 121.41C64.2726 121.259 64.5234 121.156 64.7875 121.108L68.4395 120.079C68.3608 120.584 68.3847 121.099 68.5097 121.594C68.7285 122.422 69.2342 123.145 69.9368 123.636Z" fill="#FB984C"/>
  <path d="M110.654 120.2L68.218 132.176C67.7262 132.31 67.2014 132.245 66.7567 131.995C66.3123 131.746 65.9836 131.331 65.8415 130.842C65.792 130.675 65.7684 130.502 65.7712 130.328C65.7723 129.907 65.9097 129.497 66.1628 129.161C66.4162 128.825 66.7716 128.58 67.1758 128.462L109.55 116.515C109.373 117.171 109.382 117.864 109.577 118.515C109.773 119.166 110.145 119.75 110.654 120.2Z" fill="#FB984C"/>
  <path d="M109.045 128.353C106.609 128.487 103.988 124.982 103.187 124.108C103.099 124.015 102.997 123.935 102.887 123.869L100.71 122.108L101.075 124.878C101.656 126.212 104.727 129.122 106.915 132.463C109.104 135.803 107.019 136.533 105.848 136.957C104.676 137.381 103.451 135.168 103.929 137.572C104.407 139.977 101.569 140.011 99.7994 139.71C98.0296 139.41 97.3948 137.463 97.7965 138.991C98.1982 140.519 96.8722 141.635 95.6755 141.685C94.7681 141.73 93.0236 140.505 92.237 139.915C92.0572 140.882 91.4083 142.696 89.1469 141.73C86.1438 140.446 83.2279 132.774 81.0002 124.923C78.7725 117.071 64.3443 102.749 62.2402 87.5853C62.2402 87.56 62.2402 87.5235 62.2402 87.4982C62.1278 86.352 62.0705 85.1974 62.0688 84.0344C62.0694 81.8238 62.2838 79.6186 62.7093 77.4496C63.0133 75.8714 63.4198 74.3145 63.9257 72.7891L87.7479 77.5198C87.585 77.6996 87.422 77.8794 87.2591 78.0676C81.6828 84.5429 84.9415 92.7542 89.1834 98.7828C93.4871 104.918 98.4398 110.98 104.1 115.919C105.762 117.366 107.315 118.933 108.747 120.608L108.438 120.779C108.774 121.434 109.149 122.068 109.561 122.678C111.244 124.998 111.491 128.215 109.045 128.353Z" fill="white"/>
  <path d="M93.8723 73.0335L148.273 57.1923C150.886 56.4398 153.691 56.7527 156.075 58.0624C158.458 59.372 160.227 61.5719 160.993 64.1817L172.676 104.317C173.429 106.93 173.118 109.735 171.81 112.119C170.502 114.503 168.304 116.273 165.696 117.043L107.719 133.92" stroke="black" stroke-width="1.5" stroke-miterlimit="10"/>
  <path d="M86.5231 140.087L70.5808 144.733C67.9671 145.487 65.1613 145.175 62.7774 143.865C60.3935 142.555 58.6257 140.354 57.8607 137.744L46.1772 97.6085C45.4235 94.9968 45.7344 92.1929 47.0421 89.8101C48.3498 87.4271 50.5475 85.6584 53.1553 84.8912L53.5738 84.7704L53.925 84.6665L61.375 82.4949" stroke="black" stroke-width="1.5" stroke-miterlimit="10"/>
  <path d="M102.184 135.527H102.176" stroke="black" stroke-width="1.5" stroke-miterlimit="10"/>
  <path d="M91.014 138.786H91.0056" stroke="black" stroke-width="1.5" stroke-miterlimit="10"/>
  <path d="M94.0456 123.4C94.8294 127.676 98.3915 132.308 102.17 135.516C103.268 136.449 105.695 137.584 107.013 136.519C109.856 134.227 104.996 130.451 103.656 128.934C102.029 127.091 100.715 124.931 100.226 122.495C100.183 122.345 100.192 122.185 100.251 122.04C100.308 121.962 100.389 121.904 100.482 121.875C100.574 121.846 100.674 121.848 100.765 121.88C100.947 121.947 101.11 122.055 101.243 122.195C102.782 123.599 104.156 125.153 105.549 126.69C106.535 127.788 109.1 129.15 110.359 127.751C113.089 124.715 105.361 117.638 103.383 115.902C97.7285 110.958 92.7674 104.896 88.4637 98.7659C84.2218 92.7374 80.9631 84.526 86.5394 78.0508C89.4497 74.6797 93.759 73.2077 97.6077 71.216C103.816 68.0134 105.094 62.6759 105.094 62.6759" stroke="black" stroke-width="1.5" stroke-miterlimit="10"/>
  <path d="M90.4385 127.746C90.4385 127.746 93.6522 136.907 100.479 139.758C100.884 139.938 101.325 140.025 101.768 140.012C102.212 139.999 102.646 139.886 103.041 139.682C103.883 139.21 104.572 138.278 103.389 136.407" stroke="black" stroke-width="1.5" stroke-miterlimit="10"/>
  <path d="M85.9888 129.886C87.2417 133.286 88.9047 136.839 91.5791 139.368C92.7983 140.517 94.3434 141.654 96.0739 141.727C98.1583 141.814 98.3212 139.713 97.4785 138.283C97.2964 137.977 97.0773 137.694 96.8267 137.44" stroke="black" stroke-width="1.5" stroke-miterlimit="10"/>
  <path d="M91.5788 139.368C91.5788 139.368 91.4271 143.02 88.424 141.73C85.421 140.441 82.4966 132.771 80.2773 124.917C78.058 117.062 63.5484 102.699 61.4892 87.4981L61.5117 87.6835C61.5117 87.6498 61.5117 87.6246 61.5117 87.5908C61.1608 84.2055 61.3162 80.7864 61.9724 77.4468C68.4758 44.534 112.322 40.1797 112.322 40.1797" stroke="black" stroke-width="1.5" stroke-miterlimit="10"/>
  <path d="M177.286 109.688C176.072 113.27 173.072 115.554 169.375 116.11C167.79 116.343 166.082 116.557 164.599 115.829C163.512 115.298 162.442 114.059 162.768 112.759C162.284 112.765 161.802 112.71 161.332 112.596C160.689 112.441 160.023 112.135 159.739 111.542C159.455 110.95 159.655 110.124 160.116 109.593C160.618 109.098 161.236 108.736 161.914 108.542C162.078 108.481 162.246 108.43 162.416 108.388C161.868 108.392 161.32 108.357 160.776 108.284C159.731 108.149 158.559 107.702 158.248 106.702C158.161 106.362 158.162 106.006 158.25 105.667C158.339 105.327 158.512 105.015 158.753 104.761C159.245 104.256 159.861 103.889 160.54 103.699C160.61 103.682 160.669 103.657 160.736 103.64C159.498 103.623 158.231 103.376 157.683 102.202C157.507 101.784 157.457 101.325 157.539 100.879C157.622 100.434 157.833 100.023 158.146 99.6958C159.242 98.4654 160.883 98.2912 162.43 98.1732C163.978 98.0552 165.861 98.0019 167.684 97.9681C168.08 97.9577 168.468 97.8566 168.819 97.6732C169.17 97.4894 169.475 97.2279 169.709 96.9085C169.943 96.5894 170.102 96.2205 170.172 95.8306C170.242 95.4407 170.222 95.0401 170.114 94.6589C169.403 92.1306 169.102 89.3719 170.6 88.6977C172.833 87.6864 174.372 90.4422 175.013 92.1362C176.971 97.3276 179.151 104.205 177.286 109.688Z" fill="white"/>
  <path d="M167.866 107.601C166.06 107.986 164.231 108.379 162.4 108.396C162.229 108.438 162.062 108.49 161.897 108.55C161.219 108.745 160.601 109.106 160.099 109.601C159.638 110.132 159.416 110.919 159.723 111.551C160.029 112.183 160.672 112.45 161.315 112.604C161.785 112.718 162.268 112.773 162.751 112.767C163.74 112.747 164.723 112.624 165.686 112.399C165.849 112.365 167.844 112.135 167.998 112.098" stroke="black" stroke-width="1.5" stroke-miterlimit="10"/>
  <path d="M160.717 103.648C160.649 103.665 160.59 103.691 160.52 103.707C159.842 103.898 159.225 104.264 158.734 104.769C158.492 105.024 158.319 105.335 158.231 105.675C158.142 106.014 158.141 106.371 158.228 106.71C158.554 107.711 159.725 108.157 160.756 108.292C161.3 108.366 161.848 108.4 162.397 108.396" stroke="black" stroke-width="1.5" stroke-miterlimit="10"/>
  <path d="M169.383 103.46C169.246 103.46 169.116 103.46 168.981 103.46L162.453 103.606C161.942 103.606 161.329 103.657 160.717 103.64C159.478 103.623 158.211 103.376 157.663 102.202C157.487 101.784 157.437 101.325 157.52 100.879C157.602 100.434 157.813 100.023 158.127 99.6958C159.222 98.4654 160.863 98.2912 162.411 98.1732C163.959 98.0552 165.844 98.0075 167.667 97.9681C168.064 97.9592 168.454 97.8589 168.807 97.6757C169.159 97.4923 169.465 97.2302 169.701 96.9102C169.936 96.5899 170.095 96.22 170.165 95.8286C170.236 95.4373 170.215 95.0353 170.105 94.6533C169.394 92.125 169.088 89.3635 170.588 88.6893C172.822 87.678 174.361 90.4338 175.002 92.1278C176.968 97.3192 179.151 104.207 177.286 109.68C176.069 113.262 173.072 115.551 169.378 116.102C167.796 116.338 166.082 116.551 164.602 115.821C163.52 115.293 162.447 114.057 162.77 112.756" stroke="black" stroke-width="1.5" stroke-miterlimit="10"/>
  <defs>
    <filter id="filter0_d" x="73.0776" y="73.9265" width="81.3313" height="54.3457" filterUnits="userSpaceOnUse" color-interpolation-filters="sRGB">
      <feFlood flood-opacity="0" result="BackgroundImageFix"/>
      <feColorMatrix in="SourceAlpha" type="matrix" values="0 0 0 0 0 0 0 0 0 0 0 0 0 0 0 0 0 0 127 0" result="hardAlpha"/>
      <feOffset dy="4"/>
      <feGaussianBlur stdDeviation="3.5"/>
      <feComposite in2="hardAlpha" operator="out"/>
      <feColorMatrix type="matrix" values="0 0 0 0 0.579167 0 0 0 0 0.348272 0 0 0 0 0.135139 0 0 0 0.6 0"/>
      <feBlend mode="normal" in2="BackgroundImageFix" result="effect1_dropShadow"/>
      <feBlend mode="normal" in="SourceGraphic" in2="effect1_dropShadow" result="shape"/>
    </filter>
  </defs>
</svg>
