<svg width="15" height="11" viewBox="0 0 15 11" fill="none" xmlns="http://www.w3.org/2000/svg">
<path d="M14.6789 10.3094C14.5502 10.3094 14.4321 10.2357 14.3815 10.1149C14.3444 10.0271 13.4166 7.94605 9.94771 7.53388C9.22515 7.44616 8.35976 7.40118 7.30882 7.3933V9.98721C7.30882 10.107 7.24415 10.2155 7.13788 10.2729C7.03216 10.328 6.90565 10.3201 6.80724 10.2543L0.142825 5.76825C0.0528565 5.70808 0 5.60687 0 5.50059C0 5.39319 0.0528565 5.29535 0.142825 5.23237L6.81005 0.745755C6.90846 0.677716 7.03385 0.673218 7.14069 0.729448C7.24753 0.786803 7.31107 0.895328 7.31107 1.01172V3.42569C8.76068 3.61463 15 4.73586 15 9.99002C15 10.1424 14.8926 10.2757 14.7419 10.306C14.7211 10.3094 14.6992 10.3094 14.6789 10.3094Z" fill="#848484"/>
</svg>
