<svg width="20" height="20" viewBox="0 0 18 20" fill="none" xmlns="http://www.w3.org/2000/svg">
<path d="M13.25 0.875H2.625C1.96219 0.875758 1.32675 1.13939 0.85807 1.60807C0.389394 2.07675 0.125758 2.71219 0.125 3.375V17.125C0.125008 17.2908 0.190859 17.4497 0.308067 17.5669C0.425276 17.6841 0.584242 17.75 0.75 17.75H12C12.1658 17.75 12.3247 17.6842 12.4419 17.5669C12.5592 17.4497 12.625 17.2908 12.625 17.125C12.625 16.9592 12.5592 16.8003 12.4419 16.6831C12.3247 16.5658 12.1658 16.5 12 16.5H1.375C1.37538 16.1686 1.5072 15.8509 1.74153 15.6165C1.97587 15.3822 2.2936 15.2504 2.625 15.25H13.25C13.4158 15.25 13.5747 15.1841 13.6919 15.0669C13.8091 14.9497 13.875 14.7908 13.875 14.625V1.5C13.875 1.33424 13.8091 1.17528 13.6919 1.05807C13.5747 0.940859 13.4158 0.875008 13.25 0.875ZM7.00023 2.125H11.3752V8.37508L9.37457 6.87498C9.32048 6.83442 9.25469 6.8125 9.18708 6.8125C9.11947 6.8125 9.05368 6.83442 8.99958 6.87498L7.00023 8.37492V2.125Z" fill="#464646"/>
</svg>
