<svg width="132" height="117" viewBox="0 0 132 117" fill="none" xmlns="http://www.w3.org/2000/svg">
  <path d="M10.9766 116.004H123.954" stroke="black" stroke-width="0.5" stroke-miterlimit="10"/>
  <path d="M90.2054 16.311C91.056 16.311 91.7455 15.6195 91.7455 14.7664C91.7455 13.9132 91.056 13.2217 90.2054 13.2217C89.3548 13.2217 88.6653 13.9132 88.6653 14.7664C88.6653 15.6195 89.3548 16.311 90.2054 16.311Z" fill="#CCDDE2"/>
  <path d="M95.0347 13.6347C96.0886 13.6347 96.9429 12.7778 96.9429 11.7208C96.9429 10.6638 96.0886 9.80688 95.0347 9.80688C93.9808 9.80688 93.1265 10.6638 93.1265 11.7208C93.1265 12.7778 93.9808 13.6347 95.0347 13.6347Z" fill="#CCDDE2"/>
  <path d="M118.421 111.837L103.962 111.773L101.166 116.004H122.341L122.979 113.894C122.979 111.517 120.78 111.85 118.421 111.837ZM81.1702 112.1L67.3605 112.06L65.1743 116.004H88.163L88.6242 113.482C88.6242 111.472 83.1701 112.115 81.1702 112.1ZM116.953 30.6065C116.401 26.6537 115.704 26.512 113.647 22.6541C112.303 20.1585 109.2 18.9529 106.408 18.4827C106.108 18.433 105.821 18.3998 105.528 18.3697C104.877 18.3177 104.224 18.3243 103.574 18.3893C101.973 18.5578 100.406 18.9672 98.9255 19.6039C99.1344 22.2879 98.8474 25.0638 97.1601 26.9882C94.7681 29.734 89.2718 30.3609 87.4643 26.6341C86.9965 26.9897 86.5247 27.3654 86.0489 27.7613C85.9467 27.8442 85.8491 27.9225 85.7484 28.01C80.18 32.6545 76.8264 39.0276 72.3158 46.9981C68.3522 53.3019 68.2305 56.2722 66.3177 63.453C69.6398 61.7697 73.2294 61.833 76.5124 63.1411C81.1702 53.4963 85.0437 49.1486 87.7723 45.4866C88.483 46.4872 89.2267 47.8722 90.7052 51.0715L83.3669 57.4311C85.2435 59.1099 87.7828 61.6145 89.3635 65.3111L97.1015 60.6395L97.0864 60.6651L96.8971 61.0057L103.175 57.0272L106.653 54.3221C107.891 53.3607 109.624 52.0134 110.618 50.8003L114.525 45.5378C114.525 45.5378 116.376 41.3665 116.38 41.3665C117.398 38.678 117.091 39.5144 117.398 37.5191C117.856 34.588 117.408 33.8616 116.953 30.6065Z" fill="#FB984C"/>
  <path d="M69.0738 81.4932L52.5986 100.814C46.2219 110.61 37.4231 115.734 26.5298 115.734L17.2427 115.815C15.2439 115.815 13.2648 115.42 11.4182 114.652C9.57158 113.885 7.89386 112.76 6.48063 111.343C5.0674 109.925 3.94642 108.242 3.1817 106.39C2.41699 104.537 2.02349 102.552 2.02369 100.548C2.02164 98.1775 2.48605 95.83 3.39028 93.6402C4.2945 91.4504 5.62076 89.4612 7.29304 87.7864C10.5986 84.4605 15.6636 81.983 20.4431 82.5421C24.7193 83.0424 29.7452 86.1694 32.9141 89.0056C36.9408 92.6088 52.4544 83.4779 58.2737 80.5996C60.5846 79.4573 62.631 78.758 64.3995 76.8758C64.9599 76.273 64.3995 77.3279 64.9554 76.7251C64.8051 77.1938 64.8142 77.2962 64.9043 77.5675C65.5249 79.3714 67.2813 80.913 69.0738 81.4932Z" fill="#3FBDF1"/>
  <path d="M73.1604 76.3981C73.1604 76.3981 69.353 76.2474 70.3056 73.1837C70.3056 73.1837 71.7765 71.5727 72.3836 71.8816C72.9906 72.1906 73.4458 73.5318 73.2039 74.8429C72.962 76.154 73.1604 76.3981 73.1604 76.3981Z" fill="#3FBDF1"/>
  <path d="M75.5794 77.777C74.8747 77.9428 74.1355 77.9819 73.6051 77.5328C72.4031 76.5186 73.6486 74.4797 73.1288 72.9862C72.678 71.7083 71.8111 71.6164 70.9005 70.7574C69.8352 69.7522 70.6391 68.5918 71.4805 67.7569C72.728 66.5269 74.045 65.3697 75.4246 64.2908L90.7504 51.0654" stroke="black" stroke-width="0.5" stroke-miterlimit="10"/>
  <path d="M76.3306 63.5675C82.3166 48.9662 92.1071 41.3665 92.1071 41.3665" stroke="black" stroke-width="0.5" stroke-miterlimit="10"/>
  <path d="M82.7914 82.1895L65.2029 116.004H86.7641C87.281 116.002 87.7758 115.794 88.1406 115.427C88.5052 115.06 88.7099 114.563 88.7099 114.044C88.7079 113.527 88.5024 113.032 88.1379 112.667C87.7734 112.301 87.2796 112.095 86.7641 112.093H79.9547L108.519 66.6689" stroke="black" stroke-width="0.5" stroke-miterlimit="10"/>
  <path d="M81.5063 71.3678C81.5349 71.1282 82.809 71.5938 82.8887 71.6405C84.1658 72.394 84.5249 74.1452 84.6692 75.4984C84.7853 76.5075 84.8009 77.5258 84.7158 78.5381C84.6602 79.1499 84.4768 79.7436 84.4378 80.3464C84.3581 81.5822 85.0523 82.0298 86.1852 81.4918C88.8312 80.2364 90.3803 78.2246 92.5694 82.8586C92.5694 82.8586 94.7196 84.5073 94.6474 80.5725C94.5753 76.6377 93.0563 68.5828 83.0555 69.3333C83.0555 69.3363 81.6581 70.1019 81.5063 71.3678Z" fill="#3FBDF1"/>
  <path d="M90.8097 64.5425L84.7395 75.4938" stroke="black" stroke-width="0.5" stroke-miterlimit="10"/>
  <path d="M93.1787 6.13134C93.0666 6.48518 92.8477 6.79532 92.5521 7.01896C91.4132 7.84781 90.9519 5.14576 90.8498 6.63317C90.7476 8.12058 89.2646 8.24264 85.9561 9.76923C85.1011 10.1656 84.7991 10.8724 84.8277 11.7118C84.3423 12.6973 85.2048 14.0868 85.8524 15.3903C85.4527 15.2924 84.7074 15.5697 84.4776 16.2584C84.2928 16.394 84.4926 16.2584 84.3709 16.6788C83.5881 19.3372 88.297 20.1329 88.297 20.1329L88.898 22.3361L88.0761 22.5456L88.5419 22.5787C88.3916 23.3443 85.1492 21.4605 84.8532 21.2842C82.0765 19.6265 79.3645 17.0043 79.2383 13.8095C79.2314 13.4382 79.261 13.0671 79.3269 12.7018C79.3259 12.6994 79.3254 12.6969 79.3254 12.6943C79.3254 12.6918 79.3259 12.6892 79.3269 12.6868C79.4291 12.0629 79.5703 11.4435 79.5072 10.8C79.5072 10.7849 79.5072 10.7548 79.4967 10.7156V10.6975C79.4381 10.2183 79.1962 8.43705 78.9858 8.37978C79.0524 8.39997 79.1209 8.41309 79.1902 8.41896C79.8708 8.51089 80.6251 8.08139 81.0683 7.76945C81.3033 7.60036 81.4991 7.38245 81.6423 7.13048C84.419 2.35028 86.3212 4.69216 87.9259 4.32596C89.5696 3.95524 91.6957 2.95459 91.6957 2.95459C92.4785 3.53629 93.0675 4.87149 93.1787 6.13134Z" fill="#3FBDF1"/>
  <path d="M69.0735 81.4932L53.3556 99.6902C46.5687 110.117 36.2523 116.003 24.6618 116.003H17.1988C12.9026 116.003 8.78239 114.292 5.7445 111.245C2.70664 108.198 1 104.065 1 99.7565C1 97.2349 1.4952 94.7379 2.45734 92.4083C3.41949 90.0785 4.8297 87.9617 6.6075 86.1786C8.38527 84.3956 10.4959 82.9811 12.8186 82.016C15.1414 81.0511 17.6311 80.5544 20.1452 80.5544C23.5002 80.5536 26.7968 81.4372 29.7043 83.1163C31.2041 83.9953 32.8692 84.5538 34.5947 84.7563C36.3202 84.9589 38.0689 84.8013 39.7307 84.2932L64.611 76.5503" stroke="black" stroke-width="0.5" stroke-miterlimit="10"/>
  <path d="M98.9624 19.6039C100.434 18.9717 101.991 18.5624 103.583 18.3893C104.232 18.3243 104.885 18.3177 105.536 18.3697C105.836 18.3953 106.137 18.433 106.446 18.4827C107.634 18.6916 108.78 19.0943 109.838 19.6748C112.36 21.031 114.285 23.272 115.442 25.8971C118.315 32.4224 121.49 47.5979 97.6942 60.2989L97.0932 60.6651C92.5996 63.3777 88.1041 66.0903 83.6066 68.8028C82.8418 69.267 82.0304 69.7734 81.6698 70.5932C81.2867 71.4672 81.5 72.4814 81.3257 73.4173C80.8915 75.726 78.3673 76.906 76.136 77.6128C75.9557 77.6715 75.7664 77.7258 75.5756 77.774C75.6529 78.3795 75.5372 78.9941 75.245 79.5297C74.6861 80.5303 73.6208 81.1647 72.5119 81.4526C69.4137 82.2618 65.8527 80.3449 64.813 77.3053C64.212 75.5602 64.3847 73.6524 64.6372 71.8229C66.32 59.5846 70.7044 47.952 77.6505 37.7376C80.0366 34.2293 82.4241 30.7045 85.7552 28.0115C85.8573 27.924 85.955 27.8457 86.0557 27.7628C86.5275 27.3871 87.0027 27.0164 87.4816 26.6506L87.5011 26.6356C87.9969 26.2558 89.208 25.2356 89.7128 24.8694C89.7662 24.8296 89.8165 24.7859 89.8631 24.7383C90.5678 24.0752 90.2868 22.8801 89.4018 22.4778L88.7302 22.1764" stroke="black" stroke-width="0.5" stroke-miterlimit="10"/>
  <path d="M73.2059 76.5504C68.8997 75.8451 70.3992 72.9652 70.3992 72.9652L72.4141 71.6089" stroke="black" stroke-width="0.5" stroke-miterlimit="10"/>
  <path d="M96.2733 20.0515L98.9613 19.5994C99.1701 22.2833 98.8831 25.0592 97.1958 26.9837C94.8038 29.7309 89.3076 30.3548 87.4985 26.628" stroke="black" stroke-width="0.5" stroke-miterlimit="10"/>
  <path d="M93.1785 6.13133C93.0664 6.48517 92.8475 6.79531 92.552 7.01895C91.4131 7.8478 90.9518 5.14575 90.8496 6.63316C90.7474 8.12056 89.2644 8.24263 85.9559 9.76922C85.1009 10.1656 84.7989 10.8723 84.8275 11.7117C84.8771 13.4583 86.3556 15.755 87.1429 16.8627C86.7102 16.3262 86.0536 15.6284 85.4706 15.4928C85.0709 15.3948 84.7073 15.5697 84.4774 16.2583C84.4489 16.3458 84.4248 16.4332 84.4008 16.5356C83.7246 19.4246 88.2623 20.0017 88.2623 20.0017L88.7927 21.9277L88.9038 22.3331C88.8648 22.5772 88.5387 22.6164 88.082 22.5425C86.9971 22.3768 85.1926 21.572 84.9687 21.45C83.2871 20.5159 81.8668 19.1726 80.8383 17.5438C80.3162 16.7272 79.9148 15.8388 79.6468 14.9066C79.3463 13.8185 79.3673 12.8269 79.4214 11.7057C79.462 10.8648 79.5206 10.0194 79.492 9.17697C79.4859 8.76963 79.3667 8.37193 79.1479 8.02864C80.1637 7.99247 80.8112 7.18472 81.3146 6.37094C84.0191 0.603659 86.1542 3.14596 87.8265 2.6577C89.4988 2.16943 91.6354 1 91.6354 1C92.8585 1.862 93.733 4.54597 93.1785 6.13133Z" stroke="black" stroke-width="0.5" stroke-miterlimit="10"/>
  <path d="M92.5579 6.99939C92.5579 6.99939 99.2937 13.3167 96.5891 19.3824C95.925 20.8713 94.6253 22.003 93.0011 22.0799H92.941" stroke="black" stroke-width="0.5" stroke-miterlimit="10"/>
  <path d="M92.6196 13.3182C92.6196 13.3182 94.1372 14.9518 94.2965 15.1131C94.8149 15.633 93.4851 16.1514 93.4851 16.1514" stroke="black" stroke-width="0.5" stroke-miterlimit="10"/>
  <path d="M94.8116 16.7435C94.7906 16.8113 94.5847 16.9153 94.5321 16.953C94.2923 17.1207 94.0413 17.2717 93.7809 17.4051C93.2583 17.6717 92.7024 17.8667 92.1281 17.9853C91.6578 18.0802 91.2386 18.3108 91.2882 18.8759L91.3543 19.6023C91.3543 19.6023 94.1084 19.0733 94.8116 16.7435Z" stroke="black" stroke-width="0.5" stroke-miterlimit="10"/>
  <path d="M90.5156 11.3516C90.5156 11.3516 88.0499 11.2672 87.3933 13.3182" stroke="black" stroke-width="0.5" stroke-miterlimit="10"/>
  <path d="M90.2047 17.0268C91.4494 17.0268 92.4585 16.0147 92.4585 14.7664C92.4585 13.5178 91.4494 12.5059 90.2047 12.5059C88.96 12.5059 87.9509 13.5178 87.9509 14.7664C87.9509 16.0147 88.96 17.0268 90.2047 17.0268Z" stroke="black" stroke-width="0.5" stroke-miterlimit="10"/>
  <path d="M95.0336 13.9812C96.2784 13.9812 97.2874 12.9691 97.2874 11.7207C97.2874 10.4722 96.2784 9.46021 95.0336 9.46021C93.7889 9.46021 92.7798 10.4722 92.7798 11.7207C92.7798 12.9691 93.7889 13.9812 95.0336 13.9812Z" stroke="black" stroke-width="0.5" stroke-miterlimit="10"/>
  <path d="M95.0332 10.1852C95.4023 10.1843 95.7592 10.317 96.0384 10.5592C96.3175 10.8012 96.5001 11.1364 96.5525 11.5027C96.6048 11.8692 96.5235 12.2422 96.3234 12.5533C96.1234 12.8643 95.8181 13.0923 95.4636 13.1956C95.1092 13.2986 94.7295 13.27 94.3946 13.1146C94.0595 12.9594 93.7918 12.688 93.6405 12.3504C93.4892 12.0129 93.4645 11.6317 93.571 11.2773C93.6776 10.923 93.9082 10.6192 94.2203 10.4218C94.4635 10.2673 94.7454 10.1853 95.0332 10.1852ZM95.0332 9.81897C94.6128 9.81912 94.2044 9.95958 93.8722 10.218C93.5399 10.4766 93.3028 10.8385 93.198 11.2469C93.0932 11.6553 93.1268 12.087 93.2934 12.4742C93.4599 12.8613 93.75 13.182 94.1181 13.3859C94.4862 13.5896 94.9115 13.6648 95.3269 13.5999C95.7424 13.5348 96.1243 13.3331 96.4131 13.0265C96.7017 12.7199 96.8807 12.3259 96.9215 11.9062C96.9626 11.4865 96.8632 11.065 96.6394 10.7081C96.4688 10.4353 96.232 10.2106 95.9511 10.0551C95.6699 9.8996 95.3541 9.81837 95.0332 9.81897Z" fill="white"/>
  <path d="M92.113 13.5623L93.1257 12.9233" stroke="black" stroke-width="0.5" stroke-miterlimit="10"/>
  <path d="M86.2883 18.3365C86.529 18.3365 86.724 18.1409 86.724 17.8994C86.724 17.6582 86.529 17.4624 86.2883 17.4624C86.0476 17.4624 85.8525 17.6582 85.8525 17.8994C85.8525 18.1409 86.0476 18.3365 86.2883 18.3365Z" fill="black"/>
  <path d="M89.512 15.0392L90.9455 14.1184" stroke="black" stroke-width="0.5" stroke-miterlimit="10"/>
  <path d="M94.1702 12.1804L95.6052 11.2596" stroke="black" stroke-width="0.5" stroke-miterlimit="10"/>
  <path d="M96.2739 20.0514L97.5451 22.0813" stroke="black" stroke-width="0.5" stroke-miterlimit="10"/>
  <path d="M79.2911 73.5212C79.2911 73.5212 79.9402 75.9777 78.5203 76.6181" stroke="black" stroke-width="0.5" stroke-miterlimit="10"/>
  <path d="M76.5078 77.5027C76.5078 77.5027 78.1305 76.0198 77.4228 74.5385" stroke="black" stroke-width="0.5" stroke-miterlimit="10"/>
  <path d="M74.7263 77.9458C74.7263 77.9458 76.0336 76.6287 75.5152 75.8059" stroke="black" stroke-width="0.5" stroke-miterlimit="10"/>
  <path d="M75.2411 79.5342C75.2411 79.5342 73.9159 80.0677 71.0776 78.8892" stroke="black" stroke-width="0.5" stroke-miterlimit="10"/>
  <path d="M72.1532 81.4933C71.9473 81.4375 70.1263 81.4631 69.073 80.0405" stroke="black" stroke-width="0.5" stroke-miterlimit="10"/>
  <path d="M77.6015 77.3429C77.6015 77.3429 78.1004 79.9952 75.3943 79.8129" stroke="black" stroke-width="0.5" stroke-miterlimit="10"/>
  <path d="M81.418 71.9358C81.418 71.9358 85.3861 71.7731 83.3592 78.8876C81.3323 86.0021 85.0616 83.817 88.3852 81.4947C91.7088 79.1724 91.88 84.3761 93.8213 83.3182C95.7626 82.2603 95.154 67.6333 82.5689 69.5005" stroke="black" stroke-width="0.5" stroke-miterlimit="10"/>
  <path d="M116.899 111.823H111.67" stroke="black" stroke-width="0.5" stroke-miterlimit="10"/>
  <path d="M80.1324 112.06H74.9036" stroke="black" stroke-width="0.5" stroke-miterlimit="10"/>
  <path d="M64.8096 77.3083L47.7333 92.3436C43.4031 96.5436 38.3696 96.8963 34.9048 95.2702" stroke="black" stroke-width="0.5" stroke-miterlimit="10"/>
  <path d="M65.6388 78.8876L58.3921 87.9326" stroke="black" stroke-width="0.5" stroke-miterlimit="10"/>
  <path d="M67.1759 80.384L63.5803 86.3698" stroke="black" stroke-width="0.5" stroke-miterlimit="10"/>
  <path d="M89.1136 77.5027C85.0568 70.3867 81.5063 71.3677 81.5063 71.3677C81.5063 71.3677 85.8562 71.3527 86.1882 80.3841" stroke="black" stroke-width="0.5" stroke-linecap="square" stroke-linejoin="bevel"/>
  <path d="M81.6663 70.5962C81.6663 70.5962 84.1695 70.0702 85.7907 70.5962" stroke="black" stroke-width="0.5" stroke-miterlimit="10"/>
  <path d="M21.2852 64.5757C21.3042 64.5853 21.3238 64.5939 21.3438 64.6013L21.2852 64.5757Z" fill="#3FBDF1"/>
  <path d="M105.288 31.6659C105.288 31.6659 107.279 39.6982 90.7365 51.0685C89.252 47.8691 88.2077 46.0788 87.4985 45.0782" stroke="black" stroke-width="0.5" stroke-miterlimit="10"/>
  <path d="M115.597 43.4294C115.597 43.4294 116.269 47.0899 117.4 49.9879C118.016 51.5582 122.937 59.818 127.317 67.0592C131.659 74.2355 132.846 87.5468 127.099 96.2768L116.581 111.837H121.138C121.408 111.836 121.675 111.889 121.924 111.992C122.173 112.095 122.399 112.247 122.589 112.438C122.78 112.629 122.931 112.856 123.033 113.106C123.136 113.356 123.189 113.623 123.188 113.894C123.188 114.165 123.135 114.433 123.031 114.683C122.927 114.933 122.775 115.16 122.583 115.351C122.391 115.542 122.164 115.693 121.913 115.795C121.663 115.897 121.395 115.949 121.125 115.946L101.681 116.003L114.261 93.082C115.826 90.229 116.63 87.0187 116.595 83.7626C116.56 80.5063 115.687 77.3144 114.06 74.4962L106.017 60.5685" stroke="black" stroke-width="0.5" stroke-miterlimit="10"/>
</svg>
