<svg width="218" height="106" viewBox="0 0 218 106" fill="none" xmlns="http://www.w3.org/2000/svg">
<path d="M175.909 47.9616L175.478 52.0821C174.358 54.7658 173.238 57.4477 172.119 60.128C171.728 61.0691 171.335 62.0088 170.941 62.9465C170.762 63.3854 170.509 63.7896 170.192 64.1412C170.176 64.1649 170.156 64.1846 170.131 64.199C170.107 64.2134 170.079 64.2219 170.051 64.2241C169.956 64.2241 169.922 64.0973 169.915 64.0022C169.861 62.986 169.74 61.9744 169.552 60.974C168.504 56.144 162.908 54.3739 158.519 54.4837C156.764 54.5105 155.033 54.912 153.445 55.6613C151.153 56.7731 150.26 59.8647 150.138 59.9793L150.041 60.3767L148.47 66.9378C148.139 68.4007 147.886 69.1736 146.538 69.5637C146.494 69.5783 145.151 70.2951 145.107 70.2951C144.587 70.4414 146.012 70.1269 145.448 70.0318L143.66 69.7514L142.898 69.5759L131.788 66.9402C132.218 67.0134 132.659 67.0938 133.106 67.184L135.685 67.8009L135.004 64.524C133.231 54.3227 136.169 45.0675 141.176 40.0424C142.495 38.721 143.149 38.382 144.687 37.5019L145.55 39.5524C145.55 39.5524 154.386 42.1929 156.469 34.0909C157.31 34.164 158.928 34.1518 159.763 34.3347C164.112 35.2488 168.041 37.5723 170.941 40.947C171.197 41.2396 171.447 41.5419 171.695 41.8491L171.827 42.01C171.98 42.2026 172.143 42.4001 172.296 42.5976L172.406 42.7537C173.677 44.4172 174.847 46.1564 175.909 47.9616Z" fill="#3FBDF1"/>
<path d="M190.616 63.0132C190.322 66.4426 187.991 67.0008 187.991 67.0008C186.02 68.1634 182.993 66.9134 182.382 64.734C182.373 64.7107 182.368 64.6861 182.367 64.6611C181.881 62.7948 180.932 60.3968 179.657 57.7732C177.199 51.8415 174.004 45.8613 169.907 41.131C167.005 37.772 163.076 35.459 158.726 34.5489C158.711 34.5489 158.704 34.5343 158.689 34.5343C152.92 32.8014 150.112 29.2628 148.895 25.8698C148.895 25.8698 148.895 25.8698 148.895 25.8552C148.374 23.7122 147.844 21.6225 148.129 20.358C148.615 18.1421 148.859 15.7466 148.253 15.2612C147.491 14.6253 146.114 15.0962 142.61 15.8C139.576 16.4213 137.958 16.0694 137.593 14.22C137.535 13.9331 137.505 13.6412 137.505 13.3487C137.49 13.5332 136.775 12.8002 136.741 12.9749C136.512 13.9191 136.055 14.2977 135.057 14.7127C133.575 15.3267 132.969 17.698 132.75 19.278C132.522 20.9599 133.281 23.2801 133.882 24.8601C133.113 23.984 132.232 24.0859 130.855 24.6174C130.509 24.7485 129.638 24.7121 128.95 24.4718C129.047 24.3886 129.161 24.3279 129.285 24.2946C129.507 24.2218 127.901 23.4258 128.134 23.3748C130.473 22.8481 131.784 20.9041 131.507 19.193C130.818 14.885 131.736 9.81737 134.653 6.46077C137.87 2.76925 143.119 2.00231 147.562 3.69153C151.051 5.01427 154.351 7.72769 155.56 11.3464C155.56 11.361 155.56 11.3755 155.575 11.3901C155.728 11.8503 155.846 12.3218 155.927 12.8002C156.373 15.4918 155.421 18.2198 154.893 20.8798C154.703 21.8385 155.185 22.8845 155.287 23.6442C155.874 28.207 161.154 29.4958 165.332 31.4326C174.114 35.5124 181.285 42.4877 186.107 50.9702C189.309 56.5864 190.453 60.4163 190.616 63.0132Z" fill="#FB984C"/>
<path d="M144.394 36.7172C144.299 36.768 144.204 36.8188 144.116 36.8769C142.537 37.7764 141.086 38.8804 139.799 40.1599C134.788 45.1498 131.846 54.3402 133.622 64.4701L134.304 67.7071" stroke="black" stroke-miterlimit="10"/>
<path d="M188.515 105C188.516 97.3893 187.861 89.7931 186.557 82.296C185.685 77.2092 184.485 72.185 182.962 67.2551C182.048 64.2605 180.929 61.0296 179.6 57.7865C178.366 54.7515 176.939 51.7989 175.33 48.9467C173.77 46.1536 171.945 43.5187 169.88 41.079C166.987 37.7068 163.07 35.3845 158.733 34.471C157.901 34.2939 157.059 34.1669 156.212 34.0909" stroke="black" stroke-miterlimit="10"/>
<path d="M98.697 38.7023L98.572 38.6802C97.076 38.4294 95.5407 38.5584 94.1074 39.0552C92.674 39.5523 91.3882 40.4015 90.3679 41.5249L81.9898 50.662L81.0099 51.741C80.9489 51.8073 80.8915 51.8769 80.8384 51.9495" stroke="black" stroke-miterlimit="10"/>
<path d="M86.6162 54.3131L91.0737 49.3304L91.0808 49.3232" stroke="black" stroke-miterlimit="10"/>
<path d="M126.273 80.5239L147.841 88.1094C149.918 88.8399 152.129 89.1156 154.322 88.9174C156.515 88.7192 158.64 88.0521 160.552 86.9609C162.464 85.87 164.118 84.3807 165.402 82.5947C166.686 80.8086 167.569 78.7678 167.993 76.6104L173.096 50.6085C173.357 49.2733 173.345 47.8993 173.06 46.5688C172.775 45.2384 172.224 43.9793 171.439 42.867C171.22 42.5536 170.982 42.254 170.726 41.9697" stroke="black" stroke-miterlimit="10"/>
<path d="M112.164 79.451C109.436 81.2891 107.431 86.8711 106.366 90.5352C106.184 91.1496 105.806 91.6887 105.291 92.071C104.775 92.4534 104.15 92.659 103.507 92.6566C103.072 92.6566 102.643 92.5624 102.248 92.3805C101.642 92.0969 101.149 91.6179 100.85 91.021C100.55 90.4238 100.461 89.7433 100.597 89.0894C102.381 80.3858 108.676 63.2038 130.302 66.9913C130.734 67.064 131.173 67.1439 131.618 67.2335L134.185 67.851L141.386 69.6019L143.327 70.0693C144.064 70.2475 144.836 70.2199 145.558 69.9894C145.602 69.9807 145.646 69.9686 145.689 69.9531C146.354 69.7254 146.95 69.3341 147.423 68.8149C147.896 68.2959 148.231 67.6662 148.395 66.984L150.033 60.1839L150.127 59.7892L152.273 50.899" stroke="black" stroke-miterlimit="10"/>
<path d="M101.452 51.4242H94.199C93.372 51.4242 92.5788 51.0921 91.994 50.5011C91.4092 49.9101 91.0808 49.1086 91.0808 48.2727C91.0808 47.4369 91.4092 46.6354 91.994 46.0444C92.5788 45.4533 93.372 45.1212 94.199 45.1212H104.475" stroke="black" stroke-miterlimit="10"/>
<path d="M95.8081 51.4242C95.7042 52.7297 95.2163 53.6953 94.4966 54.3628C92.6416 56.087 89.2433 55.89 86.8788 54.7101" stroke="black" stroke-miterlimit="10"/>
<path d="M82.0096 50.6071C79.8938 48.0679 80.3257 44.6249 81.9682 41.9645C86.627 34.4146 97.2721 35.8635 104.176 39.0012C109.77 41.5356 114.67 45.3445 119.441 49.1437C121.772 50.9996 124.061 52.9332 126.274 54.9587C126.681 55.3239 127.165 55.5926 127.691 55.745C128.217 55.8974 128.771 55.9291 129.312 55.8383C129.852 55.7474 130.365 55.5359 130.811 55.2199C131.257 54.904 131.625 54.4916 131.887 54.0138C133.108 51.7774 134.428 49.3375 134.677 48.6615" stroke="black" stroke-miterlimit="10"/>
<path d="M94.4949 54.3131C94.4949 54.3131 105.495 60.2406 113.667 68.7576" stroke="black" stroke-miterlimit="10"/>
<path d="M109.451 82.6868C108.236 84.7375 109.281 87.7488 111.576 88.4691C114.506 89.4042 117.605 89.7113 120.666 89.3696C124.005 88.9854 126.225 86.26 127.686 83.1383C127.792 82.9061 127.848 82.6542 127.848 82.3996C127.849 82.1449 127.796 81.8927 127.692 81.6598C127.588 81.4266 127.436 81.218 127.245 81.0468C127.054 80.8758 126.829 80.7466 126.584 80.6674C126.142 80.5235 125.662 80.5497 125.239 80.7406C124.815 80.9315 124.481 81.2732 124.301 81.6975C123.815 82.8069 123.065 84.1948 122.069 84.8192" stroke="black" stroke-miterlimit="10"/>
<path d="M115.242 82.4142C115.242 82.4142 112.179 85.5497 114.595 88.8694C114.701 89.009 114.826 89.1343 114.967 89.2425" stroke="black" stroke-miterlimit="10"/>
<path d="M119.175 82.9393C119.175 82.9393 116.364 89.0574 119.97 89.505" stroke="black" stroke-miterlimit="10"/>
<path d="M217.929 105H45.6465" stroke="black" stroke-miterlimit="10"/>
<path d="M113.285 93.1917H96.1483C95.9744 94.8157 95.2078 96.3178 93.9966 97.4086C92.7854 98.4995 91.2151 99.1017 89.5882 99.0995H31.9899C31.9931 100.664 32.6134 102.162 33.7147 103.268C34.8164 104.374 36.3094 104.997 37.8673 105H113.285C114.845 104.999 116.342 104.378 117.447 103.272C118.552 102.166 119.176 100.666 119.182 99.0995V95.1333C119.182 94.6157 118.977 94.1193 118.612 93.7534C118.248 93.3875 117.753 93.1819 117.238 93.1819L113.285 93.1917Z" fill="#FFC169" fill-opacity="0.79" stroke="black" stroke-miterlimit="10"/>
<path d="M86.9496 54.6913C87.4554 55.3932 87.8192 56.188 88.0205 57.0303L96.1516 91.0504C96.3312 91.789 96.3782 92.5537 96.2903 93.3088C96.116 94.9344 95.3484 96.4379 94.1352 97.5297C92.922 98.6213 91.3491 99.2244 89.7192 99.2222H30.9542C29.4702 99.2219 28.0294 98.7202 26.8641 97.798C25.6988 96.8759 24.8772 95.5868 24.5316 94.1389L16.4151 60.1213C16.1817 59.1471 16.1717 58.1329 16.3857 57.1543C16.5996 56.1757 17.0318 55.2587 17.6502 54.4721C18.2684 53.6854 19.0564 53.0496 19.955 52.6128C20.8535 52.1758 21.8392 51.949 22.8377 51.9495H81.5978C82.5633 51.9475 83.5171 52.1594 84.3913 52.5701C85.2655 52.9808 86.0384 53.5799 86.6551 54.3251L86.9496 54.6913Z" fill="#FFC169" fill-opacity="0.79" stroke="black" stroke-miterlimit="10"/>
<path d="M77.6233 12.5963C77.2477 12.1547 76.8527 11.7303 76.4405 11.318C74.1279 8.99676 71.3796 7.1553 68.3534 5.89928C65.3273 4.64351 62.0829 3.99805 58.8065 4H27.9378C24.6625 3.99878 21.4188 4.64301 18.3924 5.89635C15.3662 7.14968 12.6164 8.98725 10.3004 11.3041C7.98443 13.621 6.1476 16.3716 4.89498 19.3989C3.64233 22.4263 2.9984 25.6709 3.00001 28.9472V29.1253C2.99687 31.4497 3.58873 33.7366 4.71928 35.7676C5.9897 37.0617 7.50611 38.0886 9.17926 38.7878C10.8524 39.4871 12.6485 39.8445 14.4617 39.8389H44.7256C45.6492 39.8389 46.5351 40.2057 47.1882 40.859C47.8413 41.5123 48.2081 42.3985 48.2081 43.3223C48.2093 44.2473 48.5775 45.1337 49.2318 45.7875C49.8861 46.441 50.773 46.8081 51.6978 46.8081H51.7734L59.2455 46.6178C59.2455 46.5446 59.2308 46.4788 59.2308 46.4129C58.5848 46.1907 58.0244 45.7723 57.6279 45.2159C57.2314 44.6595 57.0185 43.9933 57.019 43.3101V43.1491C57.0197 42.2253 57.3867 41.3398 58.0396 40.6866C58.6926 40.0335 59.5781 39.6662 60.5014 39.6657H67.8686C71.4905 39.6657 74.9642 38.2265 77.5253 35.6647C80.0863 33.1029 81.5252 29.6283 81.5252 26.0053C81.5378 21.2537 80.1834 16.5987 77.6233 12.5963ZM24.1676 27.0494C22.9866 27.0499 21.8319 26.6998 20.8498 26.0439C19.8675 25.3877 19.102 24.4549 18.6499 23.3635C18.198 22.2722 18.0797 21.0713 18.3102 19.9126C18.5407 18.7539 19.1094 17.6896 19.9448 16.8544C20.7801 16.0191 21.8443 15.4508 23.0027 15.2205C24.1611 14.9905 25.3616 15.1093 26.4527 15.562C27.5435 16.0148 28.4758 16.7807 29.1311 17.7635C29.7866 18.7463 30.136 19.9014 30.1351 21.0827C30.1331 22.6649 29.5037 24.1819 28.3851 25.3004C27.2662 26.4191 25.7496 27.0479 24.1676 27.0494ZM43.6453 27.0494C42.4645 27.0489 41.3103 26.6981 40.3287 26.0414C39.3474 25.3848 38.5824 24.4517 38.1312 23.3601C37.6798 22.2687 37.5623 21.0679 37.7932 19.9094C38.0242 18.7512 38.5936 17.6874 39.4291 16.8527C40.2646 16.0179 41.3286 15.4498 42.4869 15.2203C43.6453 14.9905 44.8456 15.1098 45.9362 15.5625C47.027 16.0152 47.9588 16.7814 48.6141 17.764C49.2694 18.7466 49.6186 19.9016 49.6176 21.0827C49.6176 21.8667 49.463 22.6434 49.1628 23.3677C48.8626 24.0922 48.4227 24.7501 47.8679 25.3043C47.3133 25.8585 46.6549 26.2978 45.9303 26.5971C45.2058 26.8967 44.4293 27.0504 43.6453 27.0494ZM62.1963 27.0494C61.0155 27.0484 59.8617 26.6971 58.8804 26.0402C57.8993 25.3833 57.1348 24.45 56.6839 23.3584C56.233 22.267 56.1157 21.0662 56.3469 19.908C56.5783 18.75 57.1477 17.6862 57.9832 16.8519C58.819 16.0174 59.8829 15.4496 61.0413 15.22C62.1994 14.9907 63.3997 15.1098 64.4903 15.5627C65.5807 16.0155 66.5125 16.7817 67.1677 17.7642C67.8228 18.7468 68.172 19.9016 68.171 21.0827C68.171 21.867 68.0164 22.6437 67.716 23.3682C67.4157 24.0929 66.9753 24.751 66.4205 25.3052C65.8655 25.8595 65.2068 26.2985 64.482 26.5979C63.7573 26.8972 62.9805 27.0506 62.1963 27.0494Z" fill="#3FBDF1"/>
<path d="M81.6263 25.9141C81.6263 29.534 80.1891 33.0057 77.631 35.5653C75.0729 38.125 71.6033 39.563 67.9856 39.563H60.6318C59.7098 39.5635 58.8258 39.93 58.1738 40.5823C57.5217 41.2342 57.1546 42.1185 57.1534 43.041V43.2019C57.1529 43.8846 57.3656 44.5502 57.7616 45.1061C58.1577 45.6621 58.7174 46.0801 59.3627 46.3021C59.7025 46.4203 60.0601 46.4796 60.4199 46.4776L59.3773 46.5069L51.909 46.697H51.8287C50.9055 46.697 50.02 46.3304 49.3665 45.6779C48.713 45.0255 48.3449 44.1402 48.343 43.2165C48.343 42.2932 47.9766 41.408 47.3241 40.7553C46.6717 40.1026 45.787 39.736 44.8646 39.736H14.6407C11.023 39.736 7.55341 38.298 4.99526 35.7384C2.43715 33.1787 1 29.707 1 26.0871V25.9092C1.00032 22.6376 1.64462 19.3985 2.89608 16.376C4.14754 13.3537 5.98171 10.6076 8.2938 8.2946C10.6059 5.98161 13.3507 4.14704 16.3714 2.89525C19.392 1.64369 22.6298 0.999513 25.8991 1H56.7223C63.3261 1.00049 69.6595 3.62546 74.3297 8.29752C78.9997 12.9696 81.6243 19.3061 81.6263 25.9141Z" stroke="black" stroke-miterlimit="10"/>
<path d="M158.576 34.6162C158.561 34.6162 158.554 34.6015 158.54 34.6015C152.824 32.8572 150.042 29.2952 148.837 25.8799C148.837 25.8799 148.837 25.8799 148.837 25.8652C147.895 23.2023 147.916 20.6249 148.256 19.0858C148.46 18.2706 148.589 17.4382 148.642 16.5988C148.721 14.2217 147 14.8032 142.078 15.7975C139.817 16.2616 138.37 15.3919 137.647 14.1558C137.577 14.048 137.516 13.9344 137.464 13.8162C137.127 13.0967 136.987 12.2983 137.059 11.5051" stroke="black" stroke-miterlimit="10"/>
<path d="M134.167 25.0538C134.079 24.9296 133.989 24.8103 133.902 24.7154C133.134 23.8366 132.253 23.9388 130.877 24.472C130.532 24.6034 129.662 24.5669 128.974 24.3259C128.395 24.119 127.962 23.7611 128.159 23.2256C128.21 23.1153 128.285 23.0184 128.379 22.942C128.473 22.8656 128.583 22.8118 128.701 22.785C128.931 22.727 129.163 22.6805 129.397 22.6462C131.758 22.118 131.23 19.3818 130.943 17.6656C130.248 13.3472 131.172 8.2643 134.116 4.89764C137.359 1.19505 142.664 0.423364 147.145 2.11765C151.086 3.60745 154.793 6.84022 155.561 11.1611C155.561 11.1757 155.561 11.1903 155.576 11.2049C155.591 11.2196 155.576 11.2415 155.576 11.2561C156.031 13.9557 155.576 16.8818 155.048 19.5522C154.732 21.1345 154.851 22.4271 155.292 23.4958C156.67 26.9939 161.321 28.2135 165.07 29.9443C173.941 34.0364 181.169 41.0326 186.041 49.5405C189.887 56.2885 190.799 60.439 190.588 62.9999C190.293 66.4395 187.964 66.9994 187.964 66.9994C185.995 68.1655 182.968 66.9118 182.36 64.7258C182.351 64.7024 182.346 64.6776 182.346 64.6527C181.86 62.7808 180.911 60.3757 179.638 57.7442" stroke="black" stroke-miterlimit="10"/>
<path d="M136.939 11.5051C136.939 12.8078 136.325 14.0936 134.991 14.6415C133.491 15.26 132.883 16.8891 132.664 18.4743C132.357 20.7957 132.857 23.1516 134.078 25.1489C135.21 27.0288 137.053 29.101 139.663 29.101C144.445 29.101 146.495 26.795 146.495 26.795" stroke="black" stroke-miterlimit="10"/>
<path d="M141.899 19.1212C142.407 19.1212 142.818 18.7686 142.818 18.3334C142.818 17.8984 142.407 17.5455 141.899 17.5455C141.392 17.5455 140.98 17.8984 140.98 18.3334C140.98 18.7686 141.392 19.1212 141.899 19.1212Z" fill="black"/>
<path d="M134.677 19.6465C135.112 19.6465 135.465 19.2938 135.465 18.8586C135.465 18.4236 135.112 18.0707 134.677 18.0707C134.242 18.0707 133.889 18.4236 133.889 18.8586C133.889 19.2938 134.242 19.6465 134.677 19.6465Z" fill="black"/>
<path d="M138.334 17.5455C138.334 17.5455 137.984 20.8462 138.124 21.2991C138.265 21.7521 139.141 21.2341 139.141 21.2341" stroke="black" stroke-miterlimit="10"/>
<path d="M139.667 24.1386C141.467 24.8249 143.325 23.9507 143.869 22.2728" stroke="black" stroke-miterlimit="10"/>
<path d="M146.084 19.6466C147.278 17.9427 146.842 15.5624 145.111 14.3293C143.38 13.0965 141.009 13.4781 139.815 15.182C138.621 16.8856 139.057 19.2662 140.788 20.499C142.519 21.7318 144.89 21.3502 146.084 19.6466Z" stroke="black" stroke-miterlimit="10"/>
<path d="M136.629 19.9635C137.823 18.3184 137.388 16.0199 135.657 14.8296C133.926 13.6392 131.554 14.0078 130.361 15.6528C129.166 17.2977 129.602 19.5962 131.333 20.7865C133.064 21.9768 135.435 21.6083 136.629 19.9635Z" stroke="black" stroke-miterlimit="10"/>
<path d="M133.555 15.2112C134.228 15.2092 134.877 15.464 135.372 15.9243C135.866 16.3848 136.17 17.0166 136.221 17.6933C136.248 18.0295 136.208 18.3676 136.102 18.6874C135.996 19.0074 135.827 19.3023 135.606 19.5549C135.381 19.8109 135.108 20.0186 134.802 20.1654C134.497 20.3125 134.165 20.3955 133.826 20.41H133.691C133.017 20.4119 132.368 20.1569 131.873 19.6959C131.378 19.2349 131.075 18.6024 131.024 17.9254C130.998 17.5892 131.039 17.2509 131.145 16.9311C131.251 16.6113 131.42 16.3162 131.642 16.0638C131.866 15.8085 132.139 15.6013 132.444 15.4543C132.75 15.3074 133.081 15.2239 133.419 15.2087H133.555V15.2112ZM133.555 14.6566H133.392C132.984 14.6749 132.583 14.7761 132.214 14.9535C131.845 15.1311 131.514 15.3815 131.243 15.69C130.972 15.9986 130.765 16.3589 130.634 16.7496C130.504 17.1402 130.453 17.5533 130.484 17.9645C130.549 18.779 130.916 19.5388 131.511 20.0936C132.107 20.6484 132.887 20.9574 133.698 20.9596H133.86C134.269 20.9411 134.67 20.8402 135.039 20.6626C135.408 20.4852 135.738 20.2348 136.009 19.9262C136.281 19.6177 136.488 19.2573 136.618 18.8667C136.749 18.4761 136.8 18.0629 136.769 17.6518C136.703 16.8373 136.337 16.0775 135.741 15.5227C135.146 14.9679 134.366 14.6588 133.555 14.6566Z" fill="white"/>
<path d="M139.141 17.5455L137.303 17.8081" stroke="black" stroke-miterlimit="10"/>
<path opacity="0.53" d="M145.675 19.1298C146.663 17.7198 146.303 15.7496 144.87 14.7296C143.438 13.7095 141.475 14.0256 140.487 15.4356C139.499 16.8458 139.859 18.8158 141.291 19.836C142.724 20.8561 144.686 20.5401 145.675 19.1298Z" fill="#D0C6B8" fill-opacity="0.79"/>
<path opacity="0.53" d="M136.197 19.6553C137.226 18.2453 136.851 16.2751 135.359 15.255C133.867 14.2347 131.823 14.551 130.793 15.961C129.764 17.3712 130.139 19.3412 131.631 20.3612C133.123 21.3815 135.167 21.0653 136.197 19.6553Z" fill="#D0C6B8" fill-opacity="0.79"/>
<path d="M140.98 29.101L145.462 39.5682C145.462 39.5682 154.11 41.8547 156.212 33.8119" stroke="black" stroke-miterlimit="10"/>
<path d="M57.1179 83.7246C60.4667 82.6667 62.2193 78.7534 61.033 74.9839C59.8465 71.2143 56.17 69.0158 52.8213 70.0735C49.4728 71.1314 47.7199 75.0446 48.9065 78.8142C50.0928 82.5837 53.7692 84.7822 57.1179 83.7246Z" fill="#FB984C"/>
<path d="M139.929 105C139.832 96.4338 138.28 87.9698 137.566 84.5151" stroke="black" stroke-miterlimit="10"/>
</svg>
