<svg width="152" height="90" viewBox="0 0 152 90" fill="none" xmlns="http://www.w3.org/2000/svg">
<path d="M126.462 1.81303C126.963 1.81303 127.369 1.40715 127.369 0.906515C127.369 0.405878 126.963 0 126.462 0C125.962 0 125.556 0.405878 125.556 0.906515C125.556 1.40715 125.962 1.81303 126.462 1.81303Z" fill="#D7E8F0"/>
<path d="M123.929 5.00809C123.929 4.33624 124.196 3.69193 124.671 3.21695C125.147 2.7418 125.791 2.47498 126.463 2.47498C127.134 2.47498 127.779 2.7418 128.254 3.21695C128.729 3.69193 128.996 4.33624 128.996 5.00809H123.929Z" fill="#D7E8F0"/>
<path d="M143.594 80.2421C143.553 81.266 143.288 82.2683 142.817 83.1789C142.799 83.2242 142.777 83.2682 142.752 83.3106C141.928 84.7916 140.775 86.0638 139.381 87.029L139.332 87.0632C138.074 87.9046 136.659 88.4835 135.172 88.7651C135.172 88.7788 135.172 88.7651 135.172 88.7651H151C151 88.7651 148.883 58.5678 129.422 43.8754C110.588 29.6585 92.9557 36.5104 91.837 36.9688C92.1836 37.9471 92.3385 38.9831 92.2937 40.0201C92.2937 40.0201 93.7099 40.7573 93.946 43.3965C94.182 46.0356 94.6746 53.3733 89.9385 54.7553C89.9385 54.7553 85.6864 54.651 84.5627 53.0192C83.4389 51.3875 83.1687 51.7193 82.7274 52.1332C82.3853 52.4463 80.3209 53.5649 79.3682 54.078C79.4886 54.0838 79.6081 54.1004 79.7256 54.1276C79.7256 54.1276 80.2713 58.732 86.947 65.9482C87.1733 66.1865 87.3867 66.4365 87.5867 66.6974C88.5948 67.5788 89.7276 68.4784 90.9853 69.3964L98.6034 74.9706C98.7753 75.1169 98.9792 75.2205 99.1986 75.2734C99.6249 75.3808 100.07 75.3849 100.499 75.2853C101.385 75.1143 107.434 74.4968 111.349 74.1069C111.438 74.1069 111.532 74.0898 111.62 74.0795L112.133 74.0299C112.215 74.0299 112.304 74.0128 112.376 74.0077L112.837 73.9632C113.063 73.941 113.267 73.9187 113.455 73.9033L113.968 73.8537C114.421 73.8093 114.69 73.7819 114.712 73.7819C115.645 73.7554 116.575 73.6651 117.495 73.5116C118.376 73.3406 119.18 73.0652 119.388 72.6086C119.428 72.5123 119.443 72.4076 119.431 72.3041C119.384 72.0135 119.263 71.7402 119.079 71.5105C118.275 70.4312 116.407 69.5059 116.27 69.4392C116.266 69.4378 116.262 69.4378 116.258 69.4392L116.221 69.4118L105.103 60.7742H105.091C105.091 60.7742 106.765 42.9107 122.024 47.3065C122.024 47.3065 122.096 47.3561 122.228 47.4655C122.823 47.9239 124.696 49.4428 127.449 52.2803C127.521 52.3573 127.598 52.4343 127.675 52.5164C127.968 52.814 128.255 53.1236 128.541 53.4263C130.473 55.4925 132.76 58.1248 135.283 61.4071L135.3 61.4242C138.191 65.1871 140.274 68.6353 141.629 71.6866V71.6969C143.095 75.0134 143.712 77.8544 143.591 80.1207C143.595 80.161 143.596 80.2016 143.594 80.2421ZM97.572 49.5386C97.1205 44.3338 99.6536 42.4489 99.7956 42.3446C96.1935 48.8612 102.874 58.85 103.109 59.2366C102.917 59.0758 98.0236 54.7416 97.572 49.5386Z" fill="#3FBDF1"/>
<path d="M88.004 48.5175C87.8165 48.6553 87.6212 48.7821 87.419 48.8972L86.2457 46.8447C88.9516 45.461 89.711 43.0219 88.5205 41.6827C88.1877 41.3163 87.7586 41.0509 87.2822 40.9164C86.0849 40.5538 85.2554 41.0875 84.6926 41.8041C84.2334 42.427 83.8966 43.1317 83.7006 43.8806L83.1293 37.2921L83.0849 36.7789C83.0849 36.7789 81.8397 36.1615 78.4668 36.7122C75.0938 37.263 74.473 39.1256 73.0242 38.2995C71.5755 37.4734 70.7545 37.5401 70.7545 37.5401C70.3423 39.0538 69.2391 39.0538 69.2391 39.0538C68.9778 39.0223 68.721 38.9597 68.4746 38.8673C66.9095 37.4289 66.4854 34.9334 66.4854 34.9334C68.1273 34.7299 68.2539 33.1495 68.0658 31.8547C68.9757 32.3952 70.2585 32.4328 72.0596 31.2766C77.2267 27.972 82.5256 29.7611 84.3882 30.0365C85.2195 30.1579 86.1294 29.8655 86.8837 29.5234C86.9812 29.698 87.1168 29.8482 87.2805 29.963C88.5378 30.8389 89.5748 31.9946 90.3096 33.3393C95.1586 42.4028 89.8427 47.2159 88.004 48.5175Z" fill="#FB984C"/>
<path d="M68.6473 88.7685H70.5972C71.431 88.7676 72.2306 88.4358 72.8204 87.8462C73.4099 87.2565 73.7416 86.457 73.7426 85.623V83.4406C73.7426 83.2416 73.7034 83.0446 73.6272 82.8609C73.551 82.677 73.4394 82.5101 73.2986 82.3695C73.1578 82.2289 72.9907 82.1176 72.807 82.0416C72.6231 81.9655 72.4261 81.9267 72.2272 81.9269H60.5656C60.566 82.3914 60.4748 82.8515 60.2973 83.2806C60.1196 83.71 59.8591 84.0999 59.5305 84.4283C59.2019 84.7567 58.8118 85.017 58.3825 85.1946C57.9531 85.372 57.493 85.463 57.0285 85.4623H14.8892C14.8895 86.339 15.2381 87.1797 15.8579 87.7995C16.478 88.4196 17.3186 88.768 18.1954 88.7685H75.323C75.3976 88.7687 75.4715 88.7541 75.5406 88.7257C75.6095 88.6972 75.6723 88.6554 75.725 88.6026C75.7778 88.5499 75.8196 88.4871 75.8481 88.4182C75.8765 88.3493 75.8911 88.2752 75.8909 88.2006V84.6584C75.8909 83.9701 76.1642 83.3102 76.6508 82.8236C77.1374 82.337 77.7973 82.0637 78.4856 82.0637C79.1737 82.0637 79.8337 82.337 80.3203 82.8236C80.8068 83.3102 81.0803 83.9701 81.0803 84.6584V88.2006C81.0799 88.275 81.0945 88.3489 81.1229 88.4179C81.1512 88.4866 81.1928 88.5492 81.2455 88.6021C81.298 88.6547 81.3604 88.6967 81.4294 88.7252C81.4981 88.7538 81.5718 88.7685 81.6464 88.7685H151C151 88.7685 148.883 58.5644 129.422 43.8737C110.588 29.6568 92.9556 36.5087 91.837 36.9671L91.7823 36.9876" stroke="black" stroke-miterlimit="10"/>
<path d="M72.3371 44.3594C72.3365 44.5493 72.2795 44.7349 72.1735 44.8924C72.0676 45.0499 71.9172 45.1727 71.7417 45.2449C71.5661 45.3173 71.373 45.3359 71.1869 45.2985C71.0006 45.2612 70.8296 45.1695 70.6955 45.0352C70.5614 44.9008 70.4701 44.7296 70.4329 44.5433C70.396 44.3571 70.415 44.1641 70.4875 43.9886C70.5602 43.8131 70.6832 43.6631 70.8409 43.5574C70.9986 43.4517 71.1842 43.3951 71.3742 43.3948C71.4484 43.3951 71.5225 43.4044 71.5948 43.4221C71.4951 43.4536 71.4082 43.516 71.3466 43.6004C71.2852 43.6847 71.2522 43.7865 71.2527 43.8908C71.2522 43.9563 71.2647 44.0213 71.2893 44.082C71.3141 44.1426 71.3506 44.1978 71.3966 44.2443C71.4428 44.2909 71.4975 44.328 71.5579 44.3533C71.6184 44.3786 71.6832 44.3918 71.7488 44.3919C71.8685 44.3896 71.9836 44.3454 72.0742 44.2669C72.1649 44.1886 72.2251 44.0808 72.2448 43.9626C72.3036 44.0868 72.3351 44.2221 72.3371 44.3594Z" fill="black"/>
<path d="M79.0091 44.628C79.0095 44.8189 78.9532 45.0057 78.8475 45.1646C78.7416 45.3233 78.5911 45.4473 78.415 45.5205C78.2386 45.5939 78.0446 45.6132 77.8574 45.5761C77.6701 45.5392 77.4982 45.4473 77.3631 45.3125C77.2279 45.1777 77.1359 45.0058 77.0984 44.8186C77.0612 44.6314 77.0801 44.4373 77.1532 44.261C77.226 44.0846 77.3497 43.9339 77.5084 43.8279C77.6672 43.7217 77.8536 43.6651 78.0445 43.6651C78.0907 43.6647 78.1365 43.67 78.1813 43.6805C78.096 43.7198 78.0238 43.7827 77.9732 43.8619C77.9225 43.9409 77.8957 44.033 77.8957 44.1269C77.8899 44.2584 77.9364 44.387 78.0253 44.4842C78.1141 44.5813 78.2379 44.6393 78.3694 44.6451C78.501 44.6511 78.6296 44.6044 78.7268 44.5156C78.8239 44.4267 78.8819 44.3029 78.8877 44.1713C78.9667 44.3107 79.0085 44.4679 79.0091 44.628Z" fill="black"/>
<path d="M86.7044 28.1687C86.5932 28.9179 86.7318 29.5747 87.2825 29.9646C88.5398 30.8405 89.5767 31.9963 90.3116 33.341C96.0963 44.149 87.4193 48.9057 87.4193 48.9057L86.246 46.8532C89.6241 45.1291 89.9696 41.7528 87.2825 40.9249C84.5955 40.0971 83.7009 43.8891 83.7009 43.8891L83.0852 36.7823C83.0852 36.7823 81.84 36.1649 78.4671 36.7156C75.0941 37.2664 74.4733 39.129 73.0245 38.3029C71.5758 37.4767 70.7548 37.5435 70.7548 37.5435C70.3426 39.0572 69.2394 39.0572 69.2394 39.0572C66.0067 38.645 65.2473 34.1722 65.2473 34.1722C66.8876 33.967 67.0142 32.3866 66.8277 31.0935C67.736 31.634 69.0205 31.6733 70.8215 30.5154C75.9887 27.2109 81.2875 29.0017 83.1485 29.277C84.4347 29.4635 85.9108 28.6767 86.7044 28.1687Z" stroke="black" stroke-linecap="round" stroke-linejoin="round"/>
<path d="M89.6875 81.7661L90.9652 81.2529L91.923 83.8374L91.7725 88.5273L90.4777 88.7616L85.5637 88.5495C85.5637 88.5495 85.9058 85.6897 86.9509 84.33C87.9959 82.9702 89.6875 81.7661 89.6875 81.7661Z" fill="#FB984C"/>
<path d="M67.3132 40.6376C67.3132 40.6376 68.6217 38.2892 71.3755 38.5338" stroke="black" stroke-miterlimit="10"/>
<path d="M76.7686 38.5338C76.7686 38.5338 79.9157 37.8274 81.0172 39.5771" stroke="black" stroke-miterlimit="10"/>
<path d="M81.645 49.1657C81.645 49.1657 79.7636 48.0762 78.3867 49.908" stroke="black" stroke-miterlimit="10"/>
<path d="M69.7557 38.9101C69.7557 38.9101 68.4164 54.6647 78.4035 54.3739C80.1139 54.3243 81.8141 53.2006 83.439 51.3927" stroke="black" stroke-miterlimit="10"/>
<path d="M87.4191 52.826L83.439 51.3926C83.439 51.3926 84.4259 54.5466 89.3142 54.7878C94.2026 55.029 95.8429 43.8104 92.251 39.2966" stroke="black" stroke-linejoin="round"/>
<path d="M102.98 84.4309C102.98 84.4309 99.3318 87.3916 101.81 88.7685" stroke="black" stroke-miterlimit="10"/>
<path d="M100.159 81.6754C100.159 81.6754 93.8302 85.257 99.2642 88.7685" stroke="black" stroke-miterlimit="10"/>
<path d="M98.024 78.9217C98.024 78.9217 89.6242 82.8556 96.0964 88.7685" stroke="black" stroke-miterlimit="10"/>
<path d="M133.347 88.7685C133.347 88.7685 143.538 88.7685 143.675 78.9217C143.812 69.0749 123.914 44.3492 111.038 40.9096C98.1625 37.4699 97.6101 46.896 97.6101 47.2826C97.6101 47.6691 96.8541 51.7296 100.159 56.0621C102.71 59.4111 113.982 67.7715 118.983 71.4044C119.167 71.5382 119.306 71.7245 119.381 71.9389C119.456 72.1533 119.464 72.3854 119.404 72.6045C119.344 72.8236 119.219 73.0192 119.045 73.1655C118.871 73.3116 118.657 73.4013 118.431 73.4227L96.3119 75.5471H96.2982C96.0895 75.5847 88.2832 77.0249 85.9057 79.4707C85.9057 79.4707 84.5733 80.4576 85.2626 81.9731C85.9519 83.4885 88.0694 82.989 88.1276 82.9326" stroke="black" stroke-miterlimit="10"/>
<path opacity="0.26" d="M78.0462 46.4171C79.5671 46.4171 80.8 45.1842 80.8 43.6633C80.8 42.1424 79.5671 40.9095 78.0462 40.9095C76.5253 40.9095 75.2925 42.1424 75.2925 43.6633C75.2925 45.1842 76.5253 46.4171 78.0462 46.4171Z" fill="white"/>
<path opacity="0.26" d="M71.0577 46.1451C72.5784 46.1451 73.8115 44.9122 73.8115 43.3913C73.8115 41.8704 72.5784 40.6376 71.0577 40.6376C69.5368 40.6376 68.304 41.8704 68.304 43.3913C68.304 44.9122 69.5368 46.1451 71.0577 46.1451Z" fill="white"/>
<path d="M94.8608 81.3316C93.8927 81.0614 92.3106 80.8185 90.6806 81.3419C89.8835 81.5986 89.1481 82.0173 88.5204 82.5717C88.3835 82.6914 88.2518 82.8128 88.1252 82.9343C87.8524 83.2018 87.5948 83.4843 87.3539 83.7809C87.3222 83.8201 87.2771 83.8463 87.2273 83.8545C86.6201 83.9383 82.6229 84.5711 82.6434 86.5911C82.6622 88.4059 84.6497 88.7035 85.3339 88.7514C85.3621 88.7539 85.3905 88.7507 85.4173 88.7418C85.4443 88.7327 85.469 88.7184 85.49 88.6994C85.5111 88.6806 85.528 88.6573 85.5396 88.6317C85.5514 88.6058 85.5576 88.5778 85.5579 88.5495C85.5579 87.903 85.705 85.8762 87.3043 83.8374" stroke="black" stroke-miterlimit="10"/>
<path d="M58.8468 67.0754C59.3154 70.8537 56.3786 72.5624 53.1682 72.8155" stroke="black" stroke-miterlimit="10"/>
<path d="M48.502 72.027C47.2778 71.3658 46.2863 70.3443 45.6617 69.1012C45.0369 67.8579 44.8092 66.4528 45.0093 65.0759C45.5225 61.4413 48.6012 58.6533 51.6149 56.8848C57.9434 53.1715 72.2048 55.8585 74.6011 56.4059C76.4381 56.8266 77.974 55.3899 78.5966 54.6954C78.6231 54.666 78.6573 54.6446 78.6955 54.6342C78.7336 54.6236 78.774 54.6243 78.8118 54.6359C78.8496 54.6477 78.8833 54.67 78.9088 54.7002C78.9343 54.7305 78.9507 54.7673 78.9558 54.8066C80.2711 62.5035 95.5468 72.9506 99.0805 75.2888" stroke="black" stroke-miterlimit="10"/>
<path d="M62.7003 64.4618L57.6427 67.6004C57.3413 67.7881 57.0038 67.9105 56.6523 67.9598C56.3007 68.0091 55.9427 67.9841 55.6013 67.8864C55.2599 67.7886 54.9428 67.6205 54.6705 67.3928C54.398 67.165 54.1765 66.8826 54.02 66.5639C53.738 65.9915 53.682 65.3338 53.8633 64.722C54.0446 64.1102 54.45 63.589 54.9984 63.2629L62.6952 58.6772" stroke="black" stroke-miterlimit="10"/>
<path d="M78.0462 46.4171C79.5671 46.4171 80.8 45.1842 80.8 43.6633C80.8 42.1424 79.5671 40.9095 78.0462 40.9095C76.5253 40.9095 75.2925 42.1424 75.2925 43.6633C75.2925 45.1842 76.5253 46.4171 78.0462 46.4171Z" stroke="black" stroke-miterlimit="10"/>
<path d="M71.0576 45.7329C72.3509 45.7329 73.3992 44.6846 73.3992 43.3914C73.3992 42.0981 72.3509 41.0498 71.0576 41.0498C69.7644 41.0498 68.7161 42.0981 68.7161 43.3914C68.7161 44.6846 69.7644 45.7329 71.0576 45.7329Z" stroke="white" stroke-miterlimit="10"/>
<path d="M71.0577 46.1451C72.5784 46.1451 73.8115 44.9122 73.8115 43.3913C73.8115 41.8704 72.5784 40.6376 71.0577 40.6376C69.5368 40.6376 68.304 41.8704 68.304 43.3913C68.304 44.9122 69.5368 46.1451 71.0577 46.1451Z" stroke="black" stroke-miterlimit="10"/>
<path d="M75.3062 43.3914H73.8113" stroke="black" stroke-miterlimit="10"/>
<path d="M75.306 47.2825H74.3208C74.2589 47.2825 74.1976 47.269 74.1415 47.2427C74.0854 47.2163 74.0358 47.1779 73.9963 47.1301C73.9566 47.0824 73.9282 47.0267 73.9127 46.9666C73.8973 46.9066 73.8952 46.844 73.9069 46.7831L74.5585 43.3914" stroke="black" stroke-miterlimit="10"/>
<path d="M55.5392 56.6813C55.5392 56.6813 52.0278 57.439 50.7894 62.7413C50.0368 65.9602 49.0038 70.0669 48.3093 72.7967C48.2202 73.1469 48.2124 73.5127 48.2861 73.8664C48.36 74.2201 48.5136 74.5523 48.7354 74.8376C48.9571 75.1229 49.2412 75.3538 49.5656 75.5125C49.8903 75.6714 50.2467 75.754 50.6081 75.754C51.1476 75.754 51.671 75.5703 52.0921 75.2329C52.513 74.8956 52.8065 74.4247 52.924 73.8982L54.3933 67.3063" stroke="black" stroke-miterlimit="10"/>
<path d="M58.749 69.0748C58.749 69.0748 62.435 66.8718 69.6956 69.0748C76.9563 71.2778 85.3031 72.7727 88.0569 66.93" stroke="black" stroke-miterlimit="10"/>
<path d="M90.6829 81.3419C90.6829 81.3419 93.2485 84.2701 91.6886 88.7685" stroke="black" stroke-miterlimit="10"/>
<path d="M5.90297 44.929H46.4396C47.7454 44.9273 49.0136 45.365 50.0402 46.1716C51.0668 46.9784 51.7922 48.1071 52.0994 49.3761L58.5527 76.1029C58.7269 76.824 58.7351 77.5754 58.5769 78.3001C58.4187 79.025 58.0979 79.7045 57.639 80.2874C57.18 80.8703 56.5948 81.3416 55.9274 81.6655C55.26 81.9895 54.5278 82.1578 53.7858 82.1578H13.3535C12.0503 82.159 10.7845 81.7225 9.75907 80.9183C8.73374 80.114 8.00821 78.9886 7.6989 77.7227L1.14119 51.001C0.96411 50.279 0.953455 49.5263 1.11004 48.7997C1.26663 48.0731 1.58636 47.3915 2.04505 46.8067C2.50373 46.2217 3.0894 45.7488 3.75776 45.4235C4.4261 45.0982 5.15966 44.9292 5.90297 44.929Z" fill="#FB984C"/>
<path d="M7.37898 46.0784H45.4116C46.6369 46.0799 47.826 46.4925 48.7889 47.2502C49.7517 48.0077 50.4326 49.0665 50.7224 50.2569L56.7806 75.3298C56.9443 76.0062 56.9522 76.7109 56.8039 77.391C56.6554 78.0711 56.3548 78.7085 55.9242 79.2553C55.4939 79.8023 54.9449 80.2443 54.3187 80.5482C53.6927 80.8522 53.0058 81.0101 52.3096 81.0101H14.3694C13.148 81.0075 11.9626 80.5963 11.0017 79.8424C10.0408 79.0882 9.35991 78.0345 9.06715 76.8486L2.90968 51.774C2.74342 51.0965 2.73339 50.3903 2.88039 49.7084C3.02736 49.0266 3.3275 48.3871 3.75808 47.8384C4.18866 47.2897 4.7384 46.846 5.36571 46.541C5.99304 46.2362 6.6815 46.0779 7.37898 46.0784Z" fill="#FB984C"/>
<path d="M5.90297 44.929H46.4396C47.7454 44.9273 49.0136 45.365 50.0402 46.1716C51.0668 46.9784 51.7922 48.1071 52.0994 49.3761L58.5528 76.1029C58.7269 76.824 58.7351 77.5754 58.5769 78.3001C58.4187 79.025 58.098 79.7045 57.639 80.2874C57.18 80.8703 56.5948 81.3416 55.9274 81.6655C55.26 81.9895 54.5278 82.1578 53.7858 82.1578H13.3535C12.0503 82.159 10.7845 81.7225 9.75907 80.9182C8.73374 80.114 8.00821 78.9886 7.6989 77.7227L1.14119 51.001C0.96411 50.279 0.953455 49.5263 1.11004 48.7997C1.26663 48.0731 1.58636 47.3915 2.04505 46.8067C2.50373 46.2217 3.0894 45.7488 3.75776 45.4235C4.4261 45.0982 5.15966 44.9292 5.90297 44.929Z" stroke="black" stroke-miterlimit="10"/>
<path d="M47.6914 66.2356C47.6909 66.4415 47.609 66.6387 47.4634 66.7843C47.3179 66.9298 47.1207 67.0118 46.9149 67.0121H42.7928C42.1651 66.3827 41.9735 65.4984 42.3515 64.8587H45.981C46.3265 64.8589 46.6647 64.9593 46.9544 65.1479C47.244 65.3364 47.4727 65.6049 47.6128 65.9209C47.6601 66.0194 47.6868 66.1265 47.6914 66.2356Z" fill="#FB984C"/>
<path d="M49.5848 70.9905C49.5829 71.1968 49.4998 71.394 49.3536 71.5394C49.2072 71.6848 49.0094 71.7665 48.8032 71.767H18.8334C19.2165 71.1239 19.0249 70.2431 18.3955 69.6154H47.8847C48.2305 69.6152 48.5688 69.7159 48.8584 69.9053C49.148 70.0944 49.376 70.364 49.5147 70.6809C49.559 70.7783 49.5828 70.8836 49.5848 70.9905Z" fill="#FB984C"/>
</svg>
