<svg width="135" height="102" viewBox="0 0 135 102" fill="none" xmlns="http://www.w3.org/2000/svg">
  <path d="M111.578 63.9671C109.336 50.9843 101.398 39.3663 88.5006 35.2082C85.2013 34.1505 81.8278 33.3405 78.408 32.7852V32.8026C78.2297 33.8804 77.8074 34.9033 77.1734 35.7929C75.8292 37.6344 73.9766 39.1471 71.8316 39.9352C69.6421 40.7455 66.9299 40.8504 64.8977 39.5761C63.6742 38.8102 62.4873 37.4613 62.2728 36.0058C62.0282 34.3661 62.8639 32.8138 64.0397 31.7301C54.0742 31.8112 44.6997 33.4509 37.1875 35.3178C37.4477 36.408 37.8084 37.4717 38.2647 38.4956C38.9031 39.9229 39.8056 41.2168 40.9245 42.309C42.3199 40.9265 43.5418 39.3792 44.5631 37.7012C45.5399 38.0209 46.4013 38.6208 47.04 39.4262C47.6787 40.2316 48.0666 41.2069 48.1556 42.2311V42.2835C48.5496 46.0031 44.9683 48.798 41.9589 50.5172C38.4824 52.516 34.6071 54.0127 30.8001 55.2568C29.2303 55.7716 27.1902 56.2101 25.533 55.6731C25.3544 55.6162 25.1802 55.5466 25.0118 55.465C23.3594 54.6546 22.2535 52.9561 21.3907 51.4038C18.9327 46.9946 17.3343 42.1882 16.2507 37.2547C8.73047 38.216 7.86929 33.1236 7.42281 31.8747L0.989399 49.8594C0.651919 51.1521 0.615375 52.505 0.882626 53.8141C1.14988 55.1232 1.71377 56.3536 2.53078 57.4107C3.34795 58.4678 4.39661 59.3234 5.59606 59.9119C6.79552 60.5005 8.11414 60.806 9.45023 60.8052H36.0832L48.181 91.8362L51.6098 100.643H71.1945C69.6056 100.643 68.7364 100.256 68.1057 99.6234C67.454 98.9716 67.0873 98.0883 67.0856 97.1669C67.0856 95.2603 68.6506 93.6968 71.1945 93.6968H71.374C71.1817 93.6968 70.9974 93.6793 70.8052 93.6618C70.9242 93.649 71.0426 93.6293 71.1595 93.6031C71.0335 93.6 70.9078 93.5905 70.7829 93.5745C71.9303 93.4389 72.9934 92.9046 73.7867 92.0645C74.5799 91.2246 75.0526 90.1326 75.1222 88.9794C75.1254 88.9195 75.1254 88.8596 75.1222 88.7998V88.7077C75.0947 87.5254 74.6428 86.3924 73.849 85.5158C73.0552 84.639 71.9725 84.0773 70.7988 83.9331C70.9323 83.922 71.0594 83.9108 71.1881 83.9108C71.0721 83.8822 70.9434 83.8648 70.8227 83.8473C71.0133 83.8298 71.2056 83.8171 71.3899 83.8171L85.7185 83.8934L88.3545 83.9045H91.483C91.6276 83.9045 91.7738 83.9045 91.912 83.922L96.5595 83.9458L99.6642 83.9633C100.962 83.9741 102.202 84.4984 103.114 85.4215C104.026 86.3445 104.536 87.5912 104.531 88.8888C104.529 89.6226 104.359 90.346 104.034 91.0036C105.366 90.8331 106.601 90.2171 107.539 89.2559C109.774 86.9726 110.737 83.5549 111.403 80.517C112.58 75.1052 112.51 69.4027 111.578 63.9671ZM75.3764 64.3325C72.6769 68.4875 68.0802 68.1141 68.0802 68.1141C68.0802 68.1141 67.6989 68.4859 66.8091 66.9034C65.9193 65.3208 63.3851 64.2388 63.3851 64.2388C63.1833 65.8277 62.7654 68.2428 58.6184 65.1127C54.4714 61.9826 55.7219 57.4193 56.0762 55.0089C56.4305 52.5986 57.843 51.7994 57.843 51.7994L59.5114 50.9191C59.5114 50.9191 54.6859 49.6782 54.4539 49.6321C54.2219 49.5861 49.924 45.9872 54.2855 45.0371C58.647 44.0869 65.4459 47.8653 66.7599 48.6121C68.0739 49.3589 75.753 55.8542 75.753 55.8542C75.753 55.8542 78.0902 60.184 75.3764 64.3325Z" fill="#FB984C"/>
  <path d="M16.2444 37.2579C16.2444 37.2579 19.8814 36.8162 21.243 34.2199L20.0561 40.8789C20.0561 40.8789 34.5246 35.9534 37.178 35.3178C37.178 35.3178 38.0328 40.8297 41.4362 42.3089L44.9477 37.8442C44.9477 37.8442 49.3505 38.9564 48.1461 44.956C46.9417 50.9557 30.2838 55.9702 27.4588 55.8542C24.6337 55.7382 21.5926 54 18.4784 44.6589L16.2444 37.2579Z" fill="#FB984C"/>
  <path d="M22.1691 22.424C23.0906 23.9239 24.017 25.4206 24.9735 26.8983C25.5629 27.8087 26.637 29.1068 25.4946 30.0586C25.1228 30.3436 24.6738 30.5098 24.206 30.5353C23.472 30.6004 22.7014 30.424 22.2549 29.7932L20.0304 26.107C19.587 25.3718 18.8831 24.8307 18.0588 24.5909C17.2343 24.3513 16.3499 24.4309 15.5815 24.8137" stroke="black" stroke-miterlimit="10"/>
  <path d="M30.5825 27.2796C31.164 28.662 30.77 29.5533 30.0899 30.0014C28.9777 30.7307 27.4889 30.3812 26.7008 29.3166L22.1772 22.4319" stroke="black" stroke-miterlimit="10"/>
  <path d="M25.9985 20.422C27.6446 22.424 29.7213 26.142 30.87 27.6943C32.0188 29.2467 33.7952 28.3108 33.7952 28.3108C35.2379 27.5338 34.9932 26.2452 34.3624 24.6802C32.8085 20.8383 30.5904 18.2833 28.1165 16.6086C20.4501 11.4225 12.5851 15.2485 10.2447 24.2003L0.989399 49.8593C0.651919 51.1522 0.615375 52.5051 0.882626 53.8142C1.14988 55.1233 1.71377 56.3537 2.53078 57.4108C3.34795 58.4679 4.39661 59.3235 5.59606 59.9121C6.79552 60.5004 8.11414 60.806 9.45023 60.8052H36.0832L51.6146 100.645" stroke="black" stroke-miterlimit="10"/>
  <path d="M35.508 22.9181C37.4146 22.2572 37.3272 19.216 34.6214 18.1896C31.6327 17.0551 26.3258 15.4504 24.9927 15.05C24.9844 15.0436 24.9744 15.0398 24.9641 15.0388C24.8704 15.0102 24.8052 14.9864 24.7544 14.9753L24.6797 14.9514" stroke="black" stroke-miterlimit="10"/>
  <path d="M63.6786 53.3247C62.0102 51.3195 57.4438 50.1835 54.463 49.6337C53.962 49.5396 53.5052 49.2853 53.1612 48.909C52.8174 48.5328 52.6051 48.055 52.5564 47.5475C52.5217 47.2053 52.5613 46.8595 52.6723 46.5338C52.85 46.0338 53.1905 45.6079 53.639 45.3245C54.0876 45.041 54.6184 44.9163 55.1462 44.9703C60.2307 45.4851 65.474 47.0851 69.3525 50.5314C69.3525 50.5314 88.1538 64.8791 90.3989 66.2757C91.3252 66.8382 92.1896 66.174 91.562 65.2906L91.365 64.9538C90.2599 63.0573 88.9519 61.2865 87.4642 59.6723" stroke="black" stroke-miterlimit="10"/>
  <path d="M64.0268 31.7285C40.381 31.9255 20.0559 40.8773 20.0559 40.8773L22.0849 29.5041" stroke="black" stroke-miterlimit="10"/>
  <path d="M100.752 93.6269C100.752 93.6269 98.1766 93.0437 97.4918 95.1061C96.807 97.1685 96.092 100.45 101.016 100.643C105.94 100.837 103.048 99.8696 102.764 98.276C102.479 96.6823 100.752 93.6269 100.752 93.6269Z" fill="#FB984C"/>
  <path d="M61.4066 55.9416C61.4066 55.9416 58.6276 53.8347 56.1251 55.9702C56.0198 56.063 55.9278 56.1699 55.8518 56.288" stroke="black" stroke-miterlimit="10"/>
  <g opacity="0.77">
    <path opacity="0.77" d="M26.6914 29.3086C27.4858 30.3747 28.973 30.7227 30.0805 29.9918C30.7526 29.5469 31.1466 28.6603 30.5794 27.2907C30.6827 27.4417 30.7764 27.5751 30.8686 27.6975C32.0157 29.2562 33.7937 28.3171 33.7937 28.3171C35.2364 27.5402 34.9933 26.2516 34.3625 24.6849C33.7453 23.1332 32.9354 21.6653 31.9522 20.3155C32.5957 19.7133 33.3599 19.1048 34.1655 19.3717C35.0346 19.6609 35.2777 20.7508 35.3762 21.6597C35.4223 22.0823 35.4684 22.5002 35.5145 22.9229L36.2104 29.1449C36.4424 31.2105 36.6744 33.3062 37.178 35.3225C37.4383 36.4127 37.799 37.4764 38.2553 38.5003C38.8937 39.9276 39.7962 41.2215 40.9151 42.3137C42.3105 40.9312 43.5323 39.3839 44.5537 37.7059C45.5305 38.0256 46.3919 38.6255 47.0306 39.4309C47.6693 40.2363 48.0572 41.2118 48.1461 42.2358V42.2882C48.5402 46.0078 44.9588 48.8027 41.9495 50.5219C38.473 52.5207 34.5977 54.0174 30.7907 55.2615C29.2209 55.7763 27.1808 56.2148 25.5235 55.6778C25.345 55.6209 25.1708 55.5513 25.0024 55.4697C23.3499 54.6593 22.2441 52.9608 21.3813 51.4085C17.2502 43.9804 15.5342 35.4512 14.6301 27.0047C16.4383 26.7553 18.2401 26.4772 20.0196 26.0943C20.0196 26.0943 20.0196 26.107 20.0308 26.1118L22.082 29.5136L22.2504 29.7964C22.6953 30.432 23.4659 30.602 24.2016 30.5384C24.6692 30.5152 25.1185 30.3488 25.4886 30.0617C26.6294 29.1084 25.5585 27.815 24.9674 26.9046" fill="white"/>
    <path opacity="0.77" d="M26.6914 29.3086C27.4858 30.3747 28.973 30.7227 30.0805 29.9918C30.7526 29.5469 31.1466 28.6603 30.5794 27.2907C30.6827 27.4417 30.7764 27.5751 30.8686 27.6975C32.0157 29.2562 33.7937 28.3171 33.7937 28.3171C35.2364 27.5402 34.9933 26.2516 34.3625 24.6849C33.7453 23.1332 32.9354 21.6653 31.9522 20.3155C32.5957 19.7133 33.3599 19.1048 34.1655 19.3717C35.0346 19.6609 35.2777 20.7508 35.3762 21.6597C35.4223 22.0823 35.4684 22.5002 35.5145 22.9229L36.2104 29.1449C36.4424 31.2105 36.6744 33.3062 37.178 35.3225C37.4383 36.4127 37.799 37.4764 38.2553 38.5003C38.8937 39.9276 39.7962 41.2215 40.9151 42.3137C42.3105 40.9312 43.5323 39.3839 44.5537 37.7059C45.5305 38.0256 46.3919 38.6255 47.0306 39.4309C47.6693 40.2363 48.0572 41.2118 48.1461 42.2358V42.2882C48.5402 46.0078 44.9588 48.8027 41.9495 50.5219C38.473 52.5207 34.5977 54.0174 30.7907 55.2615C29.2209 55.7763 27.1808 56.2148 25.5235 55.6778C25.345 55.6209 25.1708 55.5513 25.0024 55.4697C23.3499 54.6593 22.2441 52.9608 21.3813 51.4085C17.2502 43.9804 15.5342 35.4512 14.6301 27.0047C16.4383 26.7553 18.2401 26.4772 20.0196 26.0943C20.0196 26.0943 20.0196 26.107 20.0308 26.1118L22.082 29.5136L22.2504 29.7964C22.6953 30.432 23.4659 30.602 24.2016 30.5384C24.6692 30.5152 25.1185 30.3488 25.4886 30.0617C26.6294 29.1084 25.5585 27.815 24.9674 26.9046" fill="#464646"/>
    <path opacity="0.77" d="M27.179 29.8123C27.8829 30.7656 29.0857 30.6449 30.0803 29.9918C30.6809 29.5946 31.1735 29.7106 30.6666 28.4856C30.7604 28.619 30.7731 28.1678 30.8557 28.2679C31.8806 29.6598 30.8684 27.6927 30.8684 27.6927C32.2984 29.4993 35.4111 27.7976 34.8407 26.401C34.2369 24.8963 33.6013 22.6718 32.7958 21.5596C33.4313 20.959 33.309 21.048 34.1177 21.5262C34.3351 21.6659 34.5168 21.854 34.649 22.076C34.7811 22.298 34.8597 22.5476 34.8788 22.8053C34.9439 23.4107 35.0091 23.9906 35.0742 24.5817L35.6939 30.1428C35.902 31.9907 36.1086 33.8576 36.5582 35.6562C36.7907 36.6288 37.1131 37.5777 37.5211 38.4908C38.0899 39.7476 39.9172 41.8402 40.915 42.7983C42.1559 41.5669 43.6431 39.3027 44.5535 37.7981C46.3013 38.3351 46.225 40.0066 46.349 41.8323V41.8799C46.7017 45.1991 43.5049 47.6921 40.826 49.2285C37.7213 51.0128 34.2623 52.3475 30.8637 53.4597C29.4623 53.9205 27.6414 54.3177 26.1621 53.8315C26.0026 53.7812 25.8471 53.719 25.6966 53.6456C24.2221 52.9211 23.2338 51.4069 22.4632 50.0198C19.09 43.9614 17.5249 37.0831 16.6638 30.1873C16.6007 29.6712 16.7402 29.151 17.0532 28.736C17.3662 28.321 17.8283 28.0437 18.3416 27.9628C19.3093 27.8039 20.2737 27.6451 21.2318 27.4321L21.2588 27.4449L23.0892 30.4812C23.488 31.0453 23.5532 30.6036 24.2094 30.5464C24.6241 30.5098 25.4281 30.4288 25.749 30.1603C26.7675 29.3118 26.1923 28.9607 25.6648 28.1487" fill="#464646"/>
  </g>
  <path d="M61.0715 59.0081C61.0715 59.0081 55.7948 57.2731 55.7153 60.1903" stroke="black" stroke-miterlimit="10"/>
  <path opacity="0.54" d="M13.8382 88.7251L3.48978 62.2129C3.36155 61.6999 3.35202 61.1644 3.46181 60.6471C3.57161 60.1298 3.7977 59.6443 4.12327 59.2276C4.44867 58.8108 4.86496 58.4737 5.3402 58.2418C5.81559 58.01 6.33738 57.8896 6.86617 57.8896H47.9707C48.8937 57.8894 49.79 58.2 50.5149 58.7713C51.2399 59.3426 51.7513 60.1414 51.9668 61.0388L63.2956 87.5446C63.4181 88.0559 63.423 88.5883 63.3102 89.1019C63.1974 89.6154 62.9695 90.0967 62.644 90.5095C62.3186 90.9224 61.9035 91.2561 61.4305 91.4857C60.9575 91.7151 60.4386 91.8344 59.9128 91.8346H17.8247C16.9087 91.8352 16.0188 91.5294 15.2965 90.966C14.574 90.4025 14.0608 89.6138 13.8382 88.7251Z" fill="white"/>
  <path d="M62.7891 63.4809C62.7891 63.4809 63.6455 64.2658 63.3198 65.3876C63.0783 66.2185 62.2521 66.7429 61.4338 66.4585C58.828 65.5576 56.4812 64.0275 55.9092 61.4264C55.6389 60.1096 55.5805 58.7579 55.736 57.4225C55.8615 56.1847 56.0443 54.8484 56.4606 53.6711C57.0961 51.8629 59.0425 50.6029 60.9317 51.4737" stroke="black" stroke-miterlimit="10"/>
  <path d="M13.8382 88.7251L3.48978 62.2129C3.36155 61.6999 3.35202 61.1644 3.46181 60.6471C3.57161 60.1298 3.7977 59.6443 4.12327 59.2276C4.44867 58.8108 4.86496 58.4737 5.3402 58.2418C5.81559 58.01 6.33738 57.8896 6.86617 57.8896H47.9707C48.8937 57.8894 49.79 58.2 50.5149 58.7713C51.2399 59.3426 51.7513 60.1414 51.9668 61.0388L63.2956 87.5446C63.4181 88.0559 63.423 88.5883 63.3102 89.1019C63.1974 89.6154 62.9695 90.0967 62.644 90.5095C62.3186 90.9224 61.9035 91.2561 61.4305 91.4857C60.9575 91.7151 60.4386 91.8344 59.9128 91.8346H17.8247C16.9087 91.8352 16.0188 91.5294 15.2965 90.966C14.574 90.4025 14.0608 89.6138 13.8382 88.7251Z" fill="#464646"/>
  <path d="M13.8382 88.7251L3.48978 62.2129C3.36155 61.6999 3.35202 61.1644 3.46181 60.6471C3.57161 60.1298 3.7977 59.6443 4.12327 59.2276C4.44867 58.8108 4.86496 58.4737 5.3402 58.2418C5.81559 58.01 6.33738 57.8896 6.86617 57.8896H47.9707C48.8937 57.8894 49.79 58.2 50.5149 58.7713C51.2399 59.3426 51.7513 60.1414 51.9668 61.0388L63.2956 87.5446C63.4181 88.0559 63.423 88.5883 63.3102 89.1019C63.1974 89.6154 62.9695 90.0967 62.644 90.5095C62.3186 90.9224 61.9035 91.2561 61.4305 91.4857C60.9575 91.7151 60.4386 91.8344 59.9128 91.8346H17.8247C16.9087 91.8352 16.0188 91.5294 15.2965 90.966C14.574 90.4025 14.0608 89.6138 13.8382 88.7251Z" stroke="black" stroke-linecap="square" stroke-linejoin="round"/>
  <path d="M15.3529 87.6574L5.80531 63.1885C5.68742 62.7152 5.67868 62.2212 5.78005 61.7441C5.88158 61.2669 6.09036 60.819 6.39066 60.4347C6.69096 60.0503 7.07499 59.7394 7.51353 59.5255C7.9519 59.3117 8.43334 59.2004 8.92112 59.2004H46.8415C47.693 59.2001 48.5197 59.4866 49.1885 60.0135C49.8573 60.5404 50.329 61.2771 50.5278 62.1049L60.9811 86.5595C61.094 87.0314 61.0985 87.5227 60.9941 87.9965C60.8899 88.4703 60.6797 88.9143 60.3792 89.2951C60.0787 89.676 59.6958 89.9839 59.2593 90.1955C58.8229 90.4073 58.3442 90.5173 57.8589 90.5174H19.0296C18.1859 90.5182 17.3661 90.2372 16.7 89.7192C16.0341 89.201 15.56 88.4756 15.3529 87.6574Z" fill="#464646"/>
  <path d="M96.5088 83.8186L103.78 100.643" stroke="black" stroke-miterlimit="10"/>
  <path d="M135 101L0 101" stroke="black" stroke-miterlimit="10"/>
  <path d="M63.372 24.7072C62.193 25.8719 60.4325 25.8703 59.4299 24.793" stroke="black" stroke-miterlimit="10"/>
  <path d="M31.9519 20.3107C32.5954 19.7086 33.3597 19.1 34.1652 19.3669C35.0343 19.6561 35.2774 20.7461 35.376 21.6549C35.6545 24.1527 35.9325 26.6479 36.2101 29.1402C36.5629 32.318 36.9347 35.572 38.255 38.4924C38.8936 39.9197 39.7959 41.2135 40.9148 42.3057" stroke="black" stroke-miterlimit="10"/>
  <path d="M48.1459 42.2867V42.2343C48.0571 41.2102 47.6693 40.2348 47.0305 39.4294C46.3918 38.6242 45.5305 38.0242 44.5535 37.7043C43.5323 39.3824 42.3104 40.9298 40.9149 42.3121C37.2562 45.9502 32.5562 48.3596 27.4665 49.2063C27.7112 50.1803 28.2149 51.0669 28.5629 52.0043C28.9108 52.9418 29.084 54.027 28.6614 54.9311C28.1275 56.0846 26.5958 55.9337 25.5313 55.6779C25.5202 55.6779 25.5138 55.6779 25.5027 55.6779" stroke="black" stroke-miterlimit="10"/>
  <path d="M20.0226 26.0927C18.243 26.4757 16.4412 26.7537 14.6331 27.0032C15.5371 35.4497 17.2468 43.9789 21.3842 51.4069C22.247 52.9593 23.3529 54.6578 25.0053 55.4681C25.1739 55.5499 25.348 55.6195 25.5265 55.6763C27.1837 56.2212 29.2238 55.7748 30.7936 55.26C34.607 54.0143 38.4759 52.5191 41.9524 50.5203C44.9538 48.7996 48.5352 46.0063 48.1491 42.2867C48.1117 41.8771 48.028 41.473 47.8996 41.0823" stroke="black" stroke-miterlimit="10"/>
  <path d="M49.7791 9.24414C50.0457 10.356 50.6544 11.3561 51.5195 12.1035C52.3847 12.8511 53.4626 13.308 54.6013 13.4102C54.6959 12.9515 54.901 12.5228 55.1988 12.1613C56.4699 10.663 57.0117 13.4738 61.0776 11.4559C66.7118 8.65307 68.8505 10.261 68.8505 10.261C69.038 10.4009 69.0094 11.691 69.0411 11.9262C69.2 13.2656 69.343 14.5987 69.5003 15.9365C69.5957 16.7532 69.6894 17.5636 69.7784 18.3739C69.8551 18.2361 69.94 18.1028 70.0326 17.9751C70.5458 16.159 71.4626 14.014 73.4392 14.9371C73.8394 15.1324 74.1879 15.4192 74.4561 15.7745C75.7669 17.4968 74.7739 19.1604 73.4027 20.3918C73.059 20.7739 72.6749 21.1174 72.2571 21.4166C72.4827 21.8838 73.4042 23.738 73.4042 23.7443C73.4996 23.9318 76.7203 20.2869 76.9602 19.8897C77.3186 18.9167 77.511 17.8902 77.529 16.8533C77.5814 12.5903 75.8464 7.62824 72.3937 5.18294C71.5373 4.57757 71.8106 3.99445 71.7582 3.17141C71.7545 3.12692 71.7375 3.08466 71.7094 3.05002C71.6811 3.01538 71.6431 2.99011 71.6002 2.97756C71.5573 2.96501 71.5117 2.9658 71.4693 2.97963C71.4269 2.99361 71.3897 3.01999 71.3625 3.05542C70.2805 4.30111 67.6016 4.17717 67.6016 4.17717C58.3034 1.84786 55.1781 5.98215 53.3016 6.7194C52.5361 7.00953 51.6932 7.02351 50.9183 6.75912C50.8727 7.01572 50.7578 7.25485 50.5862 7.45092C50.4146 7.64699 50.1926 7.79237 49.9443 7.87134L49.992 8.30193C50.0325 8.6313 49.9572 8.96433 49.7791 9.24414Z" fill="#464646"/>
  <path d="M54.6079 13.4166C53.4692 13.3143 52.3913 12.8573 51.5261 12.1099C50.661 11.3625 50.0523 10.3623 49.7856 9.25051C49.6813 8.82405 49.6153 8.38901 49.5886 7.9508L49.6617 7.94285C49.7617 7.93538 49.86 7.91394 49.9541 7.8793C50.2024 7.80017 50.4244 7.65479 50.596 7.45872C50.7676 7.26281 50.8825 7.02352 50.9281 6.76708C50.9571 6.62487 50.963 6.47885 50.9455 6.3349L50.7072 4.23121C50.7072 4.23121 52.3882 5.48166 54.2536 4.75077C56.119 4.01989 59.2507 -0.114403 68.5536 2.20855C68.5536 2.20855 70.6541 2.33249 71.7314 1.0868C71.7586 1.05121 71.7957 1.02483 71.8382 1.01101C71.8806 0.997027 71.9262 0.996391 71.9691 1.00894C72.0118 1.0215 72.05 1.04676 72.0781 1.08124C72.1064 1.11587 72.1234 1.1583 72.127 1.20279C72.1826 2.02742 72.4877 2.61054 73.3457 3.21432C76.7983 5.66121 78.5334 10.6217 78.4794 14.8847C78.4635 16.6531 77.8756 18.3993 76.9684 19.8977C76.7284 20.2949 73.5078 23.9398 73.4124 23.7523C73.4124 23.7523 72.4909 21.8917 72.2652 21.4246L72.2112 21.3213L72.3145 21.253C72.6981 20.9926 73.0643 20.7075 73.4108 20.3997C74.7805 19.1684 75.7751 17.5048 74.4643 15.7824C74.1961 15.4272 73.8476 15.1402 73.4474 14.9451C71.4644 14.0219 70.554 16.1669 70.0408 17.983C69.9412 18.3301 69.8798 18.6871 69.8581 19.0476C69.8342 18.8252 69.8104 18.6107 69.7866 18.3882C69.6976 17.5779 69.6039 16.7675 69.5085 15.9509C69.3496 14.613 69.2003 13.2799 69.0493 11.9405C69.0255 11.7117 69.0493 10.4152 68.8587 10.2753C68.8587 10.2753 66.7184 8.66739 61.0858 11.4702C57.0199 13.4881 56.478 10.6757 55.2069 12.1757C54.9092 12.5371 54.7041 12.9658 54.6095 13.4245C54.5804 13.5718 54.5618 13.721 54.5539 13.871C54.5509 13.8904 54.5509 13.9102 54.5539 13.9298C54.5348 14.2587 54.5285 14.586 54.5205 14.907C54.4903 18.0037 54.8304 21.2387 56.0459 24.1146C57.5235 27.6006 61.4338 31.0389 65.4998 29.4135C66.7709 28.9035 67.9101 28.082 68.9524 27.2097" stroke="black" stroke-miterlimit="10"/>
  <path d="M57.3903 20.9694C57.7949 20.834 57.99 20.3276 57.8262 19.8384C57.6625 19.349 57.2019 19.062 56.7975 19.1974C56.393 19.3326 56.1979 19.839 56.3617 20.3284C56.5254 20.8178 56.986 21.1047 57.3903 20.9694Z" fill="black"/>
  <path d="M63.4399 20.776C63.8444 20.6408 64.0396 20.1344 63.8757 19.645C63.7121 19.1556 63.2515 18.8687 62.8471 19.004C62.4426 19.1394 62.2474 19.6458 62.4113 20.135C62.5749 20.6244 63.0355 20.9114 63.4399 20.776Z" fill="black"/>
  <path d="M61.1272 21.8234C61.1272 21.8234 59.1141 22.9658 58.9917 21.7805C58.9536 21.415 58.4611 17.8352 58.4611 17.8352C58.4611 17.8352 56.834 16.1113 54.3411 17.3856" stroke="black" stroke-miterlimit="10"/>
  <path d="M60.6743 16.8327C60.6743 16.8327 63.9252 15.2088 66.0765 17.5493" stroke="black" stroke-miterlimit="10"/>
  <path d="M63.655 29.8123L64.0284 31.7285C62.851 32.8137 62.0185 34.3692 62.2616 36.0074C62.4777 37.4596 63.6661 38.8118 64.8848 39.5729C66.9218 40.844 69.6308 40.7439 71.8235 39.9351C73.9669 39.1407 75.8211 37.6328 77.1653 35.7929C77.7984 34.9034 78.22 33.8813 78.3983 32.8042V32.7851" stroke="black" stroke-miterlimit="10"/>
  <path d="M64.0283 31.7285L64.756 35.1891" stroke="black" stroke-miterlimit="10"/>
  <path d="M74.3199 22.9181L75.4194 30.2191C75.5278 30.9337 75.8891 31.5858 76.4375 32.0566C76.9859 32.5275 77.6851 32.7861 78.4081 32.7851C81.8299 33.3396 85.2057 34.149 88.5071 35.2066C101.404 39.3663 109.342 50.9842 111.584 63.9655C112.517 69.4011 112.587 75.102 111.416 80.5074C110.75 83.5501 109.787 86.9678 107.551 89.2463C104.649 92.2175 100.193 90.9941 96.7629 89.6514C86.1126 85.5092 77.2546 78.1399 69.6056 69.7029C65.5158 65.1905 60.2312 61.5742 60.2312 61.5742" stroke="black" stroke-miterlimit="10"/>
  <path d="M18.8724 82.1805C17.6775 82.1694 16.6368 81.2049 16.3683 79.8623C15.8376 77.2216 15.6978 73.1381 19.5699 72.2468C24.4081 71.1346 28.1292 76.4033 29.9533 79.7336C30.5666 80.8458 29.8722 82.2758 28.7298 82.2758L18.8724 82.1805Z" fill="#D1A88B"/>
  <path d="M20.4695 70.0048C21.4967 69.3213 21.5124 67.5395 20.5046 66.0251C19.4969 64.5106 17.8473 63.8369 16.8201 64.5204C15.7929 65.204 15.7772 66.9858 16.785 68.5001C17.7927 70.0147 19.4423 70.6884 20.4695 70.0048Z" fill="#D1A88B"/>
  <path d="M99.9802 93.7142C99.9056 93.7254 99.8214 93.7365 99.7483 93.754H99.7197L88.4179 93.6952L71.4597 93.6078C71.3945 93.6078 71.331 93.6078 71.2674 93.6078C71.1416 93.6048 71.0159 93.5952 70.8909 93.5792C72.04 93.4457 73.105 92.9112 73.8986 92.0699C74.6923 91.2286 75.1639 90.1342 75.2301 88.9793C75.2335 88.9196 75.2335 88.8595 75.2301 88.7998V88.7076C75.2255 87.5778 74.8318 86.484 74.1154 85.6103C73.3988 84.7367 72.4032 84.1364 71.296 83.9108C71.1801 83.8822 71.0529 83.8647 70.9306 83.8472C71.1228 83.8298 71.3135 83.817 71.4994 83.817L85.8264 83.8933L88.464 83.9044L92.0215 83.9219C93.2397 84.0331 94.3724 84.5946 95.1985 85.4967C96.0246 86.3988 96.4842 87.5767 96.4879 88.7998C96.488 89.0307 96.4706 89.2612 96.4354 89.4894C96.2662 90.6539 95.6845 91.7187 94.7963 92.4906C93.9082 93.2625 92.7724 93.6899 91.5957 93.6952H100.204C99.7086 93.6952 99.8468 93.6952 99.9802 93.7142Z" fill="white"/>
  <path d="M77.0556 99.6233C77.3783 99.9479 77.7623 100.205 78.1855 100.38C78.6084 100.556 79.062 100.645 79.52 100.643H71.1974C69.6085 100.643 68.7409 100.256 68.1086 99.6233C67.4587 98.9706 67.0926 98.0878 67.0901 97.1669C67.0901 95.2602 68.6536 93.6968 71.1974 93.6968H79.52C78.8328 93.6957 78.1608 93.8986 77.5891 94.2799C77.0176 94.6611 76.5719 95.2035 76.3088 95.8381C76.0457 96.4729 75.9771 97.1715 76.1113 97.8454C76.2457 98.5192 76.577 99.1379 77.0634 99.6233H77.0556Z" fill="#D1A88B"/>
  <path d="M104.542 88.8872C104.54 89.6211 104.369 90.3447 104.043 91.002C103.81 91.499 103.49 91.9504 103.099 92.3351C102.454 92.9744 101.643 93.4217 100.758 93.6268C100.394 93.7111 100.021 93.7538 99.6462 93.754C99.7225 93.7365 99.8051 93.7254 99.8782 93.7142C99.7448 93.7015 99.6065 93.6968 100.104 93.6968H91.4937C92.6712 93.6923 93.8079 93.2649 94.6967 92.4927C95.5857 91.7205 96.1675 90.6547 96.3366 89.4894C96.3717 89.2612 96.3892 89.0307 96.389 88.7998C96.3854 87.5765 95.9254 86.3983 95.099 85.4963C94.2728 84.5942 93.1396 84.0327 91.9211 83.9219L96.5686 83.9457L99.6732 83.9632C100.971 83.9742 102.211 84.4982 103.123 85.4209C104.036 86.3435 104.545 87.5897 104.542 88.8872Z" fill="#464646"/>
  <path d="M104.542 88.8856C104.532 90.1839 104.008 91.4253 103.085 92.3381C102.162 93.2509 100.914 93.7606 99.6162 93.7556L71.3467 93.6094C71.1576 93.6094 70.9685 93.5951 70.7778 93.576C71.9695 93.441 73.0703 92.8736 73.8714 91.9811C74.6727 91.0888 75.1187 89.9335 75.1249 88.7342C75.1311 87.5351 74.6973 86.3752 73.9054 85.4744C73.1137 84.5737 72.0189 83.9947 70.8287 83.8472C71.0178 83.8274 71.2076 83.8179 71.3975 83.8186L99.667 83.9648C100.965 83.9737 102.207 84.4965 103.121 85.4187C104.034 86.3408 104.545 87.5875 104.542 88.8856Z" stroke="black" stroke-linecap="square" stroke-linejoin="round"/>
  <path d="M96.3859 88.7983C96.3834 90.0962 95.8667 91.3403 94.9489 92.2581C94.031 93.176 92.7869 93.6927 91.489 93.6952H71.3752C71.1852 93.6941 70.9953 93.6835 70.8064 93.6634C71.9973 93.522 73.0949 92.9487 73.8912 92.0523C74.6876 91.1557 75.1275 89.9982 75.1275 88.7991C75.1275 87.5999 74.6876 86.4424 73.8912 85.5458C73.0949 84.6494 71.9973 84.0761 70.8064 83.9347C70.9955 83.9172 71.1861 83.9045 71.3752 83.9045H91.489C92.7863 83.9073 94.0296 84.4239 94.9473 85.3408C95.8649 86.2579 96.3821 87.5009 96.3859 88.7983Z" stroke="black" stroke-linecap="square" stroke-linejoin="round"/>
  <path d="M67.0901 97.1685C67.0899 97.6242 67.1797 98.0754 67.3542 98.4965C67.5286 98.9174 67.7844 99.2998 68.1068 99.6217C68.7424 100.257 69.6051 100.643 71.1956 100.643H100.102C99.6049 100.643 99.74 100.634 99.8751 100.621C99.0293 100.522 98.2495 100.115 97.6835 99.4786C97.1177 98.8422 96.805 98.0201 96.805 97.1685C96.805 96.3169 97.1177 95.4949 97.6835 94.8584C98.2495 94.2221 99.0293 93.8155 99.8751 93.7159C99.74 93.7031 99.6049 93.6936 100.102 93.6936H71.1956C68.6502 93.6952 67.0901 95.2587 67.0901 97.1685Z" stroke="black" stroke-linecap="square" stroke-linejoin="round"/>
  <path d="M76.0354 97.1685C76.0376 98.0894 76.4043 98.9721 77.0555 99.6233C77.7067 100.275 78.5894 100.641 79.5103 100.643H99.4715C99.605 100.643 99.74 100.634 99.8751 100.621C99.0293 100.522 98.2495 100.115 97.6835 99.4786C97.1176 98.8422 96.805 98.0201 96.805 97.1685C96.805 96.3169 97.1176 95.4949 97.6835 94.8584C98.2495 94.2221 99.0293 93.8155 99.8751 93.7159C99.74 93.7031 99.605 93.6936 99.4715 93.6936H79.5103C78.5895 93.6961 77.7071 94.063 77.0559 94.7142C76.4048 95.3653 76.0379 96.2477 76.0354 97.1685Z" stroke="black" stroke-linecap="square" stroke-linejoin="round"/>
  <path d="M43.6775 70.6563H34.7607C34.3528 70.6557 33.9538 70.5362 33.6125 70.3128C33.2711 70.0894 33.0021 69.7716 32.8381 69.3979C32.7749 69.2589 32.7479 69.106 32.7595 68.9537C32.7712 68.8013 32.8213 68.6545 32.9048 68.5266C32.9886 68.3988 33.1033 68.2943 33.2383 68.2226C33.3734 68.1511 33.5243 68.1149 33.677 68.1173H43.1564C42.7099 68.8688 42.9371 69.9127 43.6775 70.6563Z" fill="#D1A88B"/>
  <path d="M49.4436 69.7379C49.4431 69.981 49.3465 70.214 49.1746 70.3857C49.0028 70.5577 48.7697 70.6544 48.5268 70.6547H43.6775C42.9371 69.9127 42.7099 68.8688 43.1564 68.1125H47.4384C47.846 68.1127 48.2446 68.231 48.5861 68.4532C48.9277 68.6755 49.1975 68.9921 49.3626 69.3646C49.4139 69.4825 49.4414 69.6094 49.4436 69.7379Z" fill="#464646"/>
  <path d="M47.2128 70.6563C47.1877 70.7048 47.1585 70.751 47.1254 70.7945C46.4898 71.6637 45.1091 71.7479 44.0366 70.963C43.9098 70.8694 43.7898 70.7669 43.6775 70.6563C42.9371 69.9143 42.7099 68.8704 43.1564 68.1141C43.1815 68.0656 43.2107 68.0194 43.2437 67.9759C43.8793 67.1004 45.2537 67.0225 46.3262 67.8011C46.4552 67.8977 46.5769 68.004 46.69 68.1189C47.4241 68.8577 47.6529 69.8952 47.2128 70.6563Z" fill="white"/>
  <path d="M51.6855 75.3355C51.6838 75.5788 51.5861 75.8116 51.4134 75.983C51.2406 76.1545 51.0072 76.2507 50.764 76.2507H41.407C41.8583 75.4913 41.6326 74.4553 40.8906 73.7085H49.6804C50.0884 73.7087 50.4877 73.8275 50.8294 74.0506C51.1711 74.2738 51.4404 74.5916 51.6045 74.9653C51.6568 75.0818 51.6844 75.2078 51.6855 75.3355Z" fill="#464646"/>
  <path d="M41.4075 76.2508H37.0047C36.5971 76.2511 36.1982 76.1329 35.8566 75.9106C35.515 75.6883 35.2453 75.3715 35.0805 74.9988C35.0286 74.8821 35.0009 74.7563 34.9995 74.6286C34.9992 74.5083 35.0229 74.3893 35.0688 74.278C35.1147 74.167 35.1821 74.0661 35.2671 73.9809C35.3521 73.8959 35.4531 73.8285 35.5642 73.7826C35.6753 73.7367 35.7944 73.7132 35.9147 73.7133H40.8911C41.6331 74.4554 41.8635 75.4913 41.4075 76.2508Z" fill="#D1A88B"/>
  <path d="M41.4076 76.2508C41.3868 76.3007 41.3596 76.3477 41.3265 76.3906C40.691 77.2645 39.315 77.3439 38.2441 76.5638C38.1144 76.4672 37.9923 76.3609 37.8787 76.246C37.143 75.504 36.9174 74.468 37.3575 73.7038C37.3829 73.6548 37.412 73.6081 37.4449 73.5639C38.0804 72.6948 39.4612 72.6106 40.5321 73.3971C40.6595 73.4897 40.7796 73.5922 40.8912 73.7038C41.6332 74.4553 41.8636 75.4913 41.4076 76.2508Z" fill="white"/>
  <path d="M44.5247 81.8071H38.9222C38.5149 81.8066 38.1164 81.6881 37.7748 81.466C37.4333 81.2438 37.1635 80.9273 36.9981 80.5551C36.935 80.4156 36.9082 80.2624 36.9199 80.1099C36.9318 79.9572 36.9819 79.81 37.0656 79.6818C37.1495 79.5537 37.2642 79.4487 37.3993 79.3767C37.5344 79.3046 37.6855 79.2679 37.8386 79.2697H44.0035C43.5618 80.0307 43.789 81.0651 44.5247 81.8071Z" fill="#464646"/>
  <path d="M53.6035 80.8983C53.6023 81.1399 53.5053 81.3714 53.3337 81.5418C53.1621 81.7121 52.9302 81.8074 52.6883 81.8071H44.5246C43.789 81.0651 43.5618 80.0291 44.0035 79.2649H51.5984C52.0065 79.2649 52.4057 79.3839 52.7474 79.607C53.0891 79.8302 53.3584 80.148 53.5225 80.5217C53.5749 80.6404 53.6024 80.7685 53.6035 80.8983Z" fill="#D1A88B"/>
  <path d="M48.0603 81.8071C48.0348 81.8559 48.0056 81.9026 47.9729 81.9469C47.3373 82.8208 45.9629 82.9003 44.8904 82.1201C44.7616 82.023 44.64 81.9169 44.5266 81.8023C43.7909 81.0603 43.5637 80.0244 44.0054 79.2601C44.0297 79.211 44.0583 79.1641 44.0912 79.1203C44.7268 78.2512 46.1075 78.1765 47.18 78.9534C47.3075 79.0461 47.4276 79.1486 47.5391 79.2601C48.2795 80.0117 48.5052 81.054 48.0603 81.8071Z" fill="white"/>
  <path d="M5.7334 31.1518L5.87322 31.1915L5.82079 31.3949C5.78758 31.3154 5.7585 31.2342 5.7334 31.1518Z" fill="#FB984C"/>
  <path d="M30.599 43.8635C32.6904 43.2495 33.7895 40.7197 33.0537 38.2131C32.3179 35.7066 30.0259 34.1722 27.9343 34.7861C25.8428 35.4003 24.7438 37.9299 25.4796 40.4366C26.2154 42.9432 28.5075 44.4774 30.599 43.8635Z" fill="#D1A88B"/>
</svg>
