<svg width="72" height="23" viewBox="0 0 72 23" fill="none" xmlns="http://www.w3.org/2000/svg">
  <g clip-path="url(#clip0)">
    <path d="M21.9948 8.20053C21.8813 8.08678 21.6972 8.08678 21.5837 8.20053L19.7728 10.0144C19.7256 10.0617 19.6961 10.1237 19.6892 10.1901C19.545 11.5718 18.9256 12.8737 17.9448 13.856L17.5145 14.287L14.3877 11.1551C14.5855 11.2019 14.779 11.2255 14.967 11.2255C15.2428 11.2255 15.5067 11.175 15.7546 11.0734C15.9032 11.0125 15.9744 10.8425 15.9136 10.6936C15.8528 10.5447 15.683 10.4735 15.5344 10.5344C14.3371 11.025 12.9568 9.7192 12.783 9.54774L11.9521 8.71556C12.0553 8.2774 11.9662 7.80717 11.701 7.42515C11.4011 6.99336 10.9244 6.74574 10.391 6.74574L8.37867 6.76016C8.37688 6.76016 8.37509 6.76016 8.37335 6.76016C8.18071 6.76016 7.99956 6.68539 7.86273 6.54929C7.72466 6.41192 7.64862 6.22891 7.64866 6.03389V6.00356C7.64875 5.61231 7.95461 5.29373 8.34495 5.27832L12.0097 5.1337C13.3322 5.08155 14.6505 5.48387 15.7197 6.2665C15.8354 6.35117 15.9955 6.33881 16.0968 6.23729L18.0215 4.3094C18.1351 4.19569 18.1351 4.01129 18.0216 3.89759C17.908 3.78384 17.7239 3.78384 17.6104 3.89759L15.8582 5.65263C14.7222 4.88747 13.3571 4.49774 11.9868 4.55173L8.32205 4.69635C8.31341 4.69671 8.30496 4.69747 8.29642 4.69801L6.90596 3.30531C6.79244 3.19156 6.60833 3.19156 6.49481 3.30531C6.38125 3.41902 6.38125 3.60342 6.49481 3.71713L7.67349 4.89773C7.3077 5.12953 7.06733 5.5379 7.0672 6.00352V6.03385C7.06711 6.38518 7.20416 6.715 7.45298 6.96258C7.70185 7.21015 8.03181 7.34513 8.38283 7.34258L10.3931 7.32816C10.8562 7.32816 11.1122 7.59728 11.2236 7.75771C11.3084 7.87988 11.3653 8.01563 11.3929 8.1555L11.2933 8.05568C11.1798 7.94193 10.9957 7.94193 10.8821 8.05568C10.7686 8.16939 10.7686 8.35379 10.8821 8.4675L17.4422 15.0383C17.7255 15.322 17.7255 15.7838 17.4422 16.0675C17.1591 16.3511 16.6984 16.3512 16.4152 16.0679L12.2367 11.8826C12.1232 11.7688 11.9391 11.7688 11.8256 11.8826C11.712 11.9963 11.712 12.1807 11.8256 12.2944L16.3262 16.8024C16.6095 17.0861 16.6095 17.5479 16.3262 17.8316C16.189 17.969 16.0066 18.0448 15.8125 18.0448C15.6184 18.0448 15.436 17.969 15.2988 17.8316L11.0323 13.5581C10.9187 13.4444 10.7347 13.4444 10.6212 13.5581C10.5076 13.6718 10.5076 13.8562 10.6212 13.9699L14.1172 17.4717C14.4002 17.7555 14.4001 18.2169 14.1169 18.5006C13.8336 18.7843 13.3727 18.7843 13.0894 18.5006L9.29251 14.6975C9.17899 14.5837 8.99489 14.5837 8.88137 14.6975C8.76781 14.8112 8.76781 14.9956 8.88137 15.1093L11.6978 17.9303L11.6978 17.9303C11.9811 18.2141 11.9811 18.6757 11.6978 18.9595C11.4146 19.2432 10.9536 19.2432 10.6704 18.9595L5.57498 13.856C4.59427 12.8737 3.97479 11.5718 3.83067 10.1901C3.82374 10.1237 3.79427 10.0617 3.74708 10.0144L1.4163 7.6798C1.30278 7.56605 1.11868 7.56605 1.00516 7.6798C0.891592 7.79351 0.891592 7.97791 1.00516 8.09161L3.26401 10.3542C3.4415 11.8297 4.11367 13.2159 5.16384 14.2678L5.5926 14.6972C5.43297 14.9186 5.3466 15.1836 5.3466 15.4621C5.3466 15.812 5.48266 16.141 5.7297 16.3885C5.98469 16.6439 6.31961 16.7716 6.65458 16.7716C6.68755 16.7716 6.72047 16.77 6.75334 16.7675C6.74212 16.837 6.73608 16.9079 6.73608 16.9797C6.73608 17.3297 6.87214 17.6587 7.11917 17.9061C7.37417 18.1616 7.70909 18.2893 8.04406 18.2893C8.10923 18.2893 8.1744 18.2843 8.23899 18.2746C8.17972 18.6718 8.30223 19.0912 8.60683 19.3963C8.85386 19.6437 9.18235 19.78 9.53172 19.78C9.84311 19.78 10.1377 19.6715 10.3731 19.4727C10.6099 19.6605 10.8969 19.7546 11.1841 19.7546C11.519 19.7546 11.854 19.6269 12.109 19.3715C12.299 19.1812 12.418 18.9465 12.4665 18.7004L12.6782 18.9125C12.9332 19.1679 13.2681 19.2956 13.6031 19.2956C13.938 19.2956 14.2731 19.1679 14.5281 18.9125C14.718 18.7222 14.8371 18.4875 14.8855 18.2414L14.8876 18.2434C15.1346 18.4909 15.4631 18.6272 15.8125 18.6272C16.1619 18.6272 16.4904 18.4909 16.7375 18.2434C17.1109 17.8694 17.2105 17.3237 17.037 16.8577C17.3349 16.833 17.626 16.7071 17.8534 16.4793C18.3391 15.9929 18.3619 15.2161 17.9226 14.702L18.356 14.2678C19.4062 13.2159 20.0783 11.8296 20.2559 10.3541L21.9948 8.61229C22.1084 8.49859 22.1084 8.31423 21.9948 8.20053ZM6.14088 15.9766C6.00366 15.8392 5.92807 15.6564 5.92807 15.4621C5.92807 15.3403 5.95772 15.2232 6.01354 15.1189L6.9972 16.1041C6.89307 16.1601 6.77611 16.1898 6.65458 16.1898C6.46055 16.1898 6.27811 16.1141 6.14088 15.9766ZM7.53036 17.4944C7.39313 17.3569 7.31754 17.1742 7.31754 16.9798C7.31754 16.8269 7.36491 16.6816 7.45168 16.5595L8.46361 17.573C8.18017 17.7743 7.78415 17.7485 7.53036 17.4944ZM9.01802 18.9845C8.76423 18.7303 8.73855 18.3336 8.93947 18.0497L9.9514 19.0633C9.82947 19.1501 9.68437 19.1976 9.53172 19.1976C9.33769 19.1976 9.15524 19.1219 9.01802 18.9845Z" fill="#FB984C"/>
  </g>
  <path fill-rule="evenodd" clip-rule="evenodd" d="M11.5 23C17.8513 23 23 17.8513 23 11.5C23 5.14872 17.8513 0 11.5 0C5.14872 0 0 5.14872 0 11.5C0 17.8513 5.14872 23 11.5 23ZM11.4999 22.08C17.3431 22.08 22.0799 17.3432 22.0799 11.5C22.0799 5.65682 17.3431 0.919996 11.4999 0.919996C5.65672 0.919996 0.919896 5.65682 0.919896 11.5C0.919896 17.3432 5.65672 22.08 11.4999 22.08Z" fill="#EC8A2F"/>
  <path d="M31.303 7.42C32.6463 7.42 33.6907 7.79267 34.436 8.538C35.19 9.27467 35.567 10.332 35.567 11.71C35.567 13.088 35.19 14.1497 34.436 14.895C33.6907 15.6317 32.6463 16 31.303 16H28.274V7.42H31.303ZM31.303 14.817C32.213 14.817 32.9063 14.5483 33.383 14.011C33.8683 13.465 34.111 12.698 34.111 11.71C34.111 10.722 33.8683 9.95933 33.383 9.422C32.9063 8.876 32.213 8.603 31.303 8.603H29.665V14.817H31.303ZM37.3847 16V9.5H38.5677L38.6977 10.67C39.053 9.80333 39.7333 9.37 40.7387 9.37C40.8687 9.37 40.9987 9.383 41.1287 9.409C41.2587 9.42633 41.367 9.45667 41.4537 9.5L41.2587 10.722C41.1633 10.6873 41.055 10.6613 40.9337 10.644C40.821 10.618 40.665 10.605 40.4657 10.605C40.1883 10.605 39.9197 10.6787 39.6597 10.826C39.4083 10.9647 39.196 11.1813 39.0227 11.476C38.858 11.762 38.7757 12.1217 38.7757 12.555V16H37.3847ZM46.3848 11.827C46.3848 11.3937 46.2635 11.06 46.0208 10.826C45.7868 10.5833 45.4618 10.462 45.0458 10.462C44.6558 10.462 44.3178 10.553 44.0318 10.735C43.7545 10.917 43.5552 11.2117 43.4338 11.619L42.2638 11.125C42.4285 10.5963 42.7492 10.1717 43.2258 9.851C43.7112 9.53033 44.3352 9.37 45.0978 9.37C45.6092 9.37 46.0642 9.45667 46.4628 9.63C46.8702 9.79467 47.1865 10.0503 47.4118 10.397C47.6458 10.735 47.7628 11.164 47.7628 11.684V14.583C47.7628 14.9037 47.9232 15.064 48.2438 15.064C48.3998 15.064 48.5515 15.0423 48.6988 14.999L48.6208 15.961C48.4215 16.0563 48.1702 16.104 47.8668 16.104C47.5202 16.104 47.2212 16.026 46.9698 15.87C46.7185 15.714 46.5495 15.48 46.4628 15.168C46.2548 15.4887 45.9558 15.7313 45.5658 15.896C45.1758 16.052 44.7858 16.13 44.3958 16.13C43.7805 16.13 43.2692 15.9827 42.8618 15.688C42.4545 15.3933 42.2508 14.9513 42.2508 14.362C42.2508 13.8853 42.4068 13.491 42.7188 13.179C43.0395 12.867 43.4902 12.6503 44.0708 12.529L46.3848 12.074V11.827ZM43.6548 14.258C43.6548 14.5007 43.7458 14.6957 43.9278 14.843C44.1185 14.9817 44.3698 15.051 44.6818 15.051C44.9765 15.051 45.2538 15.0033 45.5138 14.908C45.7738 14.8127 45.9818 14.6567 46.1378 14.44C46.3025 14.2233 46.3848 13.9417 46.3848 13.595V13.049L44.7468 13.387C44.3742 13.4563 44.0968 13.556 43.9148 13.686C43.7415 13.816 43.6548 14.0067 43.6548 14.258ZM52.3559 16.13C51.9312 16.13 51.5369 16.052 51.1729 15.896C50.8176 15.74 50.5316 15.4887 50.3149 15.142C50.0982 14.7953 49.9899 14.3447 49.9899 13.79V9.5H51.3809V13.439C51.3809 14.0283 51.5022 14.4357 51.7449 14.661C51.9962 14.8777 52.3516 14.986 52.8109 14.986C53.1056 14.986 53.3829 14.921 53.6429 14.791C53.9029 14.6523 54.1109 14.44 54.2669 14.154C54.4316 13.8593 54.5139 13.4823 54.5139 13.023V9.5H55.9049V16H54.6829L54.6179 14.947C54.3926 15.3543 54.0892 15.6533 53.7079 15.844C53.3266 16.0347 52.8759 16.13 52.3559 16.13ZM61.744 14.986C62.4027 14.986 62.914 15.1333 63.278 15.428C63.642 15.714 63.824 16.1127 63.824 16.624C63.824 17.0833 63.681 17.4733 63.395 17.794C63.109 18.1233 62.719 18.3703 62.225 18.535C61.731 18.7083 61.172 18.795 60.548 18.795C59.4734 18.795 58.6804 18.6303 58.169 18.301C57.6664 17.9717 57.415 17.56 57.415 17.066C57.415 16.7713 57.5017 16.507 57.675 16.273C57.8484 16.039 58.1344 15.8787 58.533 15.792C58.2904 15.688 58.0997 15.545 57.961 15.363C57.8224 15.1723 57.753 14.9297 57.753 14.635C57.753 14.349 57.8354 14.0977 58 13.881C58.1647 13.6557 58.4074 13.4867 58.728 13.374C58.0434 12.984 57.701 12.3817 57.701 11.567C57.701 10.9083 57.9567 10.3797 58.468 9.981C58.9794 9.57367 59.6554 9.37 60.496 9.37C61.042 9.37 61.523 9.45667 61.939 9.63C62.0084 9.19667 62.199 8.84133 62.511 8.564C62.823 8.278 63.2174 8.135 63.694 8.135C63.7374 8.135 63.772 8.135 63.798 8.135L64.019 9.227C63.9757 9.21833 63.9237 9.214 63.863 9.214C63.1177 9.214 62.7017 9.487 62.615 10.033C63.0744 10.4317 63.304 10.943 63.304 11.567C63.304 12.2343 63.0484 12.7673 62.537 13.166C62.0257 13.5647 61.3454 13.764 60.496 13.764C60.1407 13.764 59.8157 13.7337 59.521 13.673C59.287 13.7337 59.118 13.829 59.014 13.959C58.9187 14.0803 58.871 14.2103 58.871 14.349C58.871 14.7737 59.1787 14.986 59.794 14.986H61.744ZM60.496 10.345C60.0974 10.345 59.7637 10.4577 59.495 10.683C59.235 10.8997 59.105 11.1943 59.105 11.567C59.105 11.9397 59.235 12.2387 59.495 12.464C59.7637 12.6893 60.0974 12.802 60.496 12.802C60.9034 12.802 61.237 12.6893 61.497 12.464C61.7657 12.2387 61.9 11.9397 61.9 11.567C61.9 11.1943 61.7657 10.8997 61.497 10.683C61.237 10.4577 60.9034 10.345 60.496 10.345ZM60.548 17.755C61.2587 17.755 61.783 17.6597 62.121 17.469C62.4677 17.2783 62.641 17.053 62.641 16.793C62.641 16.5937 62.5587 16.4333 62.394 16.312C62.238 16.1907 61.952 16.13 61.536 16.13H59.443C59.1917 16.13 58.9837 16.195 58.819 16.325C58.663 16.455 58.585 16.624 58.585 16.832C58.585 17.118 58.7584 17.3433 59.105 17.508C59.4517 17.6727 59.9327 17.755 60.548 17.755ZM67.9585 16.13C67.3085 16.13 66.7365 15.9957 66.2425 15.727C65.7572 15.4583 65.3759 15.0727 65.0985 14.57C64.8212 14.0587 64.6825 13.452 64.6825 12.75C64.6825 12.048 64.8169 11.4457 65.0855 10.943C65.3629 10.4317 65.7399 10.0417 66.2165 9.773C66.7019 9.50433 67.2565 9.37 67.8805 9.37C68.5132 9.37 69.0505 9.5 69.4925 9.76C69.9345 10.02 70.2725 10.3753 70.5065 10.826C70.7405 11.2767 70.8575 11.788 70.8575 12.36C70.8575 12.5247 70.8532 12.6763 70.8445 12.815C70.8359 12.9537 70.8229 13.0707 70.8055 13.166H66.0475C66.1082 13.7727 66.3032 14.2363 66.6325 14.557C66.9705 14.869 67.4039 15.025 67.9325 15.025C68.3659 15.025 68.7169 14.9427 68.9855 14.778C69.2542 14.6133 69.4665 14.3837 69.6225 14.089L70.7275 14.609C70.5022 15.0857 70.1425 15.4583 69.6485 15.727C69.1632 15.9957 68.5999 16.13 67.9585 16.13ZM67.8545 10.475C67.3779 10.475 66.9835 10.6137 66.6715 10.891C66.3682 11.1683 66.1732 11.5713 66.0865 12.1H69.5055C69.4709 11.58 69.3062 11.1813 69.0115 10.904C68.7169 10.618 68.3312 10.475 67.8545 10.475Z" fill="#EC8A2F"/>
  <defs>
    <clipPath id="clip0">
      <rect width="19.78" height="19.78" fill="white" transform="translate(1.60999 3.22)"/>
    </clipPath>
  </defs>
</svg>
