<svg width="24" height="23" viewBox="0 0 24 23" fill="none" xmlns="http://www.w3.org/2000/svg">
  <path d="M21 9.58337C21 16.2917 12 22.0417 12 22.0417C12 22.0417 3 16.2917 3 9.58337C3 7.29588 3.94821 5.10208 5.63604 3.48458C7.32387 1.86708 9.61305 0.958374 12 0.958374C14.3869 0.958374 16.6761 1.86708 18.364 3.48458C20.0518 5.10208 21 7.29588 21 9.58337Z" stroke="#BFBFBF" stroke-width="1.5" stroke-linecap="round" stroke-linejoin="round"/>
  <path d="M12 12.4584C13.6569 12.4584 15 11.1712 15 9.58337C15 7.99556 13.6569 6.70837 12 6.70837C10.3431 6.70837 9 7.99556 9 9.58337C9 11.1712 10.3431 12.4584 12 12.4584Z" stroke="#BFBFBF" stroke-width="1.5" stroke-linecap="round" stroke-linejoin="round"/>
</svg>
