<svg width="20" height="20" viewBox="0 0 20 20" fill="none" xmlns="http://www.w3.org/2000/svg">
<path d="M7.33338 0.00133342C6.71151 -0.0135374 6.09295 0.0961041 5.51408 0.323808C4.9352 0.551512 4.40771 0.892681 3.96263 1.32725C3.51755 1.76181 3.16387 2.28099 2.92239 2.85426C2.68092 3.42752 2.55652 4.04329 2.55652 4.66533C2.55652 5.28738 2.68092 5.90315 2.92239 6.47641C3.16387 7.04967 3.51755 7.56886 3.96263 8.00342C4.40771 8.43798 4.9352 8.77915 5.51408 9.00686C6.09295 9.23456 6.71151 9.3442 7.33338 9.32933C7.95525 9.3442 8.57382 9.23456 9.15269 9.00686C9.73156 8.77915 10.2591 8.43798 10.7041 8.00342C11.1492 7.56886 11.5029 7.04967 11.7444 6.47641C11.9858 5.90315 12.1102 5.28738 12.1102 4.66533C12.1102 4.04329 11.9858 3.42752 11.7444 2.85426C11.5029 2.28099 11.1492 1.76181 10.7041 1.32725C10.2591 0.892681 9.73156 0.551512 9.15269 0.323808C8.57382 0.0961041 7.95525 -0.0135374 7.33338 0.00133342Z" fill="#464646"/>
<path d="M4.66667 11.9933C3.42899 11.9933 2.242 12.485 1.36683 13.3601C0.491665 14.2353 0 15.4223 0 16.66L0 19.9893H14.6667V16.66C14.6667 15.4223 14.175 14.2353 13.2998 13.3601C12.4247 12.485 11.2377 11.9933 10 11.9933H4.66667Z" fill="#464646"/>
<path d="M16.6667 13.3347H16V20.0014H20V16.668C20 15.784 19.6488 14.9361 19.0237 14.311C18.3986 13.6859 17.5507 13.3347 16.6667 13.3347Z" fill="#464646"/>
<path d="M15.3333 5.33472C14.4493 5.33472 13.6014 5.68591 12.9763 6.31103C12.3512 6.93615 12 7.78399 12 8.66805C12 9.5521 12.3512 10.4 12.9763 11.0251C13.6014 11.6502 14.4493 12.0014 15.3333 12.0014C16.2174 12.0014 17.0652 11.6502 17.6904 11.0251C18.3155 10.4 18.6667 9.5521 18.6667 8.66805C18.6667 7.78399 18.3155 6.93615 17.6904 6.31103C17.0652 5.68591 16.2174 5.33472 15.3333 5.33472Z" fill="#464646"/>
</svg>
