<svg width="140" height="140" viewBox="0 0 140 140" fill="none" xmlns="http://www.w3.org/2000/svg">
<g clip-path="url(#clip0)">
<path d="M133.723 14.2954L133.014 16.2344" stroke="#3FBDF1" stroke-width="1.5" stroke-miterlimit="10"/>
<path d="M131.637 20.0005L126.987 32.7111" stroke="#3FBDF1" stroke-width="1.5" stroke-miterlimit="10" stroke-dasharray="26.26 28.64 28.64 26.26"/>
<path d="M126.356 34.4373L94.8488 120.589" stroke="#3FBDF1" stroke-width="1.5" stroke-miterlimit="10" stroke-dasharray="28.64 28.64 26.26 28.64 28.64 26.26"/>
<path d="M94.2176 122.315L93.5092 124.254" stroke="#3FBDF1" stroke-width="1.5" stroke-miterlimit="10"/>
<path d="M132.387 2.21191L131.675 4.14951" stroke="#3FBDF1" stroke-width="1.5" stroke-miterlimit="10"/>
<path d="M130.249 8.04175L125.436 21.1779" stroke="#3FBDF1" stroke-width="1.5" stroke-miterlimit="10" stroke-dasharray="27.14 29.61 29.61 27.14"/>
<path d="M124.782 22.9614L92.1537 111.993" stroke="#3FBDF1" stroke-width="1.5" stroke-miterlimit="10" stroke-dasharray="29.61 29.61 27.14 29.61 29.61 27.14"/>
<path d="M91.4998 113.778L90.79 115.716" stroke="#3FBDF1" stroke-width="1.5" stroke-miterlimit="10"/>
<path d="M128.811 -3.78271L123.658 10.2285" stroke="#3FBDF1" stroke-width="1.5" stroke-miterlimit="10" stroke-dasharray="28.96 31.6 31.6 28.96"/>
<path d="M122.958 12.1311L96.9392 82.8786" stroke="#3FBDF1" stroke-width="1.5" stroke-miterlimit="10" stroke-dasharray="31.6 31.6 28.96 31.6 31.6 28.96"/>
<path d="M96.239 84.7812L95.5264 86.7188" stroke="#3FBDF1" stroke-width="1.5" stroke-miterlimit="10"/>
<path d="M122.101 -0.996826L81.0699 111.972" stroke="#3FBDF1" stroke-width="1.5" stroke-miterlimit="10" stroke-dasharray="29.9 29.9 27.41 29.9 29.9 27.41"/>
<path d="M80.4145 113.775L79.7103 115.716" stroke="#3FBDF1" stroke-width="1.5" stroke-miterlimit="10"/>
<path d="M143.783 51.5632L113.494 135.854" stroke="#3FBDF1" stroke-width="1.5" stroke-miterlimit="10" stroke-dasharray="27.97 27.97 25.64 27.97 27.97 25.64"/>
<path d="M112.886 137.543L112.189 139.486" stroke="#3FBDF1" stroke-width="1.5" stroke-miterlimit="10"/>
<path d="M141.941 40.4768L109.312 129.508" stroke="#3FBDF1" stroke-width="1.5" stroke-miterlimit="10" stroke-dasharray="29.61 29.61 27.14 29.61 29.61 27.14"/>
<path d="M108.659 131.292L107.949 133.231" stroke="#3FBDF1" stroke-width="1.5" stroke-miterlimit="10"/>
<path d="M140.116 29.645L114.097 100.394" stroke="#3FBDF1" stroke-width="1.5" stroke-miterlimit="10" stroke-dasharray="31.6 31.6 28.96 31.6 31.6 28.96"/>
<path d="M113.397 102.296L112.685 104.234" stroke="#3FBDF1" stroke-width="1.5" stroke-miterlimit="10"/>
<path d="M144.739 1.43359L139.915 14.7154" stroke="#3FBDF1" stroke-width="1.5" stroke-miterlimit="10" stroke-dasharray="27.41 29.9 29.9 27.41"/>
<path d="M139.259 16.5186L98.2296 129.487" stroke="#3FBDF1" stroke-width="1.5" stroke-miterlimit="10" stroke-dasharray="29.9 29.9 27.41 29.9 29.9 27.41"/>
<path d="M97.5747 131.291L96.8691 133.231" stroke="#3FBDF1" stroke-width="1.5" stroke-miterlimit="10"/>
<path d="M122.158 -14.9634L71.8704 123.802" stroke="#3FBDF1" stroke-width="1.5" stroke-miterlimit="10" stroke-dasharray="30.52 30.52 27.98 30.52 30.52 27.98"/>
<path d="M71.2027 125.643L70.4999 127.585" stroke="#3FBDF1" stroke-width="1.5" stroke-miterlimit="10"/>
<path d="M121.282 -28.4187L74.3022 100.562" stroke="#3FBDF1" stroke-width="1.5" stroke-miterlimit="10" stroke-dasharray="28.39 28.39 26.02 28.39 28.39 26.02"/>
<path d="M73.6779 102.273L72.9722 104.213" stroke="#3FBDF1" stroke-width="1.5" stroke-miterlimit="10"/>
<path d="M107.237 -7.2085L102.589 5.5035" stroke="#3FBDF1" stroke-width="1.5" stroke-miterlimit="10" stroke-dasharray="26.26 28.64 28.64 26.26"/>
<path d="M101.958 7.22949L70.451 93.3799" stroke="#3FBDF1" stroke-width="1.5" stroke-miterlimit="10" stroke-dasharray="28.64 28.64 26.26 28.64 28.64 26.26"/>
<path d="M69.8194 95.1062L69.1096 97.0452" stroke="#3FBDF1" stroke-width="1.5" stroke-miterlimit="10"/>
<path d="M100.383 -4.24634L67.7561 84.7853" stroke="#3FBDF1" stroke-width="1.5" stroke-miterlimit="10" stroke-dasharray="29.61 29.61 27.14 29.61 29.61 27.14"/>
<path d="M67.1023 86.5688L66.3911 88.5079" stroke="#3FBDF1" stroke-width="1.5" stroke-miterlimit="10"/>
<path d="M98.5587 -15.0781L72.5397 55.6695" stroke="#3FBDF1" stroke-width="1.5" stroke-miterlimit="10" stroke-dasharray="31.6 31.6 28.96 31.6 31.6 28.96"/>
<path d="M71.8399 57.5723L71.1273 59.5113" stroke="#3FBDF1" stroke-width="1.5" stroke-miterlimit="10"/>
<path d="M97.7035 -28.2043L56.6722 84.7631" stroke="#3FBDF1" stroke-width="1.5" stroke-miterlimit="10" stroke-dasharray="29.9 29.9 27.41 29.9 29.9 27.41"/>
<path d="M56.017 86.5676L55.3114 88.508" stroke="#3FBDF1" stroke-width="1.5" stroke-miterlimit="10"/>
<path d="M96.239 -39.8901L45.9496 98.8765" stroke="#3FBDF1" stroke-width="1.5" stroke-miterlimit="10" stroke-dasharray="30.52 30.52 27.98 30.52 30.52 27.98"/>
<path d="M45.2834 100.717L44.5792 102.658" stroke="#3FBDF1" stroke-width="1.5" stroke-miterlimit="10"/>
<path d="M95.3627 -53.3442L48.3815 75.635" stroke="#3FBDF1" stroke-width="1.5" stroke-miterlimit="10" stroke-dasharray="28.39 28.39 26.02 28.39 28.39 26.02"/>
<path d="M47.7585 77.3472L47.0515 79.2863" stroke="#3FBDF1" stroke-width="1.5" stroke-miterlimit="10"/>
<path d="M74.1452 -11.613L69.4972 1.09756" stroke="#3FBDF1" stroke-width="1.5" stroke-miterlimit="10" stroke-dasharray="26.26 28.64 28.64 26.26"/>
<path d="M68.8663 2.82373L37.3593 88.9741" stroke="#3FBDF1" stroke-width="1.5" stroke-miterlimit="10" stroke-dasharray="28.64 28.64 26.26 28.64 28.64 26.26"/>
<path d="M36.7276 90.7004L36.0192 92.6395" stroke="#3FBDF1" stroke-width="1.5" stroke-miterlimit="10"/>
<path d="M67.2926 -8.65186L34.6642 80.3797" stroke="#3FBDF1" stroke-width="1.5" stroke-miterlimit="10" stroke-dasharray="29.61 29.61 27.14 29.61 29.61 27.14"/>
<path d="M34.0104 82.1633L33.2992 84.1023" stroke="#3FBDF1" stroke-width="1.5" stroke-miterlimit="10"/>
<path d="M65.4682 -19.4839L39.4478 51.2637" stroke="#3FBDF1" stroke-width="1.5" stroke-miterlimit="10" stroke-dasharray="31.6 31.6 28.96 31.6 31.6 28.96"/>
<path d="M38.7476 53.1677L38.035 55.1053" stroke="#3FBDF1" stroke-width="1.5" stroke-miterlimit="10"/>
<path d="M64.6113 -32.6104L23.5801 80.357" stroke="#3FBDF1" stroke-width="1.5" stroke-miterlimit="10" stroke-dasharray="29.9 29.9 27.41 29.9 29.9 27.41"/>
<path d="M22.9253 82.1616L22.2211 84.102" stroke="#3FBDF1" stroke-width="1.5" stroke-miterlimit="10"/>
<path d="M63.1473 -44.2961L12.8593 94.4704" stroke="#3FBDF1" stroke-width="1.5" stroke-miterlimit="10" stroke-dasharray="30.52 30.52 27.98 30.52 30.52 27.98"/>
<path d="M12.1914 96.3115L11.4872 98.2519" stroke="#3FBDF1" stroke-width="1.5" stroke-miterlimit="10"/>
<path d="M62.2707 -57.75L15.2896 71.2292" stroke="#3FBDF1" stroke-width="1.5" stroke-miterlimit="10" stroke-dasharray="28.39 28.39 26.02 28.39 28.39 26.02"/>
<path d="M14.6665 72.9414L13.9595 74.8804" stroke="#3FBDF1" stroke-width="1.5" stroke-miterlimit="10"/>
<path d="M33.5549 117.162C33.3979 116.185 33.4708 115.184 33.7677 114.24" stroke="#3FBDF1" stroke-width="1.5" stroke-miterlimit="10"/>
<path d="M103.494 119.35L91.112 108.874L88.9784 105.364L88.4044 101.952L89.012 96.88L89.74 92.26C91.4592 92.3132 93.52 91.9996 94.4566 91.56C94.5707 91.5114 94.6668 91.4286 94.7321 91.3231C94.7972 91.2175 94.8281 91.0945 94.8206 90.9706V90.9328C94.829 90.3896 94.8514 86.6502 94.878 82.3746C94.878 81.7166 94.878 81.0432 94.8892 80.374C94.8892 80.2032 94.8892 80.0324 94.8892 79.8644C94.8892 79.6964 94.8892 79.5256 94.8892 79.3548V78.834C94.8892 78.4994 94.8892 78.1648 94.8892 77.833C94.8892 77.6664 94.8892 77.4984 94.8892 77.3318C94.9074 73.6498 94.927 70.3318 94.934 69.048V68.5188V68.4922C94.9984 68.705 95.0628 68.9122 95.1286 69.1306C95.1314 69.1412 95.1351 69.1514 95.1398 69.1614C95.2 69.363 95.2616 69.573 95.3218 69.7774C95.3225 69.7894 95.3254 69.8013 95.3302 69.8124C95.5164 70.4592 95.6942 71.113 95.8622 71.7626C95.8622 71.7752 95.8692 71.7892 95.8734 71.8018C95.9266 72.0062 95.977 72.2078 96.026 72.4094C96.026 72.4248 96.0372 72.4402 96.0414 72.4598C96.201 73.1024 96.3494 73.7408 96.4936 74.368C96.4936 74.3876 96.5006 74.403 96.5048 74.4212C96.5468 74.6088 96.5888 74.7978 96.6266 74.9812C96.635 75.0078 96.6378 75.0302 96.6462 75.0568C96.7862 75.6658 96.901 76.2594 97.0144 76.8334C97.0228 76.8642 97.0256 76.8936 97.034 76.9244C97.0648 77.0812 97.0942 77.2366 97.125 77.3892C97.132 77.427 97.1404 77.4648 97.1474 77.5026C97.1782 77.6622 97.209 77.819 97.2356 77.9744C97.2356 77.994 97.2356 78.0164 97.2468 78.0346C97.2804 78.2138 97.3154 78.393 97.349 78.568V78.5792C97.3798 78.7388 97.4064 78.8984 97.4372 79.0552C97.4442 79.1 97.4526 79.142 97.4596 79.1952C97.4792 79.3128 97.5016 79.4262 97.5212 79.541C97.5212 79.5872 97.5352 79.6362 97.5436 79.681C97.566 79.7958 97.5856 79.9064 97.6038 80.017C97.6082 80.0552 97.6148 80.093 97.6234 80.1304C97.6458 80.2704 97.6696 80.4104 97.692 80.5504C97.692 80.5854 97.7032 80.6148 97.7074 80.6498C97.7256 80.752 97.741 80.8514 97.7564 80.9466C97.7634 81.0026 97.776 81.0558 97.783 81.1104C97.79 81.165 97.8054 81.2504 97.8138 81.3078C97.8222 81.3652 97.832 81.4296 97.8446 81.4898C97.8572 81.55 97.8586 81.585 97.867 81.6298C97.8738 81.6961 97.884 81.7619 97.8978 81.8272C97.8978 81.8468 97.8978 81.865 97.8978 81.8846C97.9244 82.0484 97.9468 82.2038 97.9664 82.348C97.9664 82.348 97.9664 82.348 97.9664 82.3564C97.9776 82.4278 97.9846 82.4964 97.9958 82.565C97.9958 82.5762 97.9958 82.5846 97.9958 82.5958C98.0798 83.1628 98.1176 83.482 98.1176 83.482H99.2628V83.8474C99.2621 83.9102 99.2364 83.9703 99.1915 84.0144C99.1467 84.0585 99.0862 84.083 99.0234 84.0826C98.472 84.0834 97.9437 84.3029 97.5541 84.693C97.1646 85.083 96.9458 85.6118 96.9458 86.163V86.723C96.9458 87.3768 97.3448 88.039 98.0028 88.1944C98.108 88.22 98.2153 88.2368 98.3234 88.2448C98.4064 88.2553 98.4902 88.259 98.574 88.256C98.9548 88.256 99.3342 88.2098 99.7108 88.2098C100.087 88.2098 100.43 88.2098 100.792 88.2098H102.241C103.541 88.2098 104.598 86.772 104.598 85.4672V83.0942H104.57C104.587 82.4278 104.598 81.7558 104.598 81.0698C104.598 68.355 101.51 52.8514 90.6556 47.9878H90.643H90.636C89.7743 47.5984 88.8818 47.2813 87.9676 47.04C87.6022 46.9448 87.2298 46.858 86.8476 46.7824L85.8844 43.0164H85.8928L85.4854 41.4232C85.4854 41.4232 86.9568 40.1492 87.2382 37.2736C89.6182 37.653 91.5782 37.7524 92.9054 37.5354C93.0364 37.5173 93.1663 37.4921 93.2946 37.4598H93.3282C94.1276 37.2694 94.6484 36.939 94.8346 36.4602C94.9153 36.2318 94.9295 35.9851 94.8752 35.749C94.8752 35.6762 94.8836 35.609 94.8878 35.5236C94.9074 35.5875 94.9237 35.6525 94.9368 35.7182C95.0894 32.0852 94.8346 16.0384 79.1742 8.97819L79.3142 9.06919L79.128 8.95999L79.0244 8.91799L79.177 8.9558C79.1308 8.9376 78.8844 8.8424 78.4616 8.701C75.04 7.4634 59.1934 2.744 48.8012 17.5392H48.8096C48.6146 17.6743 48.4618 17.8616 48.3686 18.0796C48.3546 18.1218 48.343 18.1648 48.3336 18.2084C48.3199 18.2511 48.3087 18.2946 48.3 18.3386C48.3 18.3722 48.3 18.41 48.3 18.4478C48.3 18.4856 48.293 18.5584 48.3 18.62C48.3 18.6494 48.3154 18.6886 48.3196 18.7222C48.3255 18.7878 48.3367 18.8529 48.3532 18.9168C48.3616 18.9504 48.377 18.9812 48.3882 19.0148C48.4089 19.0899 48.4342 19.1639 48.4638 19.236C48.475 19.2654 48.4946 19.3004 48.51 19.3312C48.5464 19.4131 48.587 19.493 48.6318 19.5706C48.6472 19.6014 48.6696 19.6308 48.6878 19.6658C48.7382 19.7498 48.7914 19.8324 48.8516 19.9234C48.8712 19.9542 48.8978 19.985 48.9202 20.0158C48.9846 20.1091 49.0532 20.2001 49.126 20.2888L49.21 20.384C49.2856 20.4792 49.3654 20.5744 49.4564 20.6738C49.483 20.7032 49.518 20.7382 49.5446 20.769C49.6398 20.867 49.7308 20.9664 49.833 21.0686L49.9282 21.1596C50.0388 21.2674 50.1452 21.3738 50.2628 21.4802C50.2978 21.5096 50.3314 21.5404 50.3664 21.567C50.4882 21.6776 50.6086 21.791 50.743 21.9016C50.7766 21.9324 50.8144 21.9632 50.8522 21.9926C50.9852 22.1074 51.1224 22.2208 51.2722 22.3356C51.3114 22.3664 51.3534 22.3958 51.3912 22.4266C51.5396 22.5442 51.688 22.6632 51.8476 22.7808C51.8854 22.8116 51.9274 22.841 51.9652 22.8718C52.129 22.9894 52.2928 23.1112 52.4594 23.2372L52.5924 23.3282C52.7632 23.45 52.9382 23.5718 53.1216 23.6978C53.1665 23.7315 53.2133 23.7627 53.2616 23.7916C53.4482 23.9176 53.6348 24.0431 53.8216 24.1682C53.8706 24.199 53.9196 24.234 53.97 24.2634C54.1632 24.3894 54.3578 24.5182 54.5636 24.6484L54.7232 24.7464C54.9248 24.8724 55.1292 25.0012 55.342 25.1314C55.3966 25.165 55.4526 25.1958 55.51 25.2294C55.7228 25.3596 55.9398 25.4884 56.161 25.6186C56.2212 25.6522 56.2828 25.69 56.3388 25.725C56.5642 25.8538 56.784 25.9826 57.0164 26.1128C57.0766 26.1506 57.1452 26.1842 57.2096 26.2234C57.4378 26.3522 57.666 26.4782 57.9026 26.607C57.974 26.649 58.0426 26.6868 58.1196 26.7246C58.352 26.8548 58.5872 26.9794 58.8196 27.1096C58.8924 27.1474 58.968 27.1852 59.0436 27.2272C59.2844 27.3518 59.5266 27.482 59.7744 27.6108C59.8542 27.6486 59.9298 27.6906 60.0096 27.7284C60.2574 27.8544 60.508 27.9832 60.76 28.1092C60.8468 28.1554 60.935 28.1974 61.0176 28.238C61.2696 28.364 61.5202 28.4858 61.775 28.6118C61.866 28.6566 61.9612 28.7028 62.055 28.7448C62.3098 28.8694 62.5646 28.9912 62.8236 29.113C62.9188 29.1592 63.0224 29.2054 63.1204 29.253C63.3752 29.3748 63.63 29.4924 63.8932 29.6142C63.9996 29.6646 64.106 29.7094 64.2124 29.7542C64.4714 29.8732 64.7262 29.9908 64.988 30.1042C65.0986 30.1546 65.212 30.2078 65.3268 30.2568L66.1066 30.5998C66.2284 30.6488 66.346 30.702 66.4678 30.751C66.7268 30.8658 66.9886 30.9764 67.2518 31.0856C67.3764 31.1388 67.5024 31.1892 67.6242 31.2424C67.886 31.353 68.152 31.4622 68.4194 31.5686C68.5482 31.6218 68.6812 31.675 68.81 31.7296C69.0088 31.8094 69.2062 31.892 69.4078 31.9718C69.4078 31.9718 75.0638 34.4792 78.0878 35.0378L78.1298 35.049C78.0836 35.266 78.0416 35.4872 77.9996 35.707C77.937 36.0232 77.8281 36.3284 77.6762 36.6128L76.741 38.3628C76.7197 38.405 76.7095 38.4519 76.7112 38.4991C76.7128 38.5463 76.7266 38.5924 76.7509 38.633C76.7751 38.6734 76.8093 38.7072 76.8502 38.731C76.8911 38.7546 76.9373 38.7678 76.9846 38.7688H77.3878C77.3878 38.7996 77.3878 38.8304 77.3878 38.8612V39.0278C77.3802 39.4648 77.398 39.9019 77.441 40.3368C77.4417 40.3425 77.4442 40.3478 77.448 40.3522C77.574 41.5534 77.9506 42.896 78.9586 43.1088C78.988 43.1088 79.023 43.1088 79.0566 43.1172C79.1206 43.1305 79.1858 43.1379 79.2512 43.1396C79.2512 43.1396 79.2512 43.1396 79.2596 43.1396C79.5653 43.1363 79.8698 43.1006 80.1682 43.0332L80.8038 46.4604L80.815 46.5136V46.529H80.8066V46.5136C80.7987 46.5147 80.7912 46.5171 80.7842 46.5206L80.7954 46.4604C79.8309 46.4618 78.8957 46.7916 78.1438 47.3956C74.3442 49.3654 72.5074 53.942 70.4228 57.5204C70.3654 57.6114 70.3122 57.7024 70.2632 57.8004C70.1356 57.9597 69.9706 58.0847 69.7827 58.1642C69.595 58.2437 69.3903 58.2752 69.1871 58.2559C68.9841 58.2366 68.7891 58.167 68.6196 58.0536C68.45 57.9401 68.3116 57.7862 68.2164 57.6058C68.2094 57.6058 68.2094 57.5988 68.2094 57.5904C68.1814 57.5414 68.1674 57.5036 68.152 57.4728C68.1408 57.4567 68.1327 57.4386 68.1282 57.4196L66.22 51.8098C66.22 51.8098 66.22 51.8098 66.22 51.7986L66.164 51.8098C66.164 51.8098 66.164 51.8098 66.164 51.7986L65.8364 50.2166C65.8326 49.6776 65.9275 49.1423 66.1164 48.6374C66.6068 47.3433 66.808 45.9575 66.7058 44.5774C66.6568 43.9082 66.5042 42.5992 65.7132 42.3976C65.2722 42.2842 64.8466 42.63 64.6408 42.9954C64.5557 43.1449 64.4907 43.3049 64.4476 43.4714C64.2197 43.3594 63.9776 43.2787 63.728 43.232C63.511 43.1909 63.2908 43.1708 63.07 43.1718C62.4169 43.1803 61.7718 43.3174 61.1716 43.575C60.9966 43.6464 60.8034 43.7346 60.6116 43.8368C60.0782 44.1168 59.5378 44.5256 59.3936 45.0772C59.2988 45.3688 59.2988 45.6829 59.3936 45.9746C59.3136 46.093 59.2544 46.2242 59.2186 46.3624C59.1343 46.6327 59.1265 46.921 59.1962 47.1954L59.2536 47.39H59.2606C59.1546 47.5533 59.0703 47.7299 59.01 47.915C58.9396 48.1055 58.9132 48.3093 58.933 48.5114L57.4994 48.6514C56.9058 50.9068 58.7202 51.8952 60.2728 51.3898C60.4478 51.8546 60.6382 52.4244 60.8328 53.1286L59.5 53.4562C59.5 53.4562 62.1222 71.2768 68.32 71.0178C68.6588 71.0105 68.9948 70.9529 69.3168 70.847C69.969 70.6295 70.5895 70.3264 71.162 69.9454C70.6482 74.8454 70.4242 79.485 70.329 82.6224C70.2534 85.0024 70.4312 85.8424 72.7748 86.2736C73.1556 86.3422 73.5196 86.4024 73.8542 86.4528V86.4444C74.0642 86.4752 74.2616 86.5018 74.4408 86.5242C74.2616 86.506 74.0642 86.4836 73.8542 86.4528L66.6666 127.847L66.3166 130.208L61.3732 131.509C61.2042 131.553 61.0573 131.658 60.9598 131.803C60.8622 131.948 60.8207 132.123 60.843 132.297C60.8653 132.47 60.9498 132.629 61.0809 132.745C61.2119 132.86 61.3805 132.924 61.5552 132.924H71.8018L72.9092 127.847H76.86C76.86 127.847 77.8218 120.847 80.8724 111.279C87.9018 121.533 97.832 128.143 97.832 128.143L99.8984 124.895L102.115 126.668L101.511 131.376C101.504 131.416 101.502 131.457 101.503 131.498C101.503 131.62 101.527 131.741 101.574 131.854C101.621 131.967 101.69 132.069 101.776 132.155C101.863 132.241 101.966 132.31 102.079 132.356C102.192 132.403 102.313 132.426 102.435 132.426C102.639 132.426 102.838 132.359 103 132.235C103.163 132.111 103.28 131.937 103.334 131.74L106.102 121.502L103.494 119.35Z" fill="white"/>
<path d="M78.2603 47.4026C74.2143 50.4938 72.2403 60.6802 71.2897 69.9006C70.6977 70.2996 70.0537 70.6157 69.3759 70.84C62.5089 73.0562 59.6292 53.4506 59.6292 53.4506L60.9354 53.1244L66.2735 51.8C66.2735 51.8 66.2735 51.8 66.2735 51.8098L68.1804 57.4154C68.1846 57.4342 68.1916 57.4521 68.2014 57.4686C68.2154 57.4994 68.2321 57.5386 68.2573 57.5862C68.2589 57.5931 68.2622 57.5994 68.2671 57.6044C68.3687 57.7856 68.5127 57.9393 68.6869 58.0523C68.861 58.1652 69.0601 58.2341 69.267 58.2529C69.4738 58.2716 69.682 58.2397 69.8736 58.1599C70.0654 58.0801 70.2347 57.9548 70.3672 57.7948C70.419 57.7052 70.4707 57.6142 70.5267 57.5246C72.6197 53.949 74.4565 49.3752 78.2603 47.4026Z" fill="#FB984C"/>
<path d="M104.664 83.4708H98.2243C98.2243 83.4708 97.1925 75.3886 95.0225 68.4908C95.0225 68.817 94.9077 89.6308 94.8825 90.9244V90.9762C94.8822 90.9354 94.8785 90.8947 94.8713 90.8544C94.8647 90.8176 94.8543 90.7814 94.8405 90.7466C94.8405 90.7466 94.8405 90.7466 94.8405 90.7396C94.8269 90.7012 94.8081 90.665 94.7845 90.6318C94.7639 90.5971 94.7395 90.5646 94.7117 90.5352C94.6993 90.5188 94.6841 90.5045 94.6669 90.4932C94.6384 90.4655 94.6071 90.4411 94.5731 90.4204C94.4731 90.3644 94.3601 90.3354 94.2455 90.3364H88.6455C87.7873 90.3375 86.9391 90.15 86.1614 89.7872C85.3836 89.4243 84.6951 88.8948 84.1445 88.2364C83.9816 88.0404 83.832 87.8336 83.6965 87.6176C83.511 87.3299 83.3529 87.0251 83.2247 86.7076C83.0561 86.303 82.9349 85.8802 82.8635 85.4476C82.6241 84.0098 82.3763 82.3326 82.1481 80.4916C82.1033 80.1234 82.0571 79.7482 82.0081 79.3716C81.9871 79.1798 81.9661 78.9894 81.9423 78.7976C81.9003 78.4084 81.8583 78.0206 81.8177 77.6244C81.7771 77.2282 81.7379 76.8292 81.6987 76.4218C81.6595 76.0144 81.6259 75.6098 81.5909 75.1996C81.5741 74.991 81.5601 74.7796 81.5433 74.578C81.5111 74.165 81.4803 73.745 81.4523 73.325C81.1723 69.0494 81.1121 64.5274 81.5321 60.4562C81.5699 60.081 81.6119 59.71 81.6609 59.3362C81.7785 58.415 81.9241 57.5232 82.0991 56.6692C82.1677 56.3248 82.2391 55.9916 82.3245 55.6612C82.4841 54.9976 82.6605 54.3662 82.8621 53.7586C83.2237 52.6254 83.7182 51.5389 84.3349 50.5218C84.5633 50.1544 84.8223 49.8069 85.1091 49.483C86.3943 48.034 88.1527 47.236 90.0833 47.7918L90.7399 47.9794C102.302 53.1468 105.063 70.3696 104.664 83.4708Z" fill="#FB984C"/>
<path d="M106.165 121.498L103.396 131.74C103.337 131.958 103.201 132.147 103.013 132.272C102.826 132.397 102.599 132.45 102.375 132.42C102.152 132.391 101.946 132.281 101.797 132.112C101.649 131.943 101.566 131.725 101.566 131.499C101.562 131.459 101.562 131.419 101.566 131.379L102.171 126.669L99.96 124.894L103.554 119.349L106.165 121.498Z" fill="#D1A88B"/>
<path d="M95.0098 35.7C94.9462 35.425 94.8404 35.1616 94.6962 34.9188L94.6024 34.7704C94.5646 34.7102 94.5268 34.6514 94.4848 34.5898C94.4428 34.5282 94.4078 34.4848 94.3672 34.4302C94.3266 34.3756 94.2804 34.3112 94.2272 34.2524C94.174 34.1936 94.1334 34.1348 94.0872 34.0746C94.041 34.0144 93.9822 33.9542 93.9262 33.8912C93.8702 33.8282 93.8156 33.7694 93.7568 33.7078C93.698 33.6462 93.6392 33.5818 93.5762 33.5202C93.5132 33.4586 93.4516 33.3914 93.3844 33.3284L93.18 33.1338C93.1114 33.068 93.04 33.0022 92.9644 32.9364L92.739 32.7348C92.662 32.669 92.5822 32.6032 92.5024 32.5332C92.4226 32.4632 92.347 32.4044 92.2672 32.3358C92.228 32.3078 92.1944 32.2756 92.1524 32.2448C92.0726 32.179 91.9858 32.1048 91.899 32.0432C90.701 31.1175 89.4505 30.2617 88.154 29.4798C88.574 27.2748 90.1476 15.813 79.25 8.95728C94.9048 16.023 95.1624 32.0726 95.0098 35.7Z" fill="#FFBC61"/>
<path d="M72.972 127.847L71.8632 132.924H61.618C61.4276 132.923 61.2452 132.847 61.1104 132.712C60.9757 132.578 60.8996 132.395 60.8984 132.205C60.8984 132.045 60.9514 131.89 61.0488 131.763C61.1462 131.636 61.283 131.545 61.4374 131.505L66.3822 130.206L66.7336 127.844L72.972 127.847Z" fill="#D1A88B"/>
<path d="M79.24 8.95992C77.8495 8.61045 76.4254 8.41144 74.9924 8.36632C70.3388 8.18572 62.9762 9.34632 58.6516 17.3963C58.5928 17.4999 58.541 17.6049 58.485 17.7085C56.6794 17.3077 54.8464 17.042 53.0012 16.9133C53.0012 16.9133 53.0012 16.9133 52.9914 16.9133C52.3723 16.8765 51.7514 16.8765 51.1322 16.9133C56.8722 9.51852 64.1424 7.44512 70.0784 7.26172H70.0924C72.6188 7.34215 75.1262 7.72761 77.56 8.40972C78.1292 8.56373 78.6901 8.74738 79.24 8.95992Z" fill="#FFBC61"/>
<path d="M74.9631 85.5539V85.568L74.7335 86.541C74.2505 86.5032 73.5939 86.4009 72.8967 86.2735C70.5517 85.8535 70.3767 84.9982 70.4509 82.6196C70.5489 79.4766 70.7743 74.8258 71.2909 69.9006C72.2401 60.6802 74.2099 50.4937 78.2601 47.4025C78.9339 47.0506 79.6526 46.7924 80.3965 46.6353C80.528 46.6073 80.6667 46.5793 80.8025 46.5583C78.9405 47.1799 70.2801 53.1299 74.9631 85.5539Z" fill="#FB984C"/>
<path d="M85.5545 41.4104L85.9605 43.005L85.0813 43.3284C84.9724 43.3674 84.8527 43.3619 84.7479 43.3132C84.6431 43.2645 84.5616 43.1764 84.5213 43.068L83.9613 41.5784C83.7705 41.0785 83.6949 40.542 83.74 40.0088C83.7851 39.4755 83.9497 38.9593 84.2217 38.4984C84.2231 38.4934 84.2255 38.4886 84.2287 38.4844C84.3337 38.3061 84.3703 38.0955 84.3315 37.8921C84.2926 37.6887 84.1811 37.5064 84.0178 37.3793C83.8544 37.252 83.6503 37.1886 83.4436 37.2009C83.237 37.2131 83.0417 37.3002 82.8945 37.4456C82.6145 37.7256 82.4129 37.9566 82.3051 38.3416C82.2111 38.7009 82.1794 39.0736 82.2113 39.4434C82.2449 40.037 82.4409 40.8966 82.3219 41.4902C82.1483 42.368 81.0129 42.8552 80.2345 43.0302C79.9327 43.0993 79.6243 43.1354 79.3147 43.138C77.6165 43.152 77.429 40.296 77.4528 39.0276C77.8839 39.2194 78.3249 39.8676 79.3665 39.8676C80.7133 39.8676 81.2145 37.8642 81.2145 37.8642L81.7605 35.5598C81.7954 35.4123 81.7965 35.2587 81.7635 35.1107C81.7304 34.9626 81.6642 34.824 81.5699 34.7053C81.4755 34.5865 81.3555 34.4908 81.2187 34.4251C81.082 34.3595 80.9322 34.3257 80.7805 34.3264H78.6525C78.5695 34.2856 78.4894 34.2388 78.4131 34.1864C76.785 33.135 78.0379 30.4946 78.0379 30.4946C78.4649 31.4396 80.8267 31.5376 82.8595 31.9604C84.8923 32.3832 87.4431 33.2358 87.3493 36.5902C87.2555 39.9446 85.5545 41.4104 85.5545 41.4104Z" fill="#D1A88B"/>
<path d="M95.0196 68.488C95.0196 68.8142 94.9048 89.628 94.8796 90.9216" stroke="#464646" stroke-miterlimit="10"/>
<path d="M104.701 83.4707V85.8311C104.701 87.1345 103.644 88.5709 102.34 88.5709H99.8118C99.2518 88.5709 98.6624 88.6913 98.1052 88.5597C97.4486 88.4029 97.0468 87.7407 97.0468 87.0855V86.5255C97.0479 85.9757 97.2667 85.4489 97.6552 85.0601C98.0438 84.6712 98.5705 84.4521 99.1202 84.4507C99.1515 84.4507 99.1825 84.4446 99.2113 84.4325C99.2401 84.4206 99.2665 84.4031 99.2884 84.381C99.3106 84.3589 99.3282 84.3327 99.3401 84.3037C99.352 84.2749 99.3582 84.2439 99.3582 84.2127V83.4707" stroke="#464646" stroke-miterlimit="10"/>
<path d="M78.4002 34.1866C76.7706 33.1352 78.025 30.4948 78.025 30.4948C78.445 31.4398 80.8138 31.5378 82.8452 31.9606C84.8766 32.3834 87.4302 33.236 87.3364 36.5904C87.3294 36.8228 87.3154 37.0454 87.2944 37.261C91.542 37.9414 94.3966 37.723 94.9006 36.4448C94.9006 36.4448 94.9286 36.1802 94.9454 35.7042C94.8817 35.4293 94.7764 35.166 94.6332 34.923C94.601 34.8754 94.5702 34.8264 94.5394 34.7746C94.5086 34.7228 94.4624 34.6556 94.4204 34.594C94.3784 34.5324 94.3448 34.489 94.3028 34.4344C94.2608 34.3798 94.216 34.3154 94.1628 34.2566C94.1096 34.1978 94.069 34.139 94.0228 34.0788L93.8632 33.8954C93.8114 33.8366 93.7526 33.7736 93.6924 33.712C93.6322 33.6504 93.5748 33.586 93.5118 33.5244C93.4488 33.4628 93.3872 33.3956 93.3214 33.3326L93.117 33.138C93.047 33.0722 92.977 33.0064 92.9014 32.9406C92.8258 32.8748 92.7516 32.809 92.676 32.739C92.6004 32.669 92.5192 32.6074 92.4394 32.5374C92.3596 32.4674 92.2826 32.4086 92.2028 32.34C92.165 32.312 92.13 32.2798 92.088 32.249C92.0082 32.1832 91.9214 32.109 91.8346 32.0474C90.637 31.1217 89.3871 30.2657 88.091 29.484C86.271 28.364 84.1416 27.2062 81.791 26.0526C81.6356 25.9728 81.476 25.8972 81.3192 25.8202C81.1624 25.7432 81 25.6648 80.8404 25.5906C80.6808 25.5164 80.5198 25.4352 80.3574 25.3624C78.2406 24.36 75.9656 23.38 73.5758 22.4336C67.9884 20.2258 62.6978 18.6102 58.4194 17.7072C53.4872 16.6684 49.9004 16.5872 48.7468 17.6414C48.7468 17.6414 48.7468 17.6414 48.7398 17.6414C48.6362 17.7814 48.5354 17.9298 48.4304 18.0754C47.386 20.7186 56.7772 26.915 69.4598 31.9676C69.4598 31.9676 75.1172 34.475 78.1398 35.035C78.7544 35.1554 77.9396 34.16 78.4002 34.1866Z" fill="#FB984C"/>
<path d="M98.3904 88.6033C98.3904 88.6033 99.4754 88.8147 99.6042 87.822" stroke="#464646" stroke-miterlimit="10"/>
<path d="M100.66 88.5527C100.66 88.5527 101.746 88.7655 101.875 87.7729" stroke="#464646" stroke-miterlimit="10"/>
<path d="M74.6719 86.5395L74.9043 85.5525" stroke="#464646" stroke-miterlimit="10"/>
<path d="M72.9722 127.847H76.9202C76.9202 127.847 77.8821 120.847 80.9327 111.276" stroke="#464646" stroke-miterlimit="10"/>
<path d="M77.0842 83.9426H77.087" stroke="#464646" stroke-miterlimit="10"/>
<path d="M106.161 121.498L103.393 131.74C103.333 131.957 103.197 132.145 103.009 132.269C102.822 132.394 102.595 132.446 102.372 132.417C102.149 132.387 101.944 132.278 101.795 132.11C101.646 131.941 101.563 131.724 101.562 131.499C101.558 131.459 101.558 131.419 101.562 131.379L102.166 126.669L99.96 124.894L103.558 119.349L106.161 121.498Z" stroke="#464646" stroke-miterlimit="10"/>
<path d="M89.7401 92.2473L88.5417 99.8633C88.2413 101.774 88.4439 103.731 89.1295 105.54C89.8152 107.349 90.9602 108.948 92.4519 110.18L103.555 119.343" stroke="#464646" stroke-miterlimit="10"/>
<path d="M99.9601 124.894L97.8937 128.142C97.8937 128.142 87.9621 121.533 80.9327 111.276C82.9361 104.986 85.8467 97.5856 89.9795 90.3364" stroke="#464646" stroke-miterlimit="10"/>
<path d="M72.9718 127.847L71.863 132.924H61.6178C61.4435 132.923 61.2754 132.859 61.1448 132.744C61.014 132.629 60.9296 132.47 60.9071 132.297C60.8845 132.124 60.9254 131.949 61.0221 131.804C61.1189 131.659 61.2649 131.553 61.433 131.508L66.3792 130.208L66.7306 127.847H72.9718Z" stroke="#464646" stroke-miterlimit="10"/>
<path d="M71.2249 69.9006C70.6338 70.2996 69.9908 70.6157 69.3139 70.84C62.4539 73.0562 59.5685 53.4506 59.5685 53.4506L66.2199 51.8C66.2199 51.8 66.2199 51.8 66.2199 51.8098L68.1239 57.4196L68.1617 57.5134L68.1995 57.596C68.2038 57.6017 68.2076 57.6077 68.2107 57.6142C68.3119 57.7956 68.456 57.9496 68.6301 58.0629C68.8043 58.176 69.0035 58.245 69.2104 58.2638C69.4174 58.2825 69.6258 58.2505 69.8175 58.1705C70.0093 58.0904 70.1785 57.9649 70.3107 57.8046C70.3625 57.715 70.4157 57.624 70.4703 57.5344C72.5577 53.9532 74.3903 49.3794 78.1955 47.4068C78.1955 47.4068 78.1955 47.4068 78.2025 47.4068C78.8759 47.0548 79.5942 46.7966 80.3375 46.6396C80.4691 46.6116 80.6091 46.5836 80.7435 46.564C80.7435 46.564 80.7435 46.564 80.7547 46.564L80.8653 46.543" stroke="#464646" stroke-miterlimit="10"/>
<path d="M86.9158 46.7766C87.291 46.8536 87.662 46.9404 88.0358 47.0342C88.963 47.2704 89.8682 47.5851 90.742 47.975C102.3 53.1424 105.061 70.3652 104.662 83.4664H98.2222C98.2222 83.4664 95.5622 62.6456 89.8068 59.3206" stroke="#464646" stroke-miterlimit="10"/>
<path d="M74.9 85.5539C70.217 53.1285 78.8788 47.1799 80.7436 46.5555C80.7436 46.5555 80.7436 46.5555 80.7548 46.5555L80.8626 46.5205" stroke="#464646" stroke-miterlimit="10"/>
<path d="M80.8511 46.4646C79.8879 46.4667 78.954 46.796 78.2023 47.3984C78.2023 47.3984 78.2023 47.3984 78.1953 47.3984C74.1479 50.4896 72.1753 60.676 71.2247 69.8964C70.7095 74.8216 70.4855 79.471 70.3847 82.6154C70.3091 84.9954 70.4869 85.8354 72.8291 86.268C73.5291 86.3954 74.1843 86.4976 74.6687 86.5354L66.7307 127.847" stroke="#464646" stroke-miterlimit="10"/>
<path d="M94.8724 90.8599C94.8784 90.8946 94.8816 90.9296 94.8822 90.9649C94.89 91.0887 94.8592 91.2119 94.794 91.3176C94.7288 91.4231 94.6324 91.5059 94.5182 91.5543C93.4416 92.0541 91.8582 92.4713 89.74 92.2543L90.0382 90.3433H94.2382C94.3529 90.3422 94.4658 90.3711 94.5658 90.4273C94.5997 90.4479 94.6312 90.4724 94.6596 90.5001C94.6768 90.5114 94.6919 90.5256 94.7044 90.5421C94.7321 90.5715 94.7566 90.6038 94.7772 90.6387C94.8007 90.6719 94.8196 90.7081 94.8332 90.7465C94.8332 90.7465 94.8332 90.7465 94.8332 90.7535C94.8499 90.7875 94.863 90.8232 94.8724 90.8599Z" fill="#464646" stroke="#464646" stroke-miterlimit="10"/>
<path d="M94.8838 90.9315C94.8834 90.9078 94.8796 90.8842 94.8726 90.8615C94.866 90.8246 94.8557 90.7885 94.8418 90.7537" stroke="#464646" stroke-miterlimit="10"/>
<path d="M94.8387 90.7396C94.8246 90.7015 94.8059 90.6652 94.7828 90.6318C94.7646 90.5954 94.7399 90.5626 94.71 90.5352" stroke="#464646" stroke-miterlimit="10"/>
<path d="M94.6653 90.4932C94.6369 90.4655 94.6054 90.4411 94.5715 90.4204" stroke="#464646" stroke-miterlimit="10"/>
<path d="M90.0382 90.3364H88.6382C87.7799 90.3375 86.9319 90.1499 86.1541 89.7871C85.3763 89.4242 84.6877 88.8948 84.1373 88.2364C83.9743 88.0403 83.8246 87.8336 83.6893 87.6176C83.2684 86.9564 82.9859 86.2168 82.8589 85.4434C82.6195 84.0056 82.3703 82.3284 82.1407 80.4874C82.0959 80.1192 82.0497 79.744 82.0007 79.3674C81.9797 79.1756 81.9589 78.9852 81.9351 78.7934C81.8931 78.4042 81.8511 78.0164 81.8105 77.6202C81.7699 77.224 81.7307 76.825 81.6915 76.4176C81.6523 76.0102 81.6187 75.6056 81.5837 75.1954C81.5669 74.9868 81.5529 74.7754 81.5361 74.5738C81.5039 74.1608 81.4731 73.7408 81.4451 73.3208C81.1651 69.0452 81.1049 64.5232 81.5249 60.452C81.5627 60.0768 81.6047 59.7058 81.6537 59.332C81.7713 58.4108 81.9169 57.519 82.0919 56.665C82.1605 56.3206 82.2319 55.9874 82.3173 55.657C82.4769 54.9934 82.6533 54.362 82.8549 53.7544C83.2172 52.6208 83.7131 51.5343 84.3319 50.5176C84.5588 50.1503 84.8164 49.8028 85.1019 49.4788C86.387 48.0298 88.1454 47.2318 90.076 47.7876L90.7326 47.9752H90.7466" stroke="#464646" stroke-miterlimit="10"/>
<path d="M68.1182 57.4155C68.1182 57.4155 68.6572 58.7805 69.7002 59.6485" stroke="#464646" stroke-miterlimit="10"/>
<path d="M64.4977 43.4727C64.5414 43.3057 64.6058 43.1449 64.6895 42.9939C64.8953 42.6285 65.3209 42.2855 65.7633 42.3975C66.5529 42.5977 66.7041 43.9095 66.7573 44.5759C66.8582 45.9559 66.6572 47.3415 66.1679 48.6359C65.826 49.5065 65.7918 50.4677 66.0713 51.3603L66.2113 51.7971" stroke="#464646" stroke-miterlimit="10"/>
<path d="M61.2133 48.2104C61.4681 47.782 62.3333 47.7834 62.7659 48.1572C62.8597 48.2401 62.9713 48.3 63.0921 48.3322C63.2643 48.3852 63.4501 48.3713 63.6124 48.2935C63.7748 48.2156 63.902 48.0795 63.9685 47.9122C64.1743 47.3998 63.7375 46.6886 63.3175 46.4128C62.7001 46.0054 61.9007 46.0124 61.2021 46.1692C60.5035 46.326 59.8329 46.6648 59.3933 47.2542C59.2425 47.4529 59.127 47.6759 59.0517 47.9136C58.8949 48.4176 58.9677 48.6514 59.1777 49.1316L59.2631 49.2912C59.3765 49.5012 59.4997 49.7112 59.6257 49.91C59.8595 50.288 60.3523 51.2316 60.8745 53.13" stroke="#464646" stroke-miterlimit="10"/>
<path d="M59.4371 45.9789C59.3439 45.6866 59.3439 45.3725 59.4371 45.0801C59.5771 44.5285 60.1219 44.1239 60.6567 43.8411C60.8527 43.7375 61.0473 43.6493 61.2167 43.5779C61.8164 43.3189 62.4617 43.1815 63.1151 43.1733C63.3353 43.1733 63.5551 43.1939 63.7717 43.2349C64.0216 43.2813 64.2642 43.3614 64.4927 43.4729C65.0625 43.7629 65.5078 44.2499 65.7455 44.8435C65.9877 45.3881 66.1251 46.0503 65.6911 46.4465" stroke="#464646" stroke-miterlimit="10"/>
<path d="M64.0055 47.4599L64.2029 47.7763C64.3211 47.8933 64.4707 47.9732 64.6336 48.0066C64.7964 48.0399 64.9654 48.025 65.1199 47.9639C65.8759 47.6965 65.8899 47.0483 65.6967 46.4477C65.6628 46.3386 65.6227 46.2315 65.5763 46.1271C65.373 45.6375 65.0328 45.2171 64.5963 44.9161C64.2955 44.7175 63.9572 44.5827 63.6023 44.5199C63.3136 44.4657 63.0192 44.4468 62.7259 44.4639C62.1473 44.4997 61.579 44.6347 61.0459 44.8629C60.5111 45.0841 59.7859 45.4453 59.4359 45.9829C59.3567 46.1006 59.2975 46.2307 59.2609 46.3679C59.1762 46.6404 59.1685 46.9312 59.2385 47.2079L59.2973 47.4025" stroke="#464646" stroke-miterlimit="10"/>
<path d="M61.6492 44.65V44.6472" stroke="#464646" stroke-miterlimit="10"/>
<path d="M82.7474 84.7195C82.7474 84.7195 78.8274 86.9315 74.9073 85.5665" stroke="#464646" stroke-miterlimit="10"/>
<path d="M62.7663 48.1599C62.3463 49.0293 62.0761 50.0499 61.3761 50.7471C59.8081 52.3095 56.8023 51.4653 57.5443 48.6471" stroke="#464646" stroke-miterlimit="10"/>
<path d="M64.4977 43.4729L73.5752 22.4351" stroke="#464646" stroke-miterlimit="10"/>
<path d="M87.2984 37.2612C91.546 37.9416 94.4006 37.7232 94.9046 36.445C95.956 33.785 86.4094 27.5046 73.5756 22.4338C60.7418 17.363 49.4858 15.4156 48.4302 18.0826C47.3746 20.7496 56.9254 27.0202 69.7592 32.0924C72.6656 33.2432 75.4992 34.2288 78.1396 35.0422" stroke="#464646" stroke-miterlimit="10"/>
<path d="M94.9046 36.4462C94.9046 36.4462 96.9024 16.9484 79.1896 8.95998C79.1896 8.95998 60.5695 0.874968 48.8641 17.5364" stroke="#464646" stroke-miterlimit="10"/>
<path d="M88.06 29.2208C88.06 29.2208 91.287 16.5732 79.1896 8.96004C79.1896 8.96004 65.0286 4.90004 58.4192 17.7086" stroke="#464646" stroke-miterlimit="10"/>
<path d="M79.7552 36.9725C79.7319 36.7237 79.622 36.491 79.4447 36.315C79.2673 36.1391 79.034 36.0308 78.785 36.0093" stroke="#464646" stroke-miterlimit="10"/>
<path d="M78.9015 37.6391C79.0584 37.6391 79.1857 37.431 79.1857 37.1743C79.1857 36.9175 79.0584 36.7095 78.9015 36.7095C78.7446 36.7095 78.6173 36.9175 78.6173 37.1743C78.6173 37.431 78.7446 37.6391 78.9015 37.6391Z" fill="#464646"/>
<path d="M77.4342 39.032C77.8654 39.2238 78.3064 39.872 79.348 39.872C80.6962 39.872 81.196 37.8686 81.196 37.8686L81.756 35.5558C81.7912 35.4082 81.7924 35.2545 81.7595 35.1064C81.7266 34.9583 81.6604 34.8195 81.5661 34.7007C81.4717 34.5818 81.3514 34.486 81.2147 34.4205C81.0777 34.355 80.9278 34.3214 80.776 34.3224H78.6438C78.5604 34.2812 78.48 34.2345 78.403 34.1824" stroke="#464646" stroke-miterlimit="10"/>
<path d="M77.4818 40.3354C77.4818 40.3354 77.6218 40.7401 78.6186 40.9137" stroke="#464646" stroke-miterlimit="10"/>
<path d="M80.22 43.0344C79.9176 43.1033 79.6088 43.1394 79.2988 43.1422C77.525 43.1562 77.4018 40.0622 77.441 38.8652C77.441 38.8344 77.441 38.8022 77.441 38.7714H77.0378C76.9906 38.7702 76.9446 38.757 76.904 38.7331C76.8632 38.7093 76.8292 38.6755 76.8051 38.6351C76.7809 38.5945 76.7673 38.5485 76.7657 38.5015C76.7641 38.4543 76.7743 38.4076 76.7956 38.3654L77.7294 36.614C77.8808 36.3305 77.9898 36.0263 78.0528 35.711C78.1375 35.1961 78.2543 34.6868 78.4028 34.1864C76.7746 33.135 78.0276 30.4946 78.0276 30.4946C78.456 31.4396 80.8178 31.5376 82.8492 31.9604C84.8806 32.3832 87.4328 33.2358 87.3404 36.5902C87.248 39.9446 85.54 41.4104 85.54 41.4104L85.946 43.005L85.0682 43.3284C84.9593 43.3671 84.8397 43.3613 84.735 43.3126C84.6303 43.264 84.5488 43.1761 84.5082 43.068L83.9482 41.577C83.7574 41.0772 83.6816 40.5407 83.7264 40.0075C83.7712 39.4744 83.9356 38.958 84.2072 38.497L84.2156 38.4816C84.3224 38.3034 84.3605 38.0921 84.3224 37.8879C84.2844 37.6835 84.1729 37.5002 84.009 37.3724C83.845 37.2446 83.6399 37.1813 83.4325 37.1942C83.225 37.2072 83.0295 37.2957 82.8828 37.4428C82.6028 37.7228 82.3998 37.9538 82.292 38.3388C82.1986 38.6982 82.167 39.0707 82.1982 39.4406C82.2332 40.0342 82.4278 40.8938 82.3102 41.4874C82.1366 42.3652 80.9998 42.8524 80.2228 43.0274L80.871 46.5274C80.871 46.5274 79.7846 48.6274 81.0586 49.5976C82.3326 50.5678 86.9218 46.7738 86.9218 46.7738L85.9558 43.0022" stroke="#464646" stroke-miterlimit="10"/>
<path d="M77.4408 38.7717H78.0498" stroke="#464646" stroke-miterlimit="10"/>
<path d="M61.618 132.924H29.11" stroke="#464646" stroke-miterlimit="10"/>
<path d="M116.417 132.924H71.8632" stroke="#464646" stroke-miterlimit="10"/>
</g>
<defs>
<clipPath id="clip0">
<rect width="140" height="140" fill="white"/>
</clipPath>
</defs>
</svg>
