<svg width="137" height="99" viewBox="0 0 137 99" fill="none" xmlns="http://www.w3.org/2000/svg">
  <path d="M13.8088 76.2681C13.8088 76.2681 21.4575 61.4649 34.9657 63.1603C34.9657 63.1603 22.8527 56.8466 26.4515 43.6958C26.49 43.5233 26.5007 39.424 29.077 39.424H50.0291C50.0291 39.424 49.4378 38.7988 47.8363 42.1066C47.8363 42.1066 44.9905 45.847 44.5162 48.0491C44.0419 50.2512 47.1341 50.111 47.1341 50.111C47.1341 50.111 55.0801 55.7641 55.8931 55.0958C56.7062 54.4274 58.9576 49.0901 59.6582 46.503C60.3589 43.916 60.5345 41.0271 61.6478 41.2011C62.7612 41.3751 64.4967 41.9864 63.8992 40.3187C63.3017 38.651 61.2459 29.8288 58.8174 28.101C56.389 26.3732 48.654 14.8901 48.4153 14.3326C48.1766 13.7752 43.6908 15.0056 43.6908 15.0056C43.6908 15.0056 23.2654 21.8813 16.5606 40.3064C9.85579 58.7315 13.1142 74.3247 13.8088 76.2681Z" fill="#FB984C"/>
  <path d="M34.9659 63.1603C34.9659 63.1603 20.3936 59.8418 13.809 76.2681C13.809 76.2681 16.3929 88.1686 29.6254 88.7876C42.858 89.4067 50.3112 86.1621 55.7394 86.0774C56.8173 86.0604 53.1369 74.066 62.6397 73.1297C62.6397 73.1297 53.1369 69.7619 46.1534 67.9587C39.1699 66.1555 34.9659 63.1603 34.9659 63.1603Z" fill="#39191D"/>
  <path d="M78.7457 15.3258V26.0514C78.7483 27.0953 78.44 28.1164 77.8599 28.9845C77.2799 29.8525 76.4545 30.5281 75.4888 30.9252C72.9171 31.9739 69.5293 33.1488 63.9055 33.3506V25.6987C65.43 26.3147 67.1902 25.9205 68.4159 24.8179C68.6777 24.5838 68.9333 24.3559 69.1736 24.1557C70.1145 23.3427 70.8767 22.8191 71.2617 22.9638C72.0578 23.2595 72.1579 23.2595 72.6476 20.6755C73.0095 18.8153 76.017 16.7595 76.7407 13.3409C76.8889 12.6324 76.93 11.9057 76.8624 11.185C76.7788 10.2979 76.567 9.4275 76.2341 8.60103C75.7526 7.36448 75.0836 6.20938 74.2507 5.17625L75.8106 6.77469C75.9554 6.92868 76.094 7.07497 76.2233 7.23666C78.139 9.45414 78.7457 12.3322 78.7457 15.3258Z" fill="#D1A88B"/>
  <path d="M74.2566 5.17163L72.7814 3.65635L72.6982 3.5732C72.7107 3.57843 72.7221 3.58567 72.7321 3.59476C72.7752 3.6348 72.8261 3.67945 72.8707 3.71795C73.3587 4.14666 73.8094 4.61603 74.2181 5.12082C74.2289 5.13776 74.2459 5.16239 74.2566 5.17163Z" fill="#464646"/>
  <path d="M73.7732 4.40784C73.7857 4.41353 73.7971 4.42123 73.8071 4.43093C74.3485 4.89291 74.8465 5.40385 75.2946 5.95699C75.3054 5.97239 75.3224 5.98933 75.3331 6.00627L73.7732 4.40784Z" fill="#464646"/>
  <path d="M60.5672 29.4084C60.4754 29.148 60.1898 29.0113 59.9294 29.1032C59.6689 29.195 59.5323 29.4806 59.6241 29.741L60.5672 29.4084ZM59.6241 29.741C61.0193 33.6972 61.0093 38.2888 60.0909 42.8126C59.1732 47.3334 57.3549 51.7518 55.1749 55.3397L56.0295 55.859C58.2659 52.1784 60.1288 47.6522 61.0709 43.0116C62.0124 38.3741 62.0409 33.5875 60.5672 29.4084L59.6241 29.741Z" fill="black"/>
  <path d="M27.8345 24.2004L28.1588 24.581L28.159 24.5808L27.8345 24.2004ZM13.9953 48.9592L13.5064 48.8541L13.506 48.8563L13.9953 48.9592ZM12.3691 62.3565L12.8688 62.3757L12.8688 62.3736L12.3691 62.3565ZM57.5689 86.6001C57.844 86.6239 58.0863 86.4201 58.11 86.145C58.1338 85.8699 57.93 85.6276 57.6549 85.6038L57.5689 86.6001ZM48.4163 13.8327C40.6795 13.94 32.9747 19.1586 27.51 23.82L28.159 24.5808C33.6092 19.9318 41.0757 14.9346 48.4301 14.8326L48.4163 13.8327ZM27.5102 23.8198C19.7913 30.3975 15.6 39.1113 13.5064 48.8541L14.4841 49.0642C16.5453 39.4719 20.6511 30.9786 28.1588 24.581L27.5102 23.8198ZM13.506 48.8563C12.5722 53.295 12.0247 57.8061 11.8694 62.3393L12.8688 62.3736C13.0221 57.898 13.5627 53.4443 14.4846 49.0621L13.506 48.8563ZM11.8695 62.3372C11.4822 72.3835 13.4021 78.939 16.7771 83.092C20.1606 87.2554 24.9335 88.9157 30.0432 89.3318C35.1434 89.7471 40.6391 88.9281 45.5409 88.0808C48.0026 87.6553 50.3052 87.2241 52.3612 86.9287C54.4204 86.6329 56.1861 86.4808 57.5689 86.6001L57.6549 85.6038C56.1515 85.4741 54.2906 85.6413 52.219 85.9389C50.1442 86.237 47.8118 86.6734 45.3705 87.0954C40.4663 87.9432 35.0842 88.739 30.1243 88.3351C25.1739 87.9319 20.7045 86.339 17.5532 82.4613C14.3934 78.5732 12.4861 72.2998 12.8687 62.3757L11.8695 62.3372Z" fill="black"/>
  <path d="M44.871 67.586L44.7248 68.0642L44.7248 68.0642L44.871 67.586ZM80.2644 82.8174L79.9069 83.1668L79.9071 83.167L80.2644 82.8174ZM41.1793 47.5814C40.9125 47.5102 40.6385 47.6689 40.5673 47.9357C40.4962 48.2025 40.6548 48.4765 40.9216 48.5476L41.1793 47.5814ZM39.3071 22.4053C39.1813 22.4062 39.0763 22.4478 39.0203 22.4726C38.9534 22.5023 38.8875 22.54 38.826 22.5791C38.7023 22.6577 38.5592 22.7657 38.403 22.8945C38.0885 23.154 37.6864 23.5272 37.2222 23.9969C36.2922 24.938 35.0919 26.2882 33.8152 27.9409C31.2646 31.2423 28.3849 35.7815 26.7548 40.7079C25.1246 45.6347 24.728 51.0037 27.2336 55.9015C29.7399 60.8007 35.0937 65.1184 44.7248 68.0642L45.0172 67.1079C35.5363 64.2081 30.4633 60.0191 28.1239 55.4461C25.7837 50.8717 26.1223 45.8029 27.7042 41.0221C29.2862 36.2409 32.0954 31.8026 34.6065 28.5522C35.8606 26.929 37.0343 25.6097 37.9335 24.6998C38.3839 24.244 38.7601 23.8963 39.0394 23.6659C39.18 23.5498 39.2876 23.4706 39.3622 23.4232C39.3999 23.3992 39.4201 23.3892 39.4256 23.3868C39.4419 23.3796 39.3955 23.4048 39.3136 23.4053L39.3071 22.4053ZM44.7248 68.0642C62.8586 73.608 71.1815 76.9097 75.2075 79.0591C77.2139 80.1303 78.1217 80.8992 78.6434 81.4926C78.906 81.7913 79.0798 82.0552 79.2595 82.3262C79.4376 82.5948 79.6283 82.8819 79.9069 83.1668L80.622 82.4679C80.4174 82.2585 80.2731 82.0453 80.093 81.7737C79.9145 81.5045 79.7072 81.1881 79.3944 80.8323C78.7653 80.1169 77.7454 79.2805 75.6784 78.1769C71.5575 75.9768 63.15 72.6514 45.0172 67.1079L44.7248 68.0642ZM79.9071 83.167C81.2215 84.5104 83.4405 83.7923 83.8483 81.9325C84.0519 81.0038 83.7965 79.8656 82.9272 78.6204C82.0582 77.3758 80.5552 75.9903 78.1817 74.5259L77.6566 75.377C79.9606 76.7985 81.3428 78.098 82.1073 79.1929C82.8713 80.2873 82.9976 81.1432 82.8715 81.7184C82.6197 82.8665 81.3339 83.1955 80.6218 82.4677L79.9071 83.167ZM78.1817 74.5259C75.8884 73.1111 73.4534 71.0078 70.8201 68.5543C68.2046 66.1173 65.3738 63.3155 62.359 60.5853C56.315 55.1118 49.3626 49.7634 41.1793 47.5814L40.9216 48.5476C48.8628 50.6651 55.6673 55.8743 61.6877 61.3265C64.7052 64.0592 67.4835 66.8123 70.1384 69.2859C72.7756 71.743 75.2724 73.906 77.6566 75.377L78.1817 74.5259Z" fill="black"/>
  <path d="M49.6031 39.7122C49.7623 39.4866 49.7084 39.1746 49.4827 39.0154C49.2571 38.8563 48.9451 38.9101 48.7859 39.1358L49.6031 39.7122ZM44.6482 49.2285C45.4742 46.3954 47.9451 42.0624 49.6031 39.7122L48.7859 39.1358C47.1023 41.5224 44.5593 45.9607 43.6882 48.9486L44.6482 49.2285Z" fill="black"/>
  <path d="M79.666 81.0844C79.5083 80.8577 79.1967 80.8016 78.97 80.9593C78.7433 81.1169 78.6873 81.4285 78.8449 81.6552L79.666 81.0844ZM80.1548 82.6633L79.7442 82.9488L79.7462 82.9515L80.1548 82.6633ZM81.5915 85.5153L82.0675 85.3621L82.0663 85.3584L81.5915 85.5153ZM67.5675 98.2396V98.7397L67.5761 98.7395L67.5675 98.2396ZM1.74377 98.0764L1.52871 98.5278L1.52891 98.5279L1.74377 98.0764ZM1.2818 95.9682L0.860855 95.6984L0.860599 95.6988L1.2818 95.9682ZM6.05554 93.4043L6.29224 93.8447L6.29355 93.844L6.05554 93.4043ZM10.0408 89.0263L9.55302 88.9164L9.55297 88.9166L10.0408 89.0263ZM78.8449 81.6552L79.7442 82.9488L80.5653 82.3779L79.666 81.0844L78.8449 81.6552ZM79.7462 82.9515C80.3347 83.7859 80.7965 84.7026 81.1167 85.6721L82.0663 85.3584C81.7151 84.2953 81.2086 83.2901 80.5634 82.3752L79.7462 82.9515ZM81.1155 85.6684C82.0765 88.6555 81.6973 90.8433 80.6628 92.4715C79.6137 94.1226 77.8435 95.2732 75.8884 96.0687C73.939 96.8619 71.8566 97.2813 70.2523 97.5015C69.4521 97.6113 68.7755 97.6709 68.3001 97.7031C68.0625 97.7191 67.8754 97.7283 67.7486 97.7335C67.6851 97.736 67.6368 97.7376 67.6048 97.7385C67.5887 97.739 67.5768 97.7393 67.5691 97.7395C67.5652 97.7395 67.5624 97.7396 67.5607 97.7396C67.5599 97.7397 67.5593 97.7397 67.5589 97.7397C67.5588 97.7397 67.5587 97.7397 67.5587 97.7397C67.5587 97.7397 67.5588 97.7397 67.5675 98.2396C67.5761 98.7395 67.5764 98.7395 67.5767 98.7395C67.5769 98.7395 67.5773 98.7395 67.5776 98.7395C67.5784 98.7395 67.5795 98.7395 67.5808 98.7394C67.5834 98.7394 67.5872 98.7393 67.5919 98.7392C67.6015 98.739 67.6154 98.7386 67.6333 98.7381C67.6692 98.7371 67.7216 98.7354 67.7891 98.7326C67.9242 98.7272 68.1203 98.7175 68.3676 98.7008C68.8619 98.6674 69.5617 98.6056 70.3882 98.4922C72.0373 98.2659 74.2096 97.8314 76.2653 96.995C78.3153 96.1608 80.3007 94.9061 81.5068 93.0078C82.7275 91.0866 83.103 88.5809 82.0675 85.3621L81.1155 85.6684ZM67.5675 97.7396H5.81686V98.7396H67.5675V97.7396ZM5.81686 97.7396C5.49974 97.7396 5.14411 97.761 4.78843 97.7835C4.42704 97.8065 4.06153 97.8309 3.70214 97.8406C2.96129 97.8607 2.35126 97.8117 1.95864 97.6249L1.52891 98.5279C2.15879 98.8276 2.98782 98.8603 3.72914 98.8403C4.11083 98.83 4.49718 98.804 4.85176 98.7815C5.21205 98.7587 5.53649 98.7396 5.81686 98.7396V97.7396ZM1.95884 97.625C1.68631 97.4951 1.55387 97.2889 1.51343 97.0558C1.47036 96.8076 1.53074 96.5069 1.703 96.2376L0.860599 95.6988C0.570881 96.1517 0.437233 96.7027 0.528142 97.2267C0.62167 97.7658 0.951208 98.2526 1.52871 98.5278L1.95884 97.625ZM1.70274 96.2381C2.10694 95.6075 2.79696 95.2162 3.65907 94.8766C4.09102 94.7064 4.52635 94.5633 4.98365 94.3995C5.42868 94.2401 5.88234 94.065 6.29224 93.8447L5.81884 92.9638C5.47804 93.147 5.08301 93.3017 4.64644 93.458C4.22214 93.61 3.74295 93.7687 3.29252 93.9462C2.38989 94.3018 1.44374 94.7891 0.860855 95.6984L1.70274 96.2381ZM6.29355 93.844C8.09109 92.871 10.0131 91.4283 10.5286 89.136L9.55297 88.9166C9.13833 90.7605 7.56489 92.0188 5.81754 92.9645L6.29355 93.844ZM10.5286 89.1362C10.9821 87.1231 11.6823 85.8456 12.4406 85.0437C13.1937 84.2472 14.03 83.8924 14.8144 83.766C15.6075 83.6382 16.3583 83.7428 16.919 83.885C17.1977 83.9556 17.4245 84.0342 17.5798 84.0944C17.6573 84.1244 17.7166 84.1496 17.7552 84.1667C17.7745 84.1752 17.7886 84.1817 17.7972 84.1857C17.8014 84.1877 17.8043 84.1891 17.8058 84.1898C17.8065 84.1902 17.8069 84.1903 17.8069 84.1904C17.8069 84.1904 17.8069 84.1903 17.8067 84.1902C17.8066 84.1902 17.8064 84.1901 17.8064 84.1901C17.8061 84.19 17.8059 84.1898 18.0268 83.7413C18.2477 83.2927 18.2474 83.2926 18.2471 83.2924C18.247 83.2924 18.2466 83.2922 18.2463 83.2921C18.2458 83.2918 18.2452 83.2915 18.2444 83.2911C18.243 83.2904 18.2411 83.2895 18.2389 83.2885C18.2345 83.2863 18.2286 83.2835 18.2212 83.2801C18.2065 83.2732 18.186 83.2638 18.1601 83.2523C18.1081 83.2293 18.0342 83.1979 17.9408 83.1618C17.7543 83.0896 17.4887 82.9977 17.1647 82.9156C16.5202 82.7523 15.625 82.6225 14.6553 82.7787C13.6769 82.9364 12.6335 83.3843 11.714 84.3566C10.7996 85.3236 10.0342 86.781 9.55302 88.9164L10.5286 89.1362Z" fill="black"/>
  <path d="M63.7096 25.6094L63.3353 25.2779L63.3346 25.2788L63.7096 25.6094ZM72.2023 15.9079L72.5914 16.222L72.5919 16.2213L72.2023 15.9079ZM76.7098 13.8446C76.9854 13.8615 77.2225 13.6518 77.2395 13.3762C77.2564 13.1006 77.0467 12.8634 76.7711 12.8465L76.7098 13.8446ZM60.469 30.0241C61.3765 29.0041 62.6752 27.5391 64.0847 25.94L63.3346 25.2788C61.9261 26.8766 60.6284 28.3405 59.7219 29.3594L60.469 30.0241ZM64.084 25.9409C67.5347 22.0444 71.7119 17.3116 72.5914 16.222L71.8132 15.5939C70.9525 16.6602 66.7988 21.367 63.3353 25.2779L64.084 25.9409ZM72.5919 16.2213C74.2801 14.1226 76.3163 13.8204 76.7098 13.8446L76.7711 12.8465C76.062 12.8029 73.7094 13.2367 71.8127 15.5945L72.5919 16.2213Z" fill="black"/>
  <path d="M63.9506 25.1714C63.7087 25.0382 63.4046 25.1264 63.2715 25.3684C63.1384 25.6103 63.2266 25.9144 63.4685 26.0475L63.9506 25.1714ZM63.899 25.6987L64.0863 25.2351L64.083 25.2338L63.899 25.6987ZM68.4094 24.8179L68.7438 25.1897L68.744 25.1894L68.4094 24.8179ZM71.2552 22.97L71.0733 23.4358L71.0811 23.4387L71.2552 22.97ZM72.6411 20.6817L72.1503 20.5862L72.1498 20.5886L72.6411 20.6817ZM76.7342 13.3471L77.2234 13.4506L77.2235 13.45L76.7342 13.3471ZM76.2276 8.60258L75.7616 8.78402L75.7624 8.78586L76.2276 8.60258ZM74.2442 5.17781L73.8223 5.44625C73.8323 5.46197 73.8432 5.47712 73.8549 5.49163L74.2442 5.17781ZM74.2057 5.12699L74.6275 4.85855C74.6172 4.84241 74.606 4.82687 74.594 4.81201L74.2057 5.12699ZM72.7181 3.60093L72.3645 3.95448C72.3738 3.96371 72.3834 3.97257 72.3933 3.98104L72.7181 3.60093ZM72.6858 3.57937L72.3622 3.96057C72.4028 3.99504 72.4487 4.0228 72.498 4.0428L72.6858 3.57937ZM57.516 4.03057L57.2159 3.63066L57.2112 3.63426L57.516 4.03057ZM57.2204 4.27541L56.892 3.89834L56.8871 3.90267L57.2204 4.27541ZM49.547 11.1357L49.88 11.5087L49.8802 11.5085L49.547 11.1357ZM48.3769 13.4726L47.8788 13.4294L47.8788 13.4295L48.3769 13.4726ZM49.1281 15.9757L48.736 16.2859L48.7374 16.2877L49.1281 15.9757ZM60.0831 29.6979L60.5543 29.5306C60.5357 29.4783 60.5085 29.4294 60.4738 29.386L60.0831 29.6979ZM60.4111 30.6219L59.9399 30.7891L59.9404 30.7907L60.4111 30.6219ZM64.2701 41.3813V41.8813C64.4328 41.8813 64.5854 41.8021 64.679 41.669C64.7727 41.5359 64.7957 41.3656 64.7408 41.2125L64.2701 41.3813ZM63.4685 26.0475C63.5477 26.091 63.6298 26.1299 63.715 26.1637L64.083 25.2338C64.0382 25.2161 63.9941 25.1953 63.9506 25.1714L63.4685 26.0475ZM63.7117 26.1623C65.4321 26.8575 67.3917 26.4059 68.7438 25.1897L68.075 24.4462C66.9756 25.4351 65.4149 25.7719 64.0863 25.2352L63.7117 26.1623ZM68.744 25.1894C69.3877 24.6097 69.9568 24.12 70.4181 23.7991C70.6497 23.638 70.8327 23.5348 70.9687 23.4817C71.1191 23.4229 71.129 23.4575 71.0733 23.4358L71.437 22.5043C71.1389 22.3878 70.8324 22.4613 70.6047 22.5503C70.3626 22.6449 70.1055 22.7985 69.8471 22.9782C69.3282 23.3391 68.717 23.8681 68.0748 24.4464L68.744 25.1894ZM71.0811 23.4387C71.2522 23.5023 71.4988 23.5984 71.7341 23.6005C71.8726 23.6018 72.022 23.573 72.1656 23.4896C72.3048 23.4087 72.4062 23.2953 72.4824 23.178C72.6243 22.9596 72.7233 22.6549 72.8147 22.2935C72.9095 21.9184 73.01 21.4203 73.1324 20.7748L72.1498 20.5886C72.0273 21.2351 71.9317 21.706 71.8452 22.0484C71.7551 22.4045 71.6876 22.5658 71.6437 22.6334C71.627 22.6591 71.6308 22.6437 71.6633 22.6249C71.7002 22.6034 71.7339 22.6005 71.7434 22.6006C71.7446 22.6006 71.7234 22.6001 71.6629 22.5825C71.6031 22.5651 71.5309 22.5391 71.4293 22.5013L71.0811 23.4387ZM73.1319 20.7772C73.2026 20.4137 73.4117 20.0046 73.7454 19.5122C74.08 19.0186 74.4938 18.5046 74.9508 17.9003C75.8449 16.7179 76.8372 15.2748 77.2234 13.4506L76.2451 13.2435C75.9075 14.838 75.0342 16.132 74.1531 17.2972C73.7225 17.8667 73.2714 18.4292 72.9177 18.9511C72.5631 19.4741 72.2605 20.0196 72.1503 20.5862L73.1319 20.7772ZM77.2235 13.45C77.5279 12.0024 77.4507 10.3431 76.6928 8.41931L75.7624 8.78586C76.452 10.5363 76.5072 11.9969 76.2449 13.2442L77.2235 13.45ZM76.6935 8.42115C76.1933 7.13679 75.4985 5.93705 74.6334 4.86398L73.8549 5.49163C74.6556 6.48483 75.2987 7.59526 75.7617 8.78402L76.6935 8.42115ZM74.666 4.90937C74.6522 4.88775 74.6393 4.87042 74.6308 4.85939C74.6225 4.8487 74.6146 4.83904 74.6119 4.83579C74.6076 4.83057 74.6086 4.83176 74.6104 4.83398C74.6123 4.83654 74.6191 4.8454 74.6275 4.85855L73.7838 5.39543C73.7976 5.41705 73.8105 5.43438 73.8191 5.44541C73.8273 5.45609 73.8353 5.46575 73.8379 5.469C73.8422 5.47423 73.8412 5.47304 73.8395 5.47082C73.8375 5.46826 73.8307 5.4594 73.8223 5.44625L74.666 4.90937ZM74.594 4.81201C74.1264 4.23555 73.6071 3.70296 73.0429 3.22082L72.3933 3.98104C72.9113 4.42377 73.3881 4.91277 73.8173 5.44197L74.594 4.81201ZM73.0717 3.24738C73.0172 3.1929 72.9504 3.14713 72.8735 3.11595L72.498 4.0428C72.4454 4.02148 72.4005 3.99049 72.3645 3.95448L73.0717 3.24738ZM73.0093 3.19818C69.017 -0.19048 63.0546 -0.751904 57.2159 3.63069L57.8162 4.43045C63.3144 0.303459 68.7565 0.900055 72.3622 3.96057L73.0093 3.19818ZM57.2112 3.63426C57.0993 3.72033 56.9904 3.81265 56.892 3.89837L57.5488 4.65246C57.6413 4.57187 57.7326 4.4948 57.8209 4.42688L57.2112 3.63426ZM56.8871 3.90267L49.2137 10.763L49.8802 11.5085L57.5536 4.64816L56.8871 3.90267ZM49.214 10.7628C48.4454 11.449 47.9677 12.4028 47.8788 13.4294L48.8751 13.5157C48.942 12.7431 49.3015 12.0252 49.88 11.5087L49.214 10.7628ZM47.8788 13.4295C47.7901 14.4561 48.0967 15.4778 48.736 16.2859L49.5203 15.6655C49.0391 15.0572 48.8083 14.2883 48.8751 13.5156L47.8788 13.4295ZM48.7374 16.2877L59.6923 30.0099L60.4738 29.386L49.5189 15.6638L48.7374 16.2877ZM59.6119 29.8652L59.9399 30.7891L60.8823 30.4546L60.5543 29.5306L59.6119 29.8652ZM59.9404 30.7907L63.7995 41.5501L64.7408 41.2125L60.8817 30.4531L59.9404 30.7907ZM64.2701 40.8813H60.853V41.8813H64.2701V40.8813Z" fill="black"/>
  <path d="M72.9434 17.4999C73.1473 17.6861 73.4635 17.6717 73.6497 17.4678C73.8359 17.2639 73.8216 16.9476 73.6177 16.7614L72.9434 17.4999ZM71.7483 16.5486C71.8215 17.0432 71.8212 17.0432 71.821 17.0432C71.8209 17.0433 71.8207 17.0433 71.8205 17.0433C71.8202 17.0434 71.8199 17.0434 71.8196 17.0434C71.8191 17.0435 71.8185 17.0436 71.818 17.0437C71.8171 17.0438 71.8163 17.0439 71.8156 17.044C71.8144 17.0442 71.8138 17.0442 71.8138 17.0442C71.8139 17.0442 71.8166 17.0439 71.8217 17.0435C71.8319 17.0427 71.8516 17.0416 71.8794 17.0416C71.935 17.0418 72.0217 17.0468 72.1289 17.0686C72.3405 17.1116 72.6378 17.2209 72.9434 17.4999L73.6177 16.7614C73.1609 16.3444 72.6921 16.1626 72.3282 16.0886C72.1476 16.0519 71.9942 16.0419 71.8817 16.0416C71.8253 16.0415 71.7789 16.0438 71.744 16.0465C71.7266 16.0479 71.712 16.0494 71.7004 16.0507C71.6947 16.0513 71.6897 16.052 71.6854 16.0525C71.6833 16.0528 71.6814 16.053 71.6797 16.0533C71.6788 16.0534 71.678 16.0535 71.6772 16.0536C71.6768 16.0537 71.6765 16.0537 71.6761 16.0538C71.6759 16.0538 71.6757 16.0539 71.6756 16.0539C71.6753 16.0539 71.6751 16.0539 71.7483 16.5486Z" fill="black"/>
  <path d="M71.6335 18.3673C71.9331 18.0181 71.9986 17.5827 71.7799 17.395C71.5611 17.2073 71.1409 17.3382 70.8412 17.6875C70.5415 18.0366 70.4761 18.4719 70.6949 18.6596C70.9137 18.8473 71.334 18.7164 71.6335 18.3673Z" fill="black"/>
  <path d="M73.0565 3.22416C72.8637 3.02643 72.5471 3.02242 72.3494 3.21519C72.1517 3.40796 72.1477 3.72451 72.3404 3.92224L73.0565 3.22416ZM74.2568 5.17163L73.8988 5.52067L73.899 5.52085L74.2568 5.17163ZM75.8168 6.77007L76.1746 6.42087L76.1746 6.42085L75.8168 6.77007ZM78.7426 27.4019H78.2426L78.2426 27.4031L78.7426 27.4019ZM75.4857 32.2757L75.6744 32.7387L75.6759 32.7381L75.4857 32.2757ZM63.9055 34.698H63.4055C63.4055 34.8337 63.4607 34.9636 63.5583 35.0578C63.656 35.152 63.7877 35.2025 63.9233 35.1977L63.9055 34.698ZM72.3404 3.92224L73.8988 5.52067L74.6148 4.82259L73.0565 3.22416L72.3404 3.92224ZM73.899 5.52085L75.4589 7.11928L76.1746 6.42085L74.6147 4.82241L73.899 5.52085ZM75.4589 7.11926C77.5625 9.27508 78.2426 12.1906 78.2426 15.3289H79.2426C79.2426 12.0643 78.5368 8.84169 76.1746 6.42087L75.4589 7.11926ZM78.2426 15.3289V27.4019H79.2426V15.3289H78.2426ZM78.2426 27.4031C78.245 28.3477 77.966 29.2717 77.4411 30.0571L78.2726 30.6128C78.9079 29.6621 79.2455 28.5438 79.2426 27.4006L78.2426 27.4031ZM77.4411 30.0571C76.9162 30.8426 76.1694 31.4539 75.2955 31.8133L75.6759 32.7381C76.7334 32.3032 77.6373 31.5634 78.2726 30.6128L77.4411 30.0571ZM75.2969 31.8127C72.7663 32.8444 69.4374 34.0008 63.8877 34.1983L63.9233 35.1977C69.6212 34.9949 73.0679 33.8013 75.6744 32.7387L75.2969 31.8127ZM64.4055 34.698V25.6987H63.4055V34.698H64.4055Z" fill="black"/>
  <path d="M94.6976 76.0419C95.2844 76.0419 95.7601 75.566 95.7601 74.9792C95.7601 74.3925 95.2844 73.9166 94.6976 73.9166C94.1107 73.9166 93.635 74.3925 93.635 74.9792C93.635 75.566 94.1107 76.0419 94.6976 76.0419Z" fill="#464646"/>
  <path d="M123.973 93.0593H124.473C124.473 92.834 124.322 92.6364 124.105 92.577L123.973 93.0593ZM123.973 95.8096V96.3096C124.249 96.3096 124.473 96.0858 124.473 95.8096H123.973ZM123.665 95.8096V95.3096L123.664 95.3096L123.665 95.8096ZM122.77 96.1814L122.416 95.8279L122.416 95.828L122.77 96.1814ZM122.784 97.9875L123.132 97.6286L123.132 97.6284L122.784 97.9875ZM123.706 98.3443L123.692 97.8445L123.69 97.8446L123.706 98.3443ZM132.455 81.9596L131.961 82.0412L131.961 82.0412L132.455 81.9596ZM117.122 76.6823L117.464 77.0466L117.464 77.0465L117.122 76.6823ZM122.622 82.5725L122.956 82.9446L122.958 82.9427L122.622 82.5725ZM124.467 81.3658C124.643 81.1533 124.614 80.838 124.401 80.6617C124.189 80.4853 123.874 80.5146 123.697 80.7271L124.467 81.3658ZM120.962 87.7336C120.452 90.029 121.128 91.506 121.997 92.4C122.42 92.8353 122.875 93.1177 123.221 93.2914C123.395 93.3787 123.545 93.4396 123.653 93.4794C123.707 93.4994 123.751 93.5141 123.783 93.5242C123.799 93.5293 123.812 93.5332 123.822 93.5361C123.827 93.5376 123.831 93.5387 123.834 93.5396C123.835 93.5401 123.837 93.5405 123.838 93.5408C123.839 93.541 123.839 93.5411 123.84 93.5413C123.84 93.5413 123.84 93.5414 123.84 93.5415C123.841 93.5416 123.841 93.5416 123.973 93.0593C124.105 92.577 124.105 92.5771 124.105 92.5772C124.105 92.5772 124.105 92.5772 124.106 92.5773C124.106 92.5774 124.106 92.5774 124.106 92.5775C124.107 92.5776 124.107 92.5776 124.107 92.5776C124.107 92.5776 124.106 92.5773 124.104 92.5768C124.101 92.5759 124.094 92.5739 124.085 92.571C124.067 92.5652 124.037 92.5554 123.998 92.541C123.92 92.5123 123.806 92.4658 123.669 92.3974C123.395 92.2599 123.04 92.0384 122.714 91.7029C122.085 91.0555 121.5 89.9238 121.938 87.9506L120.962 87.7336ZM123.473 93.0593V95.8096H124.473V93.0593H123.473ZM123.973 95.3096H123.665V96.3096H123.973V95.3096ZM123.664 95.3096C123.196 95.3103 122.747 95.4967 122.416 95.8279L123.123 96.5348C123.267 96.3908 123.462 96.3099 123.665 96.3096L123.664 95.3096ZM122.416 95.828C122.085 96.1594 121.899 96.6086 121.899 97.077H122.899C122.899 96.8736 122.98 96.6786 123.123 96.5347L122.416 95.828ZM121.899 97.077C121.899 97.3136 121.946 97.5481 122.039 97.7663L122.96 97.3766C122.92 97.2819 122.899 97.18 122.899 97.077H121.899ZM122.039 97.7663C122.131 97.9843 122.266 98.1818 122.436 98.3467L123.132 97.6284C123.059 97.5571 123 97.4715 122.96 97.3766L122.039 97.7663ZM122.436 98.3465C122.606 98.5114 122.808 98.6405 123.029 98.726L123.389 97.7933C123.294 97.7562 123.206 97.7002 123.132 97.6286L122.436 98.3465ZM123.029 98.726C123.25 98.8114 123.486 98.8516 123.722 98.8441L123.69 97.8446C123.588 97.8478 123.485 97.8304 123.389 97.7933L123.029 98.726ZM123.72 98.8441C125.305 98.7999 128.247 98.2967 130.481 95.8792C132.731 93.4464 134.158 89.1924 132.948 81.878L131.961 82.0412C133.142 89.1789 131.712 93.0749 129.747 95.2003C127.768 97.341 125.14 97.8041 123.692 97.8445L123.72 98.8441ZM132.948 81.878C132.512 79.2454 131.583 77.2835 130.33 75.9015C129.075 74.5171 127.52 73.7414 125.883 73.4463C122.631 72.8601 119.066 74.1674 116.779 76.3181L117.464 77.0465C119.554 75.081 122.808 73.9083 125.705 74.4304C127.143 74.6896 128.494 75.3651 129.589 76.5731C130.686 77.7835 131.55 79.5551 131.961 82.0412L132.948 81.878ZM116.779 76.3181C115.729 77.3056 115.294 78.4752 115.334 79.6163C115.373 80.7444 115.875 81.807 116.628 82.6135C117.381 83.4201 118.41 83.9954 119.537 84.1202C120.677 84.2463 121.884 83.9073 122.956 82.9446L122.288 82.2004C121.421 82.9786 120.496 83.2201 119.647 83.1262C118.787 83.031 117.97 82.5857 117.359 81.9309C116.747 81.276 116.363 80.4364 116.333 79.5814C116.304 78.7392 116.616 77.8445 117.464 77.0466L116.779 76.3181ZM122.958 82.9427C123.498 82.4532 124.002 81.9262 124.467 81.3658L123.697 80.7271C123.262 81.2514 122.791 81.7444 122.286 82.2023L122.958 82.9427Z" fill="black"/>
  <path d="M120.939 95.8096V96.3096C121.215 96.3096 121.439 96.0858 121.439 95.8096H120.939ZM120.631 95.8096L120.629 96.3096H120.631V95.8096ZM120.145 95.9051L119.954 95.4428L119.954 95.443L120.145 95.9051ZM119.732 96.1804L120.086 96.534L120.086 96.5337L119.732 96.1804ZM119.457 96.5933L118.995 96.4031L118.995 96.4033L119.457 96.5933ZM119.362 97.08H119.862L119.862 97.0777L119.362 97.08ZM119.749 97.9897L120.096 97.6298L120.096 97.6298L119.749 97.9897ZM120.671 98.3428L120.657 97.843L120.653 97.8431L120.671 98.3428ZM122.958 98.5066C123.225 98.4342 123.382 98.1595 123.31 97.893C123.237 97.6265 122.963 97.4691 122.696 97.5415L122.958 98.5066ZM120.439 93.1471V95.8096H121.439V93.1471H120.439ZM120.939 95.3096H120.631V96.3096H120.939V95.3096ZM120.633 95.3096C120.4 95.3088 120.169 95.3541 119.954 95.4428L120.335 96.3674C120.429 96.3289 120.529 96.3092 120.629 96.3096L120.633 95.3096ZM119.954 95.443C119.739 95.5318 119.543 95.6622 119.379 95.8271L120.086 96.5337C120.157 96.4625 120.242 96.4059 120.336 96.3672L119.954 95.443ZM119.379 95.8269C119.214 95.992 119.083 96.1881 118.995 96.4031L119.92 96.7834C119.958 96.6899 120.015 96.6051 120.086 96.534L119.379 95.8269ZM118.995 96.4033C118.907 96.6186 118.861 96.8493 118.862 97.0824L119.862 97.0777C119.862 96.9769 119.881 96.8769 119.92 96.7833L118.995 96.4033ZM118.862 97.08C118.862 97.3167 118.91 97.5512 119.003 97.7696L119.923 97.3788C119.883 97.2846 119.862 97.1831 119.862 97.08H118.862ZM119.003 97.7696C119.095 97.9877 119.231 98.185 119.401 98.3495L120.096 97.6298C120.022 97.5588 119.963 97.4733 119.923 97.3788L119.003 97.7696ZM119.401 98.3495C119.572 98.5142 119.774 98.6425 119.995 98.7272L120.353 97.7932C120.257 97.7566 120.17 97.7011 120.096 97.6298L119.401 98.3495ZM119.995 98.7272C120.217 98.8118 120.453 98.8513 120.69 98.8424L120.653 97.8431C120.551 97.8469 120.449 97.83 120.353 97.7932L119.995 98.7272ZM120.686 98.8426C121.454 98.8207 122.217 98.7078 122.958 98.5066L122.696 97.5415C122.031 97.7221 121.346 97.8233 120.657 97.843L120.686 98.8426Z" fill="black"/>
  <path d="M104.508 98.5759C104.776 98.5102 104.94 98.2396 104.874 97.9713C104.809 97.7031 104.538 97.5389 104.27 97.6046L104.508 98.5759ZM102.513 98.3413L102.5 97.8414L102.495 97.8416L102.513 98.3413ZM102.017 98.2587L102.196 97.7919L102.196 97.7918L102.017 98.2587ZM101.593 97.9883L101.941 97.6291L101.94 97.6289L101.593 97.9883ZM101.309 97.5733L100.848 97.7673L100.848 97.7675L101.309 97.5733ZM101.21 97.0801L101.71 97.0819L101.71 97.0817L101.21 97.0801ZM101.581 96.1823L101.937 96.5341L101.939 96.5312L101.581 96.1823ZM101.99 95.9043L102.182 96.366L102.183 96.3659L101.99 95.9043ZM102.476 95.8096L102.471 96.3096H102.476V95.8096ZM102.784 95.8096V96.3096C103.06 96.3096 103.284 96.0858 103.284 95.8096H102.784ZM102.784 93.0609H103.284C103.284 92.7929 103.073 92.5725 102.805 92.5613L102.784 93.0609ZM100.026 87.839L99.526 87.84L99.5261 87.846L100.026 87.839ZM104.27 97.6046C103.69 97.7466 103.097 97.826 102.5 97.8414L102.526 98.8411C103.194 98.8238 103.858 98.7348 104.508 98.5759L104.27 97.6046ZM102.495 97.8416C102.393 97.8453 102.291 97.8284 102.196 97.7919L101.838 98.7255C102.059 98.8104 102.295 98.8495 102.531 98.8409L102.495 97.8416ZM102.196 97.7918C102.101 97.7555 102.014 97.7001 101.941 97.6291L101.245 98.3475C101.415 98.5121 101.617 98.6409 101.838 98.7256L102.196 97.7918ZM101.94 97.6289C101.867 97.5581 101.809 97.4732 101.77 97.3791L100.848 97.7675C100.94 97.9854 101.075 98.1829 101.245 98.3477L101.94 97.6289ZM101.77 97.3793C101.73 97.2853 101.71 97.1843 101.71 97.0819L100.71 97.0782C100.709 97.3146 100.756 97.549 100.848 97.7673L101.77 97.3793ZM101.71 97.0817C101.711 96.8767 101.792 96.68 101.937 96.5341L101.226 95.8305C100.897 96.1626 100.712 96.6108 100.71 97.0785L101.71 97.0817ZM101.939 96.5312C102.009 96.46 102.092 96.4038 102.182 96.366L101.799 95.4427C101.582 95.5327 101.386 95.6659 101.223 95.8334L101.939 96.5312ZM102.183 96.3659C102.274 96.3277 102.373 96.3086 102.471 96.3096L102.481 95.3097C102.247 95.3073 102.014 95.3528 101.798 95.4428L102.183 96.3659ZM102.476 96.3096H102.784V95.3096H102.476V96.3096ZM103.284 95.8096V93.0609H102.284V95.8096H103.284ZM102.784 93.0609C102.805 92.5613 102.805 92.5613 102.806 92.5614C102.806 92.5614 102.806 92.5614 102.807 92.5614C102.807 92.5614 102.808 92.5614 102.808 92.5615C102.809 92.5615 102.81 92.5615 102.81 92.5616C102.812 92.5617 102.812 92.5617 102.812 92.5617C102.813 92.5617 102.81 92.5616 102.806 92.5611C102.797 92.5602 102.78 92.5581 102.756 92.5537C102.707 92.545 102.629 92.5274 102.531 92.4926C102.338 92.4234 102.064 92.2855 101.781 92.0088C101.224 91.4624 100.56 90.3012 100.526 87.8321L99.5261 87.846C99.5627 90.4863 100.278 91.936 101.082 92.7232C101.48 93.1133 101.882 93.3228 102.195 93.4343C102.35 93.4899 102.483 93.521 102.581 93.5384C102.63 93.5471 102.671 93.5524 102.702 93.5556C102.717 93.5572 102.73 93.5583 102.74 93.5591C102.745 93.5595 102.75 93.5597 102.754 93.56C102.756 93.5601 102.757 93.5602 102.759 93.5602C102.76 93.5603 102.76 93.5603 102.761 93.5604C102.761 93.5604 102.762 93.5604 102.762 93.5604C102.763 93.5604 102.763 93.5604 102.784 93.0609ZM100.526 87.838L100.511 80.2524L99.5106 80.2544L99.526 87.84L100.526 87.838Z" fill="black"/>
  <path d="M115.918 80.7518C116.194 80.7518 116.418 80.528 116.418 80.2518C116.418 79.9757 116.194 79.7518 115.918 79.7518V80.7518ZM113.562 80.7518H115.918V79.7518H113.562V80.7518Z" fill="black"/>
  <path d="M105.44 91.9229H105.94C105.94 91.7856 105.884 91.6543 105.784 91.5599C105.684 91.4654 105.55 91.4162 105.413 91.4236L105.44 91.9229ZM105.44 95.8096V96.3096C105.716 96.3096 105.94 96.0858 105.94 95.8096H105.44ZM105.132 95.8096L105.131 96.3096H105.132V95.8096ZM103.9 97.3973L103.416 97.5231L103.42 97.5358L103.9 97.3973ZM105.237 98.3412L105.219 97.8414L105.207 97.8422L105.237 98.3412ZM112.615 93.4535L112.902 93.0441C112.782 92.96 112.631 92.9327 112.489 92.9696C112.347 93.0065 112.229 93.1037 112.165 93.2356L112.615 93.4535ZM115.938 94.8887L115.939 94.3887H115.938V94.8887ZM122.589 92.2017C122.762 91.9862 122.727 91.6715 122.512 91.4988C122.296 91.3261 121.982 91.3608 121.809 91.5763L122.589 92.2017ZM102.431 87.7333C102.18 88.8597 102.209 89.7444 102.437 90.4368C102.668 91.1379 103.09 91.6033 103.551 91.9025C104.003 92.1963 104.481 92.3235 104.835 92.3794C105.013 92.4076 105.166 92.4185 105.276 92.4223C105.331 92.4242 105.376 92.4243 105.408 92.4239C105.424 92.4237 105.438 92.4233 105.448 92.423C105.452 92.4228 105.457 92.4226 105.46 92.4225C105.462 92.4224 105.463 92.4223 105.464 92.4223C105.465 92.4222 105.465 92.4222 105.466 92.4222C105.466 92.4222 105.466 92.4222 105.467 92.4222C105.467 92.4221 105.467 92.4221 105.44 91.9229C105.413 91.4236 105.414 91.4236 105.414 91.4236C105.414 91.4235 105.414 91.4235 105.414 91.4235C105.415 91.4235 105.415 91.4235 105.415 91.4235C105.415 91.4235 105.416 91.4235 105.416 91.4235C105.415 91.4235 105.415 91.4235 105.413 91.4236C105.41 91.4237 105.404 91.4238 105.395 91.424C105.377 91.4242 105.348 91.4242 105.31 91.4229C105.234 91.4203 105.122 91.4125 104.991 91.3916C104.723 91.3493 104.392 91.2567 104.095 91.0639C103.807 90.8765 103.54 90.5885 103.387 90.1243C103.231 89.6513 103.183 88.9588 103.407 87.9509L102.431 87.7333ZM104.94 91.9229V95.8096H105.94V91.9229H104.94ZM105.44 95.3096H105.132V96.3096H105.44V95.3096ZM105.134 95.3096C104.863 95.3088 104.596 95.3702 104.353 95.4889L104.791 96.3875C104.897 96.3359 105.013 96.3092 105.131 96.3096L105.134 95.3096ZM104.353 95.4889C104.109 95.6076 103.897 95.7804 103.731 95.9941L104.521 96.6072C104.593 96.5142 104.686 96.4391 104.791 96.3875L104.353 95.4889ZM103.731 95.9941C103.565 96.2079 103.45 96.4567 103.396 96.722L104.375 96.9234C104.399 96.8083 104.449 96.7003 104.521 96.6072L103.731 95.9941ZM103.396 96.722C103.341 96.9869 103.348 97.2609 103.416 97.523L104.384 97.2715C104.355 97.1579 104.352 97.0389 104.375 96.9234L103.396 96.722ZM103.42 97.5358C103.534 97.9306 103.779 98.2752 104.115 98.5124L104.691 97.6955C104.541 97.5895 104.432 97.4355 104.381 97.2588L103.42 97.5358ZM104.115 98.5124C104.45 98.7494 104.857 98.8652 105.267 98.8403L105.207 97.8422C105.023 97.8533 104.842 97.8016 104.691 97.6955L104.115 98.5124ZM105.255 98.8409C107.277 98.7664 110.972 97.9926 113.065 93.6714L112.165 93.2356C110.296 97.0945 107.04 97.7744 105.219 97.8416L105.255 98.8409ZM112.328 93.863C112.644 94.0845 112.893 94.2776 113.142 94.4617C113.385 94.6412 113.624 94.8103 113.886 94.951C114.433 95.2451 115.027 95.3887 115.938 95.3887V94.3887C115.148 94.3887 114.726 94.2675 114.36 94.0704C114.165 93.9654 113.973 93.8323 113.737 93.6579C113.508 93.488 113.232 93.2753 112.902 93.0441L112.328 93.863ZM115.937 95.3887C117.214 95.3909 118.475 95.1054 119.627 94.5537L119.195 93.6518C118.178 94.1387 117.065 94.3906 115.939 94.3887L115.937 95.3887ZM119.627 94.5537C120.778 94.002 121.791 93.198 122.589 92.2017L121.809 91.5763C121.104 92.4556 120.211 93.165 119.195 93.6518L119.627 94.5537Z" fill="black"/>
  <path d="M102.756 80.7534C103.032 80.7534 103.256 80.5295 103.256 80.2534C103.256 79.9772 103.032 79.7534 102.756 79.7534V80.7534ZM98.2317 80.2534L98.2312 80.7534H98.2317V80.2534ZM96.089 79.3636L95.7352 79.7169H95.7352L96.089 79.3636ZM95.2026 77.2197L95.7026 77.22V77.2197H95.2026ZM95.2026 76.4313H95.7026L95.7026 76.4309L95.2026 76.4313ZM102.756 79.7534H98.2317V80.7534H102.756V79.7534ZM98.2321 79.7534C97.5607 79.7527 96.9173 79.4855 96.4429 79.0104L95.7352 79.7169C96.3969 80.3797 97.2946 80.7525 98.2312 80.7534L98.2321 79.7534ZM96.4429 79.0104C95.9686 78.5353 95.7023 77.8913 95.7026 77.22L94.7026 77.2195C94.7021 78.1559 95.0736 79.0543 95.7352 79.7169L96.4429 79.0104ZM95.7026 77.2197V76.4313H94.7026V77.2197H95.7026ZM95.7026 76.4309C95.7025 76.2846 95.7131 76.1387 95.7343 75.9943L94.7449 75.8489C94.7165 76.042 94.7025 76.2368 94.7026 76.4318L95.7026 76.4309Z" fill="black"/>
  <path d="M96.3239 73.7118L95.97 73.3586L95.9689 73.3596L96.3239 73.7118ZM97.57 72.8787L97.761 73.3408L97.7612 73.3407L97.57 72.8787ZM99.0403 72.5877L99.0394 73.0877C99.1721 73.0879 99.2996 73.0353 99.3935 72.9415C99.4875 72.8477 99.5403 72.7203 99.5403 72.5876L99.0403 72.5877ZM99.3958 70.7989L98.9339 70.6075L98.9339 70.6075L99.3958 70.7989ZM101.926 68.2708L101.735 67.8087L101.735 67.8087L101.926 68.2708ZM103.715 67.9171L103.715 68.4171H103.715V67.9171ZM105.169 67.9171L105.169 67.4171H105.169V67.9171ZM111.106 70.3771L110.752 70.7306L110.752 70.7307L111.106 70.3771ZM105.43 74.8437C105.43 74.5675 105.207 74.3437 104.93 74.3437C104.654 74.3437 104.43 74.5675 104.43 74.8437H105.43ZM96.1421 74.7697C96.2893 74.5119 96.4697 74.2747 96.6788 74.064L95.9689 73.3596C95.6982 73.6325 95.4644 73.9398 95.2736 74.274L96.1421 74.7697ZM96.6777 74.0651C96.9877 73.7545 97.3558 73.5083 97.761 73.3408L97.3789 72.4167C96.8516 72.6347 96.3729 72.9549 95.97 73.3586L96.6777 74.0651ZM97.7612 73.3407C98.1665 73.1729 98.6009 73.0869 99.0394 73.0877L99.0412 72.0877C98.4707 72.0866 97.9057 72.1986 97.3787 72.4167L97.7612 73.3407ZM99.5403 72.5876C99.5401 72.0394 99.6479 71.4967 99.8577 70.9903L98.9339 70.6075C98.6737 71.2355 98.5401 71.9083 98.5403 72.5878L99.5403 72.5876ZM99.8577 70.9904C100.068 70.484 100.375 70.0239 100.763 69.6366L100.056 68.9291C99.5752 69.4094 99.194 69.9799 98.9339 70.6075L99.8577 70.9904ZM100.763 69.6366C101.151 69.2493 101.611 68.9422 102.117 68.7329L101.735 67.8087C101.108 68.0682 100.537 68.4489 100.056 68.9291L100.763 69.6366ZM102.117 68.733C102.624 68.5237 103.167 68.4163 103.715 68.4171L103.716 67.4171C103.037 67.4161 102.363 67.5493 101.735 67.8087L102.117 68.733ZM103.715 68.4171H105.169V67.4171H103.715V68.4171ZM105.169 68.4171C107.263 68.4174 109.272 69.2495 110.752 70.7306L111.459 70.0236C109.791 68.355 107.529 67.4174 105.169 67.4171L105.169 68.4171ZM110.752 70.7307C112.233 72.2116 113.065 74.22 113.065 76.3143H114.065C114.065 73.9548 113.128 71.6921 111.459 70.0236L110.752 70.7307ZM113.065 76.3143V81.5315H114.065V76.3143H113.065ZM113.065 81.5315C113.065 82.5438 112.663 83.5148 111.947 84.2305L112.654 84.9377C113.557 84.0344 114.065 82.8091 114.065 81.5315H113.065ZM111.947 84.2305C111.231 84.9465 110.26 85.3487 109.248 85.3487V86.3487C110.525 86.3487 111.75 85.8411 112.654 84.9377L111.947 84.2305ZM109.248 85.3487C108.235 85.3487 107.264 84.9465 106.548 84.2305L105.841 84.9377C106.745 85.8411 107.97 86.3487 109.248 86.3487V85.3487ZM106.548 84.2305C105.833 83.5148 105.43 82.5438 105.43 81.5315H104.43C104.43 82.8091 104.938 84.0344 105.841 84.9377L106.548 84.2305ZM105.43 81.5315V74.8437H104.43V81.5315H105.43Z" fill="black"/>
  <path d="M94.7528 76.0417L94.7578 75.5417L94.7537 75.5417L94.7528 76.0417ZM94.2131 75.8934L93.9583 76.3236L93.9584 76.3237L94.2131 75.8934ZM93.8237 75.491L94.262 75.2504L94.2617 75.2499L93.8237 75.491ZM93.6926 74.9468L93.1929 74.9314L93.1928 74.9318L93.6926 74.9468ZM94.8178 73.9186L94.7878 74.4177L94.7882 74.4177L94.8178 73.9186ZM95.2625 74.7371C95.3814 74.9863 95.6798 75.092 95.9291 74.9731C96.1783 74.8542 96.2839 74.5557 96.165 74.3065L95.2625 74.7371ZM95.0111 75.48C94.9332 75.5214 94.8461 75.5426 94.7578 75.5417L94.7479 76.5417C95.003 76.5442 95.2547 76.4829 95.4801 76.3632L95.0111 75.48ZM94.7537 75.5417C94.6532 75.5416 94.5544 75.5144 94.4678 75.4631L93.9584 76.3237C94.1986 76.4658 94.4727 76.5413 94.752 76.5417L94.7537 75.5417ZM94.4679 75.4632C94.3814 75.412 94.3103 75.3385 94.262 75.2504L93.3854 75.7316C93.5199 75.9768 93.7177 76.1811 93.9583 76.3236L94.4679 75.4632ZM94.2617 75.2499C94.2133 75.1621 94.1894 75.0627 94.1924 74.9618L93.1928 74.9318C93.1845 75.2107 93.2507 75.4871 93.3856 75.7321L94.2617 75.2499ZM94.1924 74.9622C94.1955 74.8617 94.2255 74.7636 94.2793 74.6785L93.4339 74.1443C93.2848 74.3804 93.2015 74.6522 93.1929 74.9314L94.1924 74.9622ZM94.2793 74.6785C94.3329 74.5937 94.4083 74.5248 94.4981 74.4787L94.0418 73.5889C93.7934 73.7163 93.5833 73.9078 93.4339 74.1443L94.2793 74.6785ZM94.4981 74.4787C94.5878 74.4327 94.6878 74.4117 94.7878 74.4177L94.8478 73.4195C94.5684 73.4027 94.2902 73.4615 94.0418 73.5889L94.4981 74.4787ZM94.7882 74.4177C94.8886 74.4237 94.9856 74.4565 95.0689 74.5126L95.6275 73.6832C95.3957 73.5271 95.1262 73.436 94.8474 73.4195L94.7882 74.4177ZM95.0689 74.5126C95.1523 74.5688 95.2192 74.6464 95.2625 74.7371L96.165 74.3065C96.0448 74.0545 95.8591 73.8392 95.6275 73.6832L95.0689 74.5126Z" fill="black"/>
  <path d="M101.82 73.5565C101.913 73.8166 102.199 73.9522 102.459 73.8593C102.719 73.7665 102.855 73.4804 102.762 73.2203L101.82 73.5565ZM102.291 73.3884C102.762 73.2203 102.762 73.22 102.762 73.2196C102.761 73.2195 102.761 73.2192 102.761 73.219C102.761 73.2185 102.761 73.218 102.761 73.2175C102.76 73.2165 102.76 73.2155 102.76 73.2143C102.759 73.2121 102.758 73.2096 102.757 73.2068C102.755 73.2013 102.752 73.1947 102.749 73.1871C102.743 73.1721 102.735 73.1532 102.724 73.131C102.703 73.0868 102.673 73.0291 102.632 72.9631C102.549 72.8316 102.419 72.6642 102.224 72.5074C101.821 72.1822 101.197 71.9474 100.29 72.0773L100.432 73.0672C101.084 72.9738 101.425 73.1472 101.597 73.2858C101.69 73.3609 101.75 73.4394 101.785 73.4959C101.803 73.5239 101.814 73.5456 101.82 73.5574C101.822 73.5632 101.824 73.5664 101.824 73.5665C101.824 73.5665 101.823 73.5657 101.823 73.5641C101.822 73.5633 101.822 73.5623 101.822 73.561C101.821 73.5604 101.821 73.5597 101.821 73.5589C101.821 73.5586 101.821 73.5582 101.82 73.5578C101.82 73.5576 101.82 73.5573 101.82 73.5572C101.82 73.5569 101.82 73.5565 102.291 73.3884Z" fill="black"/>
  <path d="M69.3301 24.6281C69.5918 24.5401 69.7327 24.2566 69.6447 23.9949C69.5567 23.7331 69.2731 23.5923 69.0114 23.6803L69.3301 24.6281ZM69.1707 24.1542C69.0114 23.6803 69.0117 23.6802 69.012 23.6801C69.0121 23.68 69.0123 23.68 69.0125 23.6799C69.0129 23.6798 69.0132 23.6797 69.0136 23.6795C69.0142 23.6793 69.0148 23.6791 69.0153 23.679C69.0164 23.6786 69.0172 23.6784 69.0177 23.6782C69.0187 23.6779 69.0188 23.6779 69.0178 23.6782C69.016 23.6787 69.0104 23.6803 69.0015 23.6824C68.9836 23.6866 68.9538 23.6926 68.9157 23.6967C68.8374 23.7052 68.7381 23.7043 68.6377 23.6753C68.4832 23.6308 68.1901 23.4841 68.0373 22.7968L67.0611 23.0138C67.2794 23.9959 67.7971 24.4736 68.3605 24.6362C68.6192 24.7108 68.8556 24.7091 69.0234 24.6909C69.1084 24.6817 69.1791 24.6679 69.2311 24.6557C69.2571 24.6495 69.2787 24.6437 69.2953 24.6389C69.3037 24.6365 69.3108 24.6343 69.3166 24.6325C69.3195 24.6316 69.322 24.6308 69.3243 24.63C69.3254 24.6297 69.3265 24.6293 69.3274 24.629C69.3279 24.6289 69.3284 24.6287 69.3288 24.6286C69.329 24.6285 69.3293 24.6284 69.3295 24.6283C69.3298 24.6282 69.3301 24.6281 69.1707 24.1542Z" fill="black"/>
  <path d="M63.4233 61.9903C63.4508 62.2651 63.6958 62.4656 63.9705 62.4382C64.2453 62.4108 64.4458 62.1658 64.4184 61.891L63.4233 61.9903ZM64.4184 61.891L62.3657 41.3254L61.3706 41.4247L63.4233 61.9903L64.4184 61.891Z" fill="black"/>
  <path d="M51.4633 39.0469L51.1099 38.6932L51.1098 38.6934L51.4633 39.0469ZM52.3405 34.4208C52.3405 34.1447 52.1166 33.9208 51.8405 33.9208C51.5643 33.9208 51.3405 34.1447 51.3405 34.4208H52.3405ZM28.1658 39.924H50.5531V38.924H28.1658V39.924ZM50.5531 39.924C51.0272 39.924 51.4817 39.7356 51.8169 39.4005L51.1098 38.6934C50.962 38.8411 50.7618 38.924 50.5531 38.924V39.924ZM51.8168 39.4006C52.1521 39.0654 52.3405 38.6106 52.3405 38.1367H51.3405C51.3405 38.3455 51.2575 38.5458 51.1099 38.6932L51.8168 39.4006ZM52.3405 38.1367V34.4208H51.3405V38.1367H52.3405Z" fill="black"/>
  <path d="M136 98.8443C136.276 98.8443 136.5 98.6204 136.5 98.3443C136.5 98.0682 136.276 97.8443 136 97.8443V98.8443ZM3.41931 98.8443H136V97.8443H3.41931V98.8443Z" fill="black"/>
</svg>
