<svg width="20" height="20" viewBox="0 0 20 20" fill="none" xmlns="http://www.w3.org/2000/svg">
  <path fill-rule="evenodd" clip-rule="evenodd" d="M9.99999 4.16666C5.83333 4.16666 2.27499 6.75833 0.833328 10.4167C2.27499 14.075 5.83333 16.6667 9.99999 16.6667C14.1667 16.6667 17.725 14.075 19.1667 10.4167C17.725 6.75833 14.1667 4.16666 9.99999 4.16666ZM9.99999 14.5833C7.69999 14.5833 5.83333 12.7167 5.83333 10.4167C5.83333 8.11666 7.69999 6.25 9.99999 6.25C12.3 6.25 14.1667 8.11666 14.1667 10.4167C14.1667 12.7167 12.3 14.5833 9.99999 14.5833ZM9.99999 7.91666C8.61666 7.91666 7.49999 9.03333 7.49999 10.4167C7.49999 11.8 8.61666 12.9167 9.99999 12.9167C11.3833 12.9167 12.5 11.8 12.5 10.4167C12.5 9.03333 11.3833 7.91666 9.99999 7.91666Z" fill="#BDBDBD"/>
</svg>
