<svg width="34" height="34" viewBox="0 0 34 34" fill="none" xmlns="http://www.w3.org/2000/svg">
<circle cx="17" cy="17" r="17" fill="#EC8A2F"/>
<path d="M26.0667 26.2933V24.0267C26.0667 22.8244 25.589 21.6713 24.7389 20.8211C23.8887 19.971 22.7356 19.4933 21.5333 19.4933H12.4667C11.2643 19.4933 10.1113 19.971 9.2611 20.8211C8.41094 21.6713 7.93332 22.8244 7.93332 24.0267V26.2933" stroke="white" stroke-width="1.5" stroke-linecap="round" stroke-linejoin="round"/>
<path d="M17 15.8667C19.5037 15.8667 21.5333 13.8371 21.5333 11.3334C21.5333 8.82969 19.5037 6.80005 17 6.80005C14.4963 6.80005 12.4667 8.82969 12.4667 11.3334C12.4667 13.8371 14.4963 15.8667 17 15.8667Z" stroke="white" stroke-width="1.5" stroke-linecap="round" stroke-linejoin="round"/>
</svg>
