<svg width="16" height="16" viewBox="0 0 16 16" fill="none" xmlns="http://www.w3.org/2000/svg">
  <g clip-path="url(#clip0)">
    <path d="M15.3007 5.7047C15.2218 5.62557 15.0937 5.62557 15.0147 5.7047L13.755 6.96656C13.7222 6.9994 13.7017 7.04254 13.6968 7.08876C13.5965 8.04992 13.1656 8.95561 12.4834 9.63896L12.184 9.9388L10.0088 7.76004C10.1464 7.79258 10.2811 7.80904 10.4118 7.80904C10.6037 7.80904 10.7872 7.77391 10.9597 7.70323C11.0631 7.66087 11.1126 7.54257 11.0703 7.43903C11.028 7.33544 10.9099 7.28591 10.8065 7.32824C9.97365 7.66954 9.01343 6.76117 8.89249 6.6419L8.31452 6.06299C8.38628 5.75818 8.32433 5.43106 8.13981 5.16531C7.93122 4.86493 7.59959 4.69268 7.22854 4.69268L5.82864 4.70271C5.82739 4.70271 5.82615 4.70271 5.82493 4.70271C5.69092 4.70271 5.5649 4.6507 5.46972 4.55601C5.37367 4.46046 5.32078 4.33314 5.32081 4.19748V4.17638C5.32087 3.90421 5.53363 3.68258 5.80518 3.67186L8.35454 3.57126C9.27458 3.53498 10.1916 3.81485 10.9354 4.35929C11.0159 4.4182 11.1273 4.4096 11.1978 4.33897L12.5367 2.99783C12.6157 2.91873 12.6157 2.79045 12.5367 2.71135C12.4577 2.63222 12.3297 2.63222 12.2507 2.71135L11.0318 3.93226C10.2416 3.39997 9.29188 3.12886 8.33861 3.16641L5.78925 3.26701C5.78324 3.26726 5.77736 3.26779 5.77142 3.26817L4.80414 2.29934C4.72517 2.22021 4.5971 2.22021 4.51813 2.29934C4.43913 2.37844 4.43913 2.50672 4.51813 2.58582L5.33808 3.40711C5.08362 3.56836 4.9164 3.85244 4.91631 4.17635V4.19745C4.91625 4.44185 5.01158 4.6713 5.18468 4.84352C5.3578 5.01574 5.58734 5.10965 5.83153 5.10787L7.22997 5.09784C7.55211 5.09784 7.73021 5.28505 7.80769 5.39666C7.86671 5.48165 7.90626 5.57608 7.92552 5.67338L7.8562 5.60394C7.77723 5.52481 7.64916 5.52481 7.57019 5.60394C7.49118 5.68304 7.49118 5.81132 7.57019 5.89042L12.1337 10.4614C12.3308 10.6588 12.3308 10.98 12.1337 11.1774C11.9368 11.3747 11.6163 11.3747 11.4193 11.1776L8.51248 8.26612C8.43354 8.18699 8.30544 8.18699 8.2265 8.26612C8.1475 8.34522 8.1475 8.4735 8.2265 8.5526L11.3574 11.6886C11.5545 11.886 11.5545 12.2072 11.3574 12.4046C11.2619 12.5002 11.135 12.5529 11 12.5529C10.865 12.5529 10.7381 12.5002 10.6426 12.4046L7.67464 9.43173C7.59564 9.35263 7.4676 9.35263 7.38863 9.43173C7.30966 9.51083 7.30963 9.63911 7.38863 9.71821L9.82062 12.1542C10.0175 12.3516 10.0175 12.6726 9.82047 12.8699C9.62335 13.0674 9.30271 13.0673 9.10566 12.8699L6.46435 10.2243C6.38538 10.1452 6.25731 10.1452 6.17834 10.2243C6.09934 10.3034 6.09934 10.4317 6.17834 10.5108L8.13757 12.4732L8.1376 12.4733C8.33469 12.6706 8.33469 12.9918 8.1376 13.1892C7.94058 13.3866 7.61991 13.3866 7.42286 13.1892L3.87824 9.63896C3.19601 8.95561 2.76507 8.04992 2.66481 7.08876C2.65999 7.04254 2.63949 6.9994 2.60666 6.96656L0.985246 5.34246C0.906276 5.26333 0.778206 5.26333 0.699235 5.34246C0.620234 5.42156 0.620234 5.54984 0.699235 5.62894L2.27061 7.20289C2.39408 8.22931 2.86168 9.19365 3.59223 9.9254L3.8905 10.2242C3.77945 10.3782 3.71937 10.5625 3.71937 10.7562C3.71937 10.9996 3.81402 11.2285 3.98587 11.4007C4.16326 11.5783 4.39625 11.6672 4.62927 11.6672C4.6522 11.6672 4.6751 11.6661 4.69797 11.6643C4.69016 11.7127 4.68596 11.762 4.68596 11.812C4.68596 12.0554 4.78062 12.2843 4.95246 12.4564C5.12985 12.6341 5.36284 12.723 5.59586 12.723C5.6412 12.723 5.68653 12.7195 5.73146 12.7128C5.69024 12.9891 5.77546 13.2808 5.98736 13.493C6.15921 13.6652 6.38772 13.76 6.63076 13.76C6.84738 13.76 7.05234 13.6845 7.21606 13.5462C7.38079 13.6768 7.58042 13.7423 7.78021 13.7423C8.0132 13.7423 8.24626 13.6535 8.42365 13.4758C8.55579 13.3435 8.63862 13.1801 8.67232 13.009L8.81959 13.1565C8.997 13.3342 9.22996 13.423 9.46302 13.423C9.69601 13.423 9.92909 13.3342 10.1065 13.1565C10.2386 13.0241 10.3215 12.8608 10.3552 12.6897L10.3566 12.6911C10.5284 12.8632 10.7569 12.958 11 12.958C11.2431 12.958 11.4716 12.8632 11.6434 12.6911C11.9032 12.4309 11.9725 12.0512 11.8519 11.7271C12.0591 11.7099 12.2616 11.6223 12.4198 11.4639C12.7576 11.1255 12.7735 10.5851 12.4679 10.2274L12.7694 9.9254C13.4999 9.19365 13.9675 8.22928 14.091 7.20286L15.3008 5.99115C15.3797 5.91205 15.3797 5.7838 15.3007 5.7047ZM4.27191 11.1142C4.17645 11.0186 4.12387 10.8914 4.12387 10.7562C4.12387 10.6715 4.1445 10.5901 4.18333 10.5175L4.86761 11.2029C4.79518 11.2418 4.71381 11.2624 4.62927 11.2624C4.49429 11.2625 4.36737 11.2098 4.27191 11.1142ZM5.23851 12.17C5.14305 12.0744 5.09046 11.9472 5.09046 11.812C5.09046 11.7056 5.12341 11.6046 5.18378 11.5196L5.88773 12.2247C5.69055 12.3647 5.41505 12.3468 5.23851 12.17ZM6.2734 13.2066C6.09685 13.0297 6.07899 12.7538 6.21876 12.5563L6.92271 13.2614C6.83789 13.3218 6.73695 13.3549 6.63076 13.3549C6.49578 13.3549 6.36886 13.3022 6.2734 13.2066Z" fill="#FB984C"/>
  </g>
  <path fill-rule="evenodd" clip-rule="evenodd" d="M8 16C12.4183 16 16 12.4183 16 8C16 3.58172 12.4183 0 8 0C3.58172 0 0 3.58172 0 8C0 12.4183 3.58172 16 8 16ZM7.99992 15.36C12.0647 15.36 15.3599 12.0648 15.3599 7.99999C15.3599 3.93517 12.0647 0.639988 7.99992 0.639988C3.93511 0.639988 0.639924 3.93517 0.639924 7.99999C0.639924 12.0648 3.93511 15.36 7.99992 15.36Z" fill="#EC8A2F"/>

    <clipPath id="clip0">
      <rect width="13.76" height="13.76" fill="white" transform="translate(1.12 2.23999)"/>
    </clipPath>

</svg>
