<svg width="298" height="426" viewBox="0 0 298 426" fill="none" xmlns="http://www.w3.org/2000/svg">
  <path fill-rule="evenodd" clip-rule="evenodd" d="M238.539 -67.1296C277.287 -73.9469 306.743 -107.319 346.053 -109.529C391.555 -112.087 442.803 -111.025 477.184 -80.5467C511.653 -49.9895 519.92 1.20315 522.864 47.2131C525.468 87.9128 502.597 123.408 492.757 162.862C482.086 205.645 489.282 254.079 462.581 288.915C433.501 326.856 387.577 346.756 341.744 359.889C326 359.889 285.449 351.604 244 316C199.428 277.714 178.742 251.937 153.905 198.538C133.375 154.4 69.8876 141.604 55.2706 95.1761C39.1453 43.9579 32.3053 -26.0945 72.0898 -61.3283C114.496 -98.8843 182.782 -57.3198 238.539 -67.1296Z" fill="url(#paint0_linear)"/>
  <defs>
    <linearGradient id="paint0_linear" x1="48" y1="14.5" x2="313" y2="359.5" gradientUnits="userSpaceOnUse">
      <stop stop-color="#FDC370"/>
      <stop offset="1" stop-color="#F7E2B6" stop-opacity="0.44"/>
    </linearGradient>
  </defs>
</svg>
